<svg width="14" height="14" viewBox="0 0 14 14" fill="none" xmlns="http://www.w3.org/2000/svg">
<path d="M7.00339 10.0146H6.99658V13.092H7.00339V10.0146Z" fill="#B52E31"/>
<path d="M7.17323 11.877H6.69318V12.8575H7.17323V11.877Z" fill="#B52E31"/>
<path d="M7.50276 11.7598H7.02271V12.7404H7.50276V11.7598Z" fill="#B52E31"/>
<path d="M7.09162 2.28745H3.45483V10.715H7.09162V2.28745Z" fill="white"/>
<path d="M10.9463 2.28745H7.09161V10.715H10.9463V2.28745Z" fill="#F7F7F7"/>
<path d="M7.2484 8.40794H6.76834V12.8575H7.2484V8.40794Z" fill="#B52E31"/>
<path d="M7.24004 5.46673H6.75998V7.34076H7.24004V5.46673Z" fill="#B52E31"/>
<path d="M5.90369 12.4851C4.36185 11.6276 3.21665 10.9915 2.85992 10.7945C2.69139 10.7014 2.47359 10.5803 2.37592 10.5254C2.26445 10.4627 2.18999 10.3502 2.17588 10.2231L2.1752 10.2169C2.16247 10.1022 2.13395 9.85205 2.11182 9.66105C2.08969 9.47005 2.05289 9.15137 2.03004 8.95288C2.0072 8.75438 1.96999 8.43264 1.94736 8.2379C1.92473 8.04315 1.89107 7.75205 1.87256 7.59101C1.85406 7.42997 1.8204 7.13887 1.79777 6.94412C1.77513 6.74937 1.73793 6.42763 1.71508 6.22914C1.69224 6.03065 1.65586 5.71504 1.63424 5.52778C1.61262 5.34052 1.57624 5.02491 1.55339 4.82642C1.53055 4.62792 1.49333 4.30618 1.47068 4.11144C1.44804 3.91669 1.41138 3.59801 1.38923 3.40327C1.36708 3.20852 1.34509 3.02144 1.34036 2.98753C1.33535 2.95168 1.35634 2.91727 1.3905 2.9053L1.50002 2.86693C1.59257 2.83451 1.88278 2.73141 2.14494 2.63781C2.4071 2.54422 3.01381 2.32802 3.49319 2.15737C3.97256 1.98672 4.77232 1.70182 5.27042 1.52426C5.76853 1.34671 6.36145 1.1354 6.58803 1.0547C6.78887 0.983163 6.99999 1.13208 6.99999 1.34528V1.61801V1.91768C6.99999 2.18818 6.94256 2.4556 6.83149 2.70224C6.73881 2.90804 6.59708 3.2235 6.51655 3.40327C6.43602 3.58303 6.31348 3.85575 6.24424 4.0093C6.12957 4.26363 5.91591 4.73948 5.85596 4.87408C5.84261 4.90404 5.77359 5.05725 5.70258 5.21455C5.56953 5.50929 5.29811 6.11331 5.09979 6.55599C5.03772 6.69456 4.92899 6.93663 4.85818 7.09393C4.78737 7.25122 4.63313 7.59441 4.51544 7.85657C4.39774 8.11873 4.25034 8.4466 4.18788 8.58517C4.07941 8.82583 4.00769 8.98511 3.6652 9.74595C3.49726 10.119 3.46693 10.1909 3.47446 10.1983C3.4848 10.2084 4.80034 10.1794 4.80491 10.1689C4.80751 10.163 4.96694 9.76591 5.15919 9.28653L5.2312 9.10699C5.399 8.68858 5.80357 8.41355 6.25437 8.41142C6.6656 8.40947 6.99999 8.7423 6.99999 9.15353V10.7504C6.99999 12.0388 6.99846 13.0925 6.99659 13.092C6.99472 13.0915 6.50291 12.8184 5.90369 12.4851Z" fill="#E23237"/>
<path d="M6.99672 4.91486L7.00327 4.91486L7.05577 5.49066L6.95023 5.5179L6.99672 4.91486Z" fill="#B52E31"/>
<path d="M5.97861 7.33718C5.97861 7.3352 5.98156 7.3271 5.98517 7.31918C5.98878 7.31126 5.99277 7.30062 5.99405 7.29554C5.99532 7.29045 5.99756 7.28629 5.99903 7.28629C6.00049 7.28629 6.00269 7.28093 6.00392 7.27438C6.00515 7.26782 6.00749 7.26246 6.00913 7.26246C6.01077 7.26246 6.01309 7.25801 6.01428 7.25258C6.01548 7.24714 6.01943 7.23686 6.02307 7.22973C6.0267 7.2226 6.02968 7.21402 6.02968 7.21067C6.02968 7.20732 6.03121 7.20458 6.03308 7.20458C6.03495 7.20458 6.03654 7.20267 6.0366 7.20032C6.03666 7.19798 6.03968 7.18994 6.0433 7.18245C6.04691 7.17496 6.04993 7.1676 6.04999 7.16609C6.05004 7.16458 6.05328 7.15616 6.05716 7.14737C6.0687 7.12121 6.07259 7.112 6.08113 7.09052C6.0856 7.07929 6.09041 7.06959 6.09181 7.06896C6.09322 7.06834 6.09437 7.06525 6.09437 7.0621C6.09437 7.05895 6.09723 7.05104 6.10072 7.04451C6.10422 7.03798 6.10817 7.02767 6.1095 7.02158C6.11084 7.01549 6.11327 7.01051 6.11491 7.01051C6.11655 7.01051 6.1189 7.00515 6.12013 6.9986C6.12136 6.99204 6.12356 6.98668 6.12502 6.98668C6.12648 6.98668 6.12872 6.98252 6.12999 6.97744C6.13127 6.97235 6.13527 6.96171 6.13888 6.95379C6.14248 6.94587 6.14544 6.93701 6.14544 6.9341C6.14544 6.93118 6.14697 6.9288 6.14884 6.9288C6.15071 6.9288 6.1523 6.92689 6.15236 6.92455C6.15242 6.92221 6.15544 6.91416 6.15905 6.90667C6.16267 6.89918 6.16568 6.89182 6.16575 6.89031C6.16586 6.88781 6.17188 6.87346 6.18484 6.84487C6.18751 6.83897 6.1897 6.83323 6.1897 6.83211C6.1897 6.831 6.19407 6.82051 6.19941 6.8088C6.20475 6.79709 6.21328 6.77755 6.21837 6.76538C6.22346 6.75321 6.22897 6.74018 6.23061 6.73644C6.23224 6.73269 6.23673 6.72244 6.24058 6.71364C6.24443 6.70485 6.24758 6.69672 6.24758 6.69558C6.24758 6.69326 6.26009 6.66425 6.27785 6.62541C6.2818 6.61678 6.28503 6.60733 6.28503 6.60442C6.28503 6.6015 6.28618 6.59861 6.28758 6.59798C6.28899 6.59736 6.2938 6.58765 6.29829 6.57642C6.30702 6.55453 6.31658 6.53193 6.32443 6.51462C6.3271 6.50872 6.32929 6.50282 6.32929 6.50152C6.32929 6.50021 6.33148 6.49431 6.33415 6.48841C6.33682 6.48251 6.34225 6.47002 6.34621 6.46066C6.35016 6.4513 6.35546 6.43981 6.35797 6.43513C6.36049 6.43044 6.36361 6.42163 6.36491 6.41555C6.36622 6.40946 6.36862 6.40448 6.37026 6.40448C6.3719 6.40448 6.37425 6.39912 6.37548 6.39257C6.37671 6.38601 6.37893 6.38065 6.38042 6.38065C6.38191 6.38065 6.3851 6.37299 6.3875 6.36363C6.3899 6.35426 6.39298 6.3466 6.39435 6.3466C6.39572 6.3466 6.39792 6.34162 6.39924 6.33554C6.40056 6.32945 6.40261 6.32371 6.4038 6.32277C6.40499 6.32183 6.4096 6.31188 6.41405 6.30064C6.42253 6.27925 6.42635 6.27019 6.43799 6.2438C6.44187 6.23501 6.44505 6.22688 6.44505 6.22574C6.44505 6.2246 6.44819 6.21647 6.45204 6.20768C6.45589 6.19888 6.46035 6.18863 6.46195 6.18488C6.46355 6.18114 6.46797 6.17118 6.47178 6.16275C6.47558 6.15433 6.47972 6.14322 6.48097 6.13807C6.48221 6.13292 6.48453 6.1287 6.48612 6.1287C6.4877 6.1287 6.49 6.12334 6.49123 6.11679C6.49246 6.11023 6.49467 6.10487 6.49613 6.10487C6.49759 6.10487 6.49983 6.10071 6.5011 6.09563C6.50322 6.08721 6.50826 6.07487 6.5219 6.04478C6.52457 6.03888 6.52676 6.03291 6.52676 6.03153C6.52676 6.03015 6.52972 6.02272 6.53333 6.01502C6.54831 5.98311 6.56081 5.95492 6.56081 5.95302C6.56081 5.9519 6.56301 5.94616 6.5657 5.94026C6.56839 5.93436 6.57459 5.91957 6.57947 5.9074C6.58435 5.89523 6.58971 5.88221 6.59137 5.87846C6.59303 5.87472 6.597 5.86552 6.60018 5.85803C6.60336 5.85054 6.60874 5.83829 6.61213 5.8308C6.61551 5.82331 6.61931 5.81296 6.62056 5.80781C6.6218 5.80267 6.62407 5.79845 6.62559 5.79845C6.62711 5.79845 6.62933 5.79401 6.63053 5.78857C6.63172 5.78314 6.63567 5.77285 6.63931 5.76572C6.64295 5.75859 6.64592 5.75001 6.64592 5.74666C6.64592 5.74331 6.64739 5.74057 6.64917 5.74057C6.65096 5.74057 6.65343 5.73521 6.65466 5.72866C6.65589 5.7221 6.65809 5.71674 6.65955 5.71674C6.66101 5.71674 6.66325 5.71258 6.66453 5.70749C6.66655 5.69944 6.67106 5.68821 6.68337 5.66056C6.69496 5.63454 6.7004 5.6215 6.7004 5.61971C6.7004 5.61783 6.70613 5.60426 6.71911 5.57545C6.72164 5.56983 6.72475 5.56102 6.72604 5.55587C6.72732 5.55072 6.72957 5.54651 6.73103 5.54651C6.73249 5.54651 6.73469 5.54114 6.73592 5.53459C6.73715 5.52804 6.7395 5.52267 6.74114 5.52267C6.74278 5.52267 6.74509 5.51823 6.74629 5.51279C6.74748 5.50736 6.75143 5.49707 6.75507 5.48994C6.75871 5.48281 6.76168 5.47423 6.76168 5.47088C6.76168 5.46753 6.76314 5.46479 6.76493 5.46479C6.76672 5.46479 6.76919 5.45943 6.77042 5.45288C6.77165 5.44632 6.77387 5.44096 6.77536 5.44096C6.77685 5.44096 6.78004 5.4333 6.78244 5.42394C6.78484 5.41458 6.78804 5.40691 6.78956 5.40691C6.79108 5.40691 6.79232 5.40523 6.79232 5.40317C6.79232 5.40112 6.7945 5.3946 6.79716 5.3887C6.79982 5.3828 6.8114 5.35576 6.82291 5.32861C6.83441 5.30146 6.84517 5.27618 6.84682 5.27243C6.85984 5.24295 6.86382 5.23337 6.86382 5.23157C6.86382 5.22962 6.87203 5.21022 6.88254 5.18731C6.89795 5.15375 6.90127 5.14546 6.90127 5.14056C6.90127 5.13756 6.90242 5.1346 6.90383 5.13397C6.90712 5.13251 6.92511 5.08833 6.92511 5.0817C6.92511 5.07893 6.92664 5.07666 6.92851 5.07666C6.93038 5.07666 6.93191 5.07498 6.93191 5.07292C6.93191 5.07086 6.93412 5.06435 6.93681 5.05845C6.9395 5.05255 6.9457 5.03776 6.95058 5.02559C6.95546 5.01342 6.96084 5.0004 6.96252 4.99665C6.97394 4.9713 6.97938 4.95777 6.9814 4.94972C6.98268 4.94464 6.98492 4.94048 6.98638 4.94048C6.98784 4.94048 6.99003 4.93517 6.99125 4.92868C6.99247 4.92219 6.99493 4.91597 6.99673 4.91486C6.99883 4.91357 7.00001 5.35097 7.00001 6.1268V7.34077H6.48931C6.1334 7.34077 5.97861 7.33968 5.97861 7.33718Z" fill="#E23237"/>
<path d="M8.0963 12.4851C9.63815 11.6276 10.7833 10.9915 11.1401 10.7945C11.3086 10.7014 11.5264 10.5803 11.6241 10.5254C11.7355 10.4627 11.81 10.3502 11.8241 10.2231L11.8248 10.2169C11.8375 10.1022 11.866 9.85205 11.8882 9.66105C11.9103 9.47005 11.9471 9.15137 11.97 8.95288C11.9928 8.75438 12.03 8.43264 12.0526 8.2379C12.0753 8.04315 12.1089 7.75205 12.1274 7.59101C12.1459 7.42997 12.1796 7.13887 12.2022 6.94412C12.2249 6.74937 12.2621 6.42763 12.2849 6.22914C12.3078 6.03065 12.3441 5.71504 12.3658 5.52778C12.3874 5.34052 12.4238 5.02491 12.4466 4.82642C12.4694 4.62792 12.5067 4.30618 12.5293 4.11144C12.552 3.91669 12.5886 3.59801 12.6108 3.40327C12.6329 3.20852 12.6549 3.02144 12.6596 2.98753C12.6646 2.95168 12.6437 2.91727 12.6095 2.9053L12.5 2.86693C12.4074 2.83451 12.1172 2.73141 11.8551 2.63781C11.5929 2.54422 10.9862 2.32802 10.5068 2.15737C10.0274 1.98672 9.22767 1.70182 8.72957 1.52426C8.23147 1.34671 7.63855 1.1354 7.41196 1.0547C7.21112 0.983163 7 1.13208 7 1.34528V1.61801V1.91768C7 2.18818 7.05744 2.4556 7.16851 2.70224C7.26119 2.90804 7.40291 3.2235 7.48345 3.40327C7.56398 3.58303 7.68652 3.85575 7.75575 4.0093C7.87043 4.26363 8.08408 4.73948 8.14404 4.87408C8.15739 4.90404 8.2264 5.05725 8.29741 5.21455C8.43047 5.50929 8.70189 6.11331 8.9002 6.55599C8.96228 6.69456 9.07101 6.93663 9.14182 7.09393C9.21263 7.25122 9.36686 7.59441 9.48456 7.85657C9.60225 8.11873 9.74965 8.4466 9.81211 8.58517C9.92058 8.82583 9.99231 8.98511 10.3348 9.74595C10.5027 10.119 10.5331 10.1909 10.5255 10.1983C10.5152 10.2084 9.19966 10.1794 9.19509 10.1689C9.19249 10.163 9.03306 9.76591 8.8408 9.28653L8.76879 9.10699C8.60099 8.68858 8.19642 8.41355 7.74562 8.41142C7.3344 8.40947 7 8.7423 7 9.15353V10.7504C7 12.0388 7.00153 13.0925 7.0034 13.092C7.00528 13.0915 7.49708 12.8184 8.0963 12.4851Z" fill="#B52E31"/>
<path d="M5.90369 12.4851C4.36185 11.6276 3.85674 10.697 3.5 10.5C3.33147 10.4069 3.47359 9.58033 3.37593 9.5254L3.19835 9.42555L3.17521 9.21694C3.16247 9.1022 3.13395 8.85205 3.11182 8.66105C3.08969 8.47005 2.05289 9.15137 2.03005 8.95288C2.0072 8.75438 1.96999 8.43264 1.94736 8.2379C1.92473 8.04315 1.89107 7.75205 1.87257 7.59101C1.85406 7.42997 1.8204 7.13887 1.79777 6.94412C1.77514 6.74937 1.73793 6.42763 1.71508 6.22914C1.69224 6.03065 1.65586 5.71504 1.63424 5.52778C1.61262 5.34052 2.57624 6.02491 2.55339 5.82642C2.53055 5.62793 2.49333 5.30618 2.47069 5.11144C2.44804 4.91669 2.41139 4.59801 2.38923 4.40327C2.36708 4.20852 2.34509 4.02144 2.34036 3.98753L2.33176 3.92588L2.50002 3.86693C2.59257 3.83451 2.88278 3.73141 3.14494 3.63781C3.4071 3.54422 3.01381 2.32802 3.49319 2.15737C3.97257 1.98672 4.77232 1.70182 5.27043 1.52426C5.76853 1.34671 6.36145 1.1354 6.58803 1.0547L7 0.907967V1.61801V2.32806L6.83149 2.70224C6.73881 2.90804 6.59709 3.2235 6.51655 3.40327C6.43602 3.58303 6.31348 3.85575 6.24425 4.0093C6.12957 4.26364 5.91592 4.73948 5.85596 4.87408C5.84261 4.90404 5.7736 5.05725 5.70259 5.21455C5.56953 5.50929 5.29811 6.11331 5.0998 6.55599C5.03772 6.69456 4.92899 6.93663 4.85818 7.09393C4.78737 7.25122 4.63313 7.59441 4.51544 7.85657C4.39774 8.11873 4.25034 8.4466 4.18789 8.58517C4.07941 8.82583 4.00769 8.98512 3.6652 9.74595C3.49726 10.119 3.46694 10.1909 3.47446 10.1983C3.4848 10.2084 4.80034 10.1794 4.80491 10.1689C4.80751 10.163 4.96694 9.76591 5.15919 9.28653L5.50875 8.41494L6.25437 8.41142L7 8.4079V10.7504C7 12.0388 6.99659 13.092 6.99659 13.092C6.99659 13.092 6.50292 12.8184 5.90369 12.4851Z" fill="#E23237"/>
<path d="M8.0963 12.4851C9.63815 11.6276 10.7833 10.9915 11.1401 10.7945C11.3086 10.7014 11.5264 10.5803 11.6241 10.5254C11.7355 10.4627 11.81 10.3502 11.8241 10.2231L11.8248 10.2169C11.8375 10.1022 11.866 9.85205 11.8882 9.66105C11.9103 9.47005 11.9471 9.15137 11.97 8.95288C11.9928 8.75438 12.03 8.43264 12.0526 8.2379C12.0753 8.04315 12.1089 7.75205 12.1274 7.59101C12.1459 7.42997 12.1796 7.13887 12.2022 6.94412C12.2249 6.74937 12.2621 6.42763 12.2849 6.22914C12.3078 6.03065 12.3441 5.71504 12.3658 5.52778C12.3874 5.34052 12.4238 5.02491 12.4466 4.82642C12.4694 4.62792 12.5067 4.30618 12.5293 4.11144C12.552 3.91669 12.5886 3.59801 12.6108 3.40327C12.6329 3.20852 12.6549 3.02144 12.6596 2.98753C12.6646 2.95168 12.6437 2.91727 12.6095 2.9053L12.5 2.86693C12.4074 2.83451 12.1172 2.73141 11.8551 2.63781C11.5929 2.54422 10.9862 2.32802 10.5068 2.15737C10.0274 1.98672 9.22767 1.70182 8.72957 1.52426C8.23147 1.34671 7.63855 1.1354 7.41196 1.0547C7.21112 0.983163 7 1.13208 7 1.34528V1.61801V1.91768C7 2.18818 7.05744 2.4556 7.16851 2.70224C7.26119 2.90804 7.40291 3.2235 7.48345 3.40327C7.56398 3.58303 7.68652 3.85575 7.75575 4.0093C7.87043 4.26363 8.08408 4.73948 8.14404 4.87408C8.15739 4.90404 8.2264 5.05725 8.29741 5.21455C8.43047 5.50929 8.70189 6.11331 8.9002 6.55599C8.96228 6.69456 9.07101 6.93663 9.14182 7.09393C9.21263 7.25122 9.36686 7.59441 9.48456 7.85657C9.60225 8.11873 9.74965 8.4466 9.81211 8.58517C9.92058 8.82583 9.99231 8.98511 10.3348 9.74595C10.5027 10.119 10.5331 10.1909 10.5255 10.1983C10.5152 10.2084 9.19966 10.1794 9.19509 10.1689C9.19249 10.163 9.03306 9.76591 8.8408 9.28653L8.76879 9.10699C8.60099 8.68858 8.19642 8.41355 7.74562 8.41142C7.3344 8.40947 7 8.7423 7 9.15353V10.7504C7 12.0388 7.00153 13.0925 7.0034 13.092C7.00528 13.0915 7.49708 12.8184 8.0963 12.4851Z" fill="#B52E31"/>
<path d="M8.0963 12.4851C9.63815 11.6276 10.3793 10.8349 10.7361 10.6379C10.9046 10.5448 11.1224 10.4237 11.2201 10.3688L11.3976 10.2689L11.4208 10.0603C11.4335 9.94558 11.866 9.85205 11.8882 9.66105C11.9103 9.47005 11.9471 9.15137 11.97 8.95288C11.9928 8.75438 12.03 8.43264 12.0526 8.2379C12.0753 8.04315 12.1089 7.75205 12.1274 7.59101C12.1459 7.42997 12.1796 7.13887 12.2022 6.94412C12.2249 6.74937 12.2621 6.42763 12.2849 6.22914C12.3078 6.03065 12.3441 5.71504 12.3658 5.52778C12.3874 5.34052 12.4238 5.02491 12.4466 4.82642C12.4694 4.62793 12.5067 4.30618 12.5293 4.11144C12.552 3.91669 12.1312 3.86127 12.1534 3.66652C12.1755 3.47177 12.1975 3.28469 12.2022 3.25079L12.2108 3.18914L12.0426 3.13019C11.95 3.09776 11.6598 2.99466 11.3976 2.90107C11.1355 2.80747 10.9862 2.32802 10.5068 2.15737C10.0274 1.98672 9.22767 1.70182 8.72957 1.52426C8.23147 1.34671 7.63855 1.1354 7.41196 1.0547L7 0.907967V1.61801V2.32806L7.16851 2.70224C7.26119 2.90804 7.40291 3.2235 7.48345 3.40327C7.56398 3.58303 7.68652 3.85575 7.75575 4.0093C7.87043 4.26364 8.08408 4.73948 8.14404 4.87408C8.15739 4.90404 8.2264 5.05725 8.29741 5.21455C8.43047 5.50929 8.70189 6.11331 8.9002 6.55599C8.96228 6.69456 9.07101 6.93663 9.14182 7.09393C9.21263 7.25122 9.36686 7.59441 9.48456 7.85657C9.60225 8.11873 9.74965 8.4466 9.81211 8.58517C9.92058 8.82583 9.99231 8.98512 10.3348 9.74595C10.5027 10.119 10.5331 10.1909 10.5255 10.1983C10.5152 10.2084 9.19966 10.1794 9.19509 10.1689C9.19249 10.163 9.03306 9.76591 8.8408 9.28653L8.49125 8.41494L7.74562 8.41142L7 8.4079V10.7504C7 12.0388 7.0034 13.092 7.0034 13.092C7.0034 13.092 7.49708 12.8184 8.0963 12.4851Z" fill="#B52E31"/>
<path d="M8.0214 7.33718C8.0214 7.3352 8.01845 7.3271 8.01484 7.31918C8.01123 7.31126 8.00724 7.30062 8.00596 7.29554C8.00468 7.29045 8.00244 7.28629 8.00098 7.28629C7.99952 7.28629 7.99732 7.28093 7.99609 7.27438C7.99486 7.26782 7.99251 7.26246 7.99087 7.26246C7.98924 7.26246 7.98692 7.25801 7.98573 7.25258C7.98453 7.24714 7.98058 7.23686 7.97694 7.22973C7.97331 7.2226 7.97033 7.21402 7.97033 7.21067C7.97033 7.20732 7.9688 7.20458 7.96693 7.20458C7.96505 7.20458 7.96347 7.20267 7.96341 7.20032C7.96335 7.19798 7.96033 7.18994 7.95671 7.18245C7.95309 7.17496 7.95008 7.1676 7.95002 7.16609C7.94996 7.16458 7.94673 7.15616 7.94285 7.14737C7.9313 7.12121 7.92742 7.112 7.91888 7.09052C7.91441 7.07929 7.9096 7.06959 7.9082 7.06896C7.90679 7.06834 7.90564 7.06525 7.90564 7.0621C7.90564 7.05895 7.90278 7.05104 7.89929 7.04451C7.89579 7.03798 7.89184 7.02767 7.8905 7.02158C7.88917 7.01549 7.88674 7.01051 7.8851 7.01051C7.88346 7.01051 7.88111 7.00515 7.87988 6.9986C7.87865 6.99204 7.87645 6.98668 7.87499 6.98668C7.87353 6.98668 7.87129 6.98252 7.87001 6.97744C7.86874 6.97235 7.86474 6.96171 7.86113 6.95379C7.85752 6.94587 7.85457 6.93701 7.85457 6.9341C7.85457 6.93118 7.85304 6.9288 7.85117 6.9288C7.8493 6.9288 7.84771 6.92689 7.84765 6.92455C7.84759 6.92221 7.84457 6.91416 7.84095 6.90667C7.83734 6.89918 7.83432 6.89182 7.83426 6.89031C7.83415 6.88781 7.82812 6.87346 7.81517 6.84487C7.8125 6.83897 7.81031 6.83323 7.81031 6.83211C7.81031 6.831 7.80594 6.82051 7.8006 6.8088C7.79526 6.79709 7.78673 6.77755 7.78164 6.76538C7.77655 6.75321 7.77104 6.74018 7.7694 6.73644C7.76776 6.73269 7.76327 6.72244 7.75943 6.71364C7.75558 6.70485 7.75243 6.69672 7.75243 6.69558C7.75243 6.69326 7.73992 6.66425 7.72216 6.62541C7.71821 6.61678 7.71498 6.60733 7.71498 6.60442C7.71498 6.6015 7.71383 6.59861 7.71243 6.59798C7.71102 6.59736 7.7062 6.58765 7.70172 6.57642C7.69298 6.55453 7.68343 6.53193 7.67558 6.51462C7.67291 6.50872 7.67072 6.50282 7.67072 6.50152C7.67072 6.50021 7.66853 6.49431 7.66586 6.48841C7.66319 6.48251 7.65776 6.47002 7.6538 6.46066C7.64984 6.4513 7.64455 6.43981 7.64203 6.43513C7.63952 6.43044 7.6364 6.42163 7.63509 6.41555C7.63379 6.40946 7.63139 6.40448 7.62975 6.40448C7.62811 6.40448 7.62576 6.39912 7.62453 6.39257C7.6233 6.38601 7.62108 6.38065 7.61959 6.38065C7.6181 6.38065 7.61491 6.37299 7.61251 6.36363C7.61011 6.35426 7.60703 6.3466 7.60566 6.3466C7.60429 6.3466 7.60209 6.34162 7.60077 6.33554C7.59945 6.32945 7.5974 6.32371 7.59621 6.32277C7.59502 6.32183 7.59041 6.31188 7.58596 6.30064C7.57748 6.27925 7.57366 6.27019 7.56202 6.2438C7.55814 6.23501 7.55496 6.22688 7.55496 6.22574C7.55496 6.2246 7.55181 6.21647 7.54797 6.20768C7.54412 6.19888 7.53966 6.18863 7.53806 6.18488C7.53646 6.18114 7.53203 6.17118 7.52823 6.16275C7.52443 6.15433 7.52029 6.14322 7.51904 6.13807C7.51779 6.13292 7.51547 6.1287 7.51389 6.1287C7.51231 6.1287 7.51 6.12334 7.50877 6.11679C7.50754 6.11023 7.50534 6.10487 7.50388 6.10487C7.50242 6.10487 7.50018 6.10071 7.4989 6.09563C7.49679 6.08721 7.49175 6.07487 7.47811 6.04478C7.47544 6.03888 7.47325 6.03291 7.47325 6.03153C7.47325 6.03015 7.47029 6.02272 7.46668 6.01502C7.4517 5.98311 7.4392 5.95492 7.4392 5.95302C7.4392 5.9519 7.437 5.94616 7.43431 5.94026C7.43162 5.93436 7.42542 5.91957 7.42054 5.9074C7.41565 5.89523 7.4103 5.88221 7.40864 5.87846C7.40698 5.87472 7.40301 5.86552 7.39983 5.85803C7.39664 5.85054 7.39127 5.83829 7.38788 5.8308C7.38449 5.82331 7.3807 5.81296 7.37945 5.80781C7.3782 5.80267 7.37594 5.79845 7.37442 5.79845C7.37289 5.79845 7.37067 5.79401 7.36948 5.78857C7.36829 5.78314 7.36433 5.77285 7.3607 5.76572C7.35706 5.75859 7.35409 5.75001 7.35409 5.74666C7.35409 5.74331 7.35262 5.74057 7.35084 5.74057C7.34905 5.74057 7.34658 5.73521 7.34535 5.72866C7.34412 5.7221 7.34192 5.71674 7.34046 5.71674C7.339 5.71674 7.33676 5.71258 7.33548 5.70749C7.33346 5.69944 7.32895 5.68821 7.31663 5.66056C7.30504 5.63454 7.29961 5.6215 7.29961 5.61971C7.29961 5.61783 7.29388 5.60426 7.2809 5.57545C7.27837 5.56983 7.27525 5.56102 7.27397 5.55587C7.27269 5.55072 7.27044 5.54651 7.26898 5.54651C7.26752 5.54651 7.26532 5.54114 7.26409 5.53459C7.26286 5.52804 7.26051 5.52267 7.25887 5.52267C7.25723 5.52267 7.25492 5.51823 7.25372 5.51279C7.25253 5.50736 7.24858 5.49707 7.24494 5.48994C7.2413 5.48281 7.23833 5.47423 7.23833 5.47088C7.23833 5.46753 7.23686 5.46479 7.23508 5.46479C7.23329 5.46479 7.23082 5.45943 7.22959 5.45288C7.22836 5.44632 7.22614 5.44096 7.22464 5.44096C7.22315 5.44096 7.21997 5.4333 7.21757 5.42394C7.21517 5.41458 7.21196 5.40691 7.21045 5.40691C7.20893 5.40691 7.20768 5.40523 7.20768 5.40317C7.20768 5.40112 7.20551 5.3946 7.20285 5.3887C7.20019 5.3828 7.1886 5.35576 7.1771 5.32861C7.1656 5.30146 7.15484 5.27618 7.15318 5.27243C7.14017 5.24295 7.13619 5.23337 7.13619 5.23157C7.13619 5.22962 7.12798 5.21022 7.11747 5.18731C7.10206 5.15375 7.09874 5.14546 7.09874 5.14056C7.09874 5.13756 7.09759 5.1346 7.09618 5.13397C7.09289 5.13251 7.0749 5.08833 7.0749 5.0817C7.0749 5.07893 7.07337 5.07666 7.0715 5.07666C7.06963 5.07666 7.06809 5.07498 7.06809 5.07292C7.06809 5.07086 7.06589 5.06435 7.0632 5.05845C7.06051 5.05255 7.05431 5.03776 7.04943 5.02559C7.04455 5.01342 7.03917 5.0004 7.03749 4.99665C7.02607 4.9713 7.02063 4.95777 7.01861 4.94972C7.01733 4.94464 7.01509 4.94048 7.01363 4.94048C7.01217 4.94048 7.00998 4.93517 7.00876 4.92868C7.00754 4.92219 7.00507 4.91597 7.00327 4.91486C7.00118 4.91357 7 5.35097 7 6.1268V7.34077H7.5107C7.86661 7.34077 8.0214 7.33968 8.0214 7.33718Z" fill="#B52E31"/>
<path d="M7.00017 0.907967H7V2.32806H7.00017V0.907967Z" fill="#B52E31"/>
</svg>
