<svg width="14" height="14" viewBox="0 0 14 14" fill="none" xmlns="http://www.w3.org/2000/svg">
<path d="M2.70387 9.70924C2.70768 9.69941 2.92749 8.95301 3.19235 8.05058C3.55855 6.80285 3.6817 6.40134 3.70642 6.37445C3.73052 6.34823 3.90377 5.80713 4.37676 4.28084C4.93205 2.48897 5.02393 2.20459 5.08668 2.08351C5.21454 1.83679 5.31301 1.74086 5.48951 1.69105C5.54494 1.67541 5.60897 1.65303 5.63181 1.64131C5.66833 1.62259 5.82768 1.6212 6.95207 1.62997C8.14015 1.63922 8.23332 1.6417 8.26647 1.66484C8.2861 1.67854 8.33689 1.69676 8.37934 1.70535C8.56113 1.74211 8.68445 1.8536 8.81143 2.09601C8.88505 2.23655 8.93136 2.37615 9.31476 3.61306C9.66843 4.75409 9.92976 5.61502 10.8507 8.67323C10.8835 8.78216 10.9641 9.04903 11.0299 9.26629C11.0956 9.48354 11.1473 9.66345 11.1446 9.66609C11.1419 9.66881 11.0312 9.6226 10.8985 9.56359C10.3906 9.33772 9.95587 9.17242 9.54143 9.04761C9.31097 8.97821 8.69629 8.82208 8.65185 8.82165C8.63592 8.8215 8.43697 8.2098 7.87538 6.43441C7.46011 5.12154 7.10776 4.01334 7.0924 3.97175C7.06981 3.91061 7.05517 3.89227 7.01593 3.87602C6.95834 3.85215 6.9099 3.86141 6.86958 3.90396C6.8322 3.9434 6.87019 3.82446 6.02548 6.54726L5.32652 8.80025C5.3146 8.83868 5.28153 8.86676 5.24167 8.8723C4.51342 8.97336 3.70844 9.23383 2.92962 9.62043C2.81138 9.67913 2.71065 9.72715 2.70579 9.72715C2.70094 9.72715 2.69996 9.71907 2.70387 9.70924Z" fill="#F5F5F5"/>
<path d="M5.21956 9.88072C5.13581 10.5843 4.9719 11.2878 5.69391 11.9914C5.79118 11.5529 6.01431 11.4674 6.29947 11.4812C6.77603 11.6111 6.85518 11.8362 6.82428 12.1514L6.83438 12.7316C6.98731 13.2499 7.31608 13.4632 7.68215 13.6118C7.56071 12.8134 7.63038 12.8674 7.66198 12.7516C7.97673 12.1921 8.9018 12.1247 9.32725 10.951L9.31715 10.0908C7.40845 10.8509 6.19134 10.5534 5.21956 9.88072Z" fill="#FF5D01"/>
<path d="M9.05402 1.96209L8.01361 1.35915C7.96583 1.33146 7.90444 1.34763 7.87649 1.39526L7.81362 1.50242C7.78567 1.55005 7.80175 1.61112 7.84953 1.63881L8.88994 2.24175C8.93772 2.26944 8.99912 2.25327 9.02707 2.20564L9.08994 2.09848C9.11789 2.05085 9.10181 1.98978 9.05402 1.96209Z" fill="#FA8C00"/>
<path fill-rule="evenodd" clip-rule="evenodd" d="M8.19794 1.16234C8.12939 1.12217 8.13293 1.02204 8.20416 0.986684L9.05665 0.5635C9.12101 0.53155 9.19707 0.575691 9.20106 0.647318L9.2543 1.60117C9.25874 1.6808 9.17254 1.73336 9.10366 1.69301L8.19794 1.16234Z" fill="#FF8C00"/>
<path fill-rule="evenodd" clip-rule="evenodd" d="M9.09604 1.88671C9.13826 1.91318 9.19361 1.90457 9.22582 1.86652L9.64509 1.37127C9.7016 1.30451 9.65118 1.20272 9.56375 1.2071L8.44394 1.26309C8.34619 1.26798 8.31267 1.39552 8.3955 1.44746L9.09604 1.88671Z" fill="#EDA500"/>
<path fill-rule="evenodd" clip-rule="evenodd" d="M8.02195 1.25721C7.97973 1.23248 7.96166 1.18087 7.97926 1.13522L8.20727 0.543677C8.23946 0.460165 8.35689 0.457618 8.39252 0.539659L8.81478 1.51205C8.85328 1.60071 8.75572 1.68695 8.67223 1.63805L8.02195 1.25721Z" fill="#FEC400"/>
<path fill-rule="evenodd" clip-rule="evenodd" d="M8.30692 1.42405C8.30288 1.42169 8.30103 1.41684 8.30247 1.41238L8.49191 0.82508C8.49473 0.816326 8.5069 0.815694 8.5106 0.824109L8.92434 1.76473C8.92824 1.7736 8.91847 1.78227 8.9101 1.77737L8.30692 1.42405Z" fill="#FEC400"/>
</svg>
