<svg width="14" height="14" viewBox="0 0 14 14" fill="none" xmlns="http://www.w3.org/2000/svg">
<path d="M6.14272 11.1738C4.92758 10.9874 3.84874 10.4931 3.09007 9.77514C1.73857 8.49609 1.55388 6.76255 2.6183 5.34762C2.99473 4.84725 3.75533 4.18785 4.46865 3.74346C5.32146 3.21215 6.82571 2.49797 7.09261 2.49762C7.36074 2.49727 8.31069 2.91533 8.97838 3.32329C9.48023 3.62991 10.679 4.4564 10.9422 4.67729C11.8742 5.45921 12.3602 6.54312 12.247 7.58721C12.2013 8.00805 12.125 8.27201 11.9381 8.65624C11.7376 9.06839 11.5151 9.36454 11.1186 9.74703C10.405 10.4355 9.50463 10.8873 8.396 11.1133C7.75284 11.2442 6.77732 11.2711 6.14272 11.1738Z" fill="#FBF0DF" stroke="black" stroke-width="0.557087" stroke-linecap="round" stroke-linejoin="round"/>
<path d="M5.11827 8.6091C5.67683 8.6091 6.12961 8.37011 6.12961 8.07532C6.12961 7.78052 5.67683 7.54156 5.11827 7.54156C4.55972 7.54156 4.10693 7.78052 4.10693 8.07532C4.10693 8.37011 4.55972 8.6091 5.11827 8.6091Z" fill="#FEBBD0"/>
<path d="M9.11644 8.59976C9.67499 8.59976 10.1278 8.3608 10.1278 8.06601C10.1278 7.77122 9.67499 7.53223 9.11644 7.53223C8.55789 7.53223 8.1051 7.77122 8.1051 8.06601C8.1051 8.3608 8.55789 8.59976 9.11644 8.59976Z" fill="#FEBBD0"/>
<path d="M5.44142 7.93479C5.90689 7.93479 6.28422 7.55746 6.28422 7.092C6.28422 6.62654 5.90689 6.24921 5.44142 6.24921C4.97596 6.24921 4.59863 6.62654 4.59863 7.092C4.59863 7.55746 4.97596 7.93479 5.44142 7.93479Z" fill="black"/>
<path d="M5.21223 7.15603C5.39066 7.15603 5.5353 7.01139 5.5353 6.83296C5.5353 6.65453 5.39066 6.50989 5.21223 6.50989C5.0338 6.50989 4.88916 6.65453 4.88916 6.83296C4.88916 7.01139 5.0338 7.15603 5.21223 7.15603Z" fill="white"/>
<path d="M8.42757 7.90325C8.89303 7.90325 9.27036 7.52592 9.27036 7.06046C9.27036 6.595 8.89303 6.21767 8.42757 6.21767C7.96211 6.21767 7.58478 6.595 7.58478 7.06046C7.58478 7.52592 7.96211 7.90325 8.42757 7.90325Z" fill="black"/>
<path d="M8.19837 7.12449C8.3768 7.12449 8.52144 6.97985 8.52144 6.80142C8.52144 6.62299 8.3768 6.47835 8.19837 6.47835C8.01995 6.47835 7.87531 6.62299 7.87531 6.80142C7.87531 6.97985 8.01995 7.12449 8.19837 7.12449Z" fill="white"/>
<path d="M4.79999 4.9488C5.48021 4.7416 5.94913 4.22694 6.33946 3.59797" stroke="#CCBEA7" stroke-width="0.4" stroke-linecap="round" stroke-linejoin="round"/>
<path d="M7.08435 3.32983C7.50651 3.90387 7.79814 4.53095 7.38235 5.44544" stroke="#CCBEA7" stroke-width="0.4" stroke-linecap="round" stroke-linejoin="round"/>
<path d="M6.79631 3.40926C6.92081 4.3485 6.45985 4.8429 5.93219 5.28651" stroke="#CCBEA7" stroke-width="0.4" stroke-linecap="round" stroke-linejoin="round"/>
<path d="M7.51147 3.3C8.45517 3.79396 8.52904 4.46188 8.56431 5.13751" stroke="#CCBEA7" stroke-width="0.4" stroke-linecap="round" stroke-linejoin="round"/>
<path d="M5.79616 2.32166L4.72371 2.86557C4.67445 2.89055 4.65456 2.95084 4.67927 3.00023L4.73487 3.11133C4.75959 3.16072 4.81955 3.18051 4.86881 3.15553L5.94126 2.61162C5.99051 2.58663 6.01041 2.52635 5.98569 2.47696L5.93009 2.36585C5.90538 2.31646 5.84541 2.29667 5.79616 2.32166Z" fill="#FA8C00"/>
<path fill-rule="evenodd" clip-rule="evenodd" d="M4.65905 2.60378C4.58802 2.63938 4.50599 2.58185 4.51515 2.50286L4.62477 1.55745C4.63305 1.48607 4.7115 1.44635 4.77374 1.48202L5.60259 1.95709C5.67178 1.99675 5.66888 2.09767 5.59752 2.13343L4.65905 2.60378Z" fill="#FF8C00"/>
<path fill-rule="evenodd" clip-rule="evenodd" d="M5.75581 2.24536C5.80101 2.22438 5.82395 2.17328 5.80959 2.12554L5.62274 1.50413C5.59755 1.42037 5.48473 1.40719 5.44076 1.48288L4.87759 2.45239C4.82842 2.53703 4.91711 2.63462 5.00579 2.59346L5.75581 2.24536Z" fill="#EDA500"/>
<path fill-rule="evenodd" clip-rule="evenodd" d="M4.64275 2.80305C4.59901 2.82498 4.54588 2.81201 4.5172 2.77239L4.1454 2.25889C4.09291 2.1864 4.15475 2.08654 4.24296 2.10137L5.28841 2.27709C5.38374 2.29311 5.40289 2.42191 5.3164 2.46528L4.64275 2.80305Z" fill="#FEC400"/>
<path fill-rule="evenodd" clip-rule="evenodd" d="M4.93793 2.65498C4.93374 2.65708 4.92866 2.65599 4.92571 2.65236L4.53646 2.17351C4.53065 2.16638 4.53675 2.15583 4.54583 2.15731L5.55999 2.32288C5.56956 2.32444 5.57151 2.33735 5.56284 2.3417L4.93793 2.65498Z" fill="#FEC400"/>
</svg>
