<svg width="14" height="14" viewBox="0 0 14 14" fill="none" xmlns="http://www.w3.org/2000/svg">
<path d="M1.93833 12.1354L1.00232 0.718528C0.970619 0.331843 1.26763 0 1.64543 0H12.3546C12.7329 0 13.0301 0.332809 12.9976 0.720009L12.0365 12.1368C12.0133 12.4124 11.8259 12.6443 11.5664 12.7184L7.16432 13.9758C7.05129 14.008 6.93184 14.0081 6.8188 13.9759L2.40883 12.7185C2.14869 12.6444 1.96099 12.4117 1.93833 12.1354Z" fill="#E44C25"/>
<path d="M6.99157 12.5365V1.36368C6.99157 1.20678 7.1154 1.07958 7.26816 1.07958H11.5488C11.711 1.07958 11.8384 1.22222 11.8244 1.38817L10.9635 11.6112C10.9535 11.7301 10.8723 11.8298 10.7601 11.861L7.34036 12.8108C7.16454 12.8596 6.99157 12.7236 6.99157 12.5365Z" fill="#F46A39"/>
<path d="M3.5987 7.22563L3.21147 2.55691L10.7624 2.59479L10.6426 4.11946H4.92635L5.07386 5.74831H10.4674L10.0986 10.3886L6.99157 11.3451L3.80154 10.3886L3.5987 8.09687H5.32279V9.23328L6.99157 9.78254L8.60503 9.23328L8.74332 7.22563H3.5987Z" fill="white"/>
</svg>
