<svg width="14" height="14" viewBox="0 0 14 14" fill="none" xmlns="http://www.w3.org/2000/svg">
<g clip-path="url(#clip0_31_716)">
<path d="M6.63246 13.9857C5.66966 13.7645 5.04654 13.4664 4.37919 12.9079C4.14204 12.7094 3.67979 12.206 3.56086 12.0167C3.33915 11.6639 3.06377 11.1606 3.06204 11.1051C3.06155 11.0904 3.02434 10.9978 2.97928 10.8992C2.93425 10.8006 2.89739 10.7043 2.89739 10.6851C2.89739 10.666 2.86183 10.5446 2.81835 10.4155C2.59048 9.73881 2.48266 8.79815 2.51709 7.7871C2.54819 6.87306 2.68337 6.2814 3.01984 5.58623C3.19092 5.23274 3.64733 4.58742 3.79817 4.48577C3.81632 4.47355 3.91225 4.38896 4.01135 4.29774C4.11047 4.20654 4.20877 4.1317 4.22977 4.13143C4.2508 4.13143 4.27292 4.1173 4.27892 4.10065C4.29438 4.05782 4.67192 3.84901 4.94138 3.73428C5.06646 3.681 5.28067 3.61282 5.41738 3.58276C5.68565 3.52382 6.2714 3.50687 6.48497 3.55188L6.50783 3.5567C6.54403 3.56433 6.55063 3.61321 6.51774 3.63018C6.25872 3.76378 5.76755 4.2389 5.42844 4.6839C5.33526 4.80619 5.02586 5.42258 4.99092 5.55554C4.97645 5.61063 4.92504 5.79589 4.87667 5.96722C4.79303 6.26352 4.78876 6.31473 4.78911 7.01652C4.78944 7.66041 4.79809 7.78562 4.85719 8.00025C4.99686 8.50747 5.02747 8.60346 5.09195 8.73677C5.12831 8.812 5.1581 8.88256 5.1581 8.89363C5.1581 8.91787 5.39364 9.32144 5.42137 9.34468C5.43212 9.35376 5.48766 9.42987 5.54481 9.51391C5.74635 9.81044 6.12955 10.1585 6.55638 10.4328C7.22006 10.8592 8.12164 10.9279 8.97508 10.617C10.2334 10.1587 11.201 9.05268 11.6289 7.58329C11.7141 7.29087 11.7315 7.19097 11.8128 6.52611C11.8837 5.94714 11.7898 4.60478 11.6408 4.06533C11.6034 3.93007 11.5541 3.73825 11.5312 3.63905C11.495 3.48218 11.394 3.19191 11.2345 2.78646C11.1628 2.60407 10.9804 2.27351 10.7116 1.83836C10.6315 1.70879 10.2691 1.27716 10.0895 1.09732C9.89469 0.902393 9.52089 0.593846 9.34082 0.479381C9.21272 0.397914 9.24651 0.383349 9.41978 0.445314C9.82135 0.58893 10.4029 0.889165 10.8711 1.1945C11.7309 1.75533 12.4742 2.51984 13.0407 3.42592C13.1811 3.65042 13.4235 4.13145 13.4994 4.33582C13.6833 4.83168 13.7897 5.19159 13.8799 5.62289C13.9724 6.06547 13.9841 6.18658 13.9968 6.83144C14.0056 7.28067 13.9965 7.64782 13.9726 7.8152C13.8902 8.39088 13.7057 9.11332 13.5589 9.43557C13.5156 9.53066 13.4801 9.62659 13.48 9.64874C13.48 9.70118 13.0629 10.5259 13.0023 10.5933C12.9768 10.6218 12.9559 10.6533 12.9559 10.6634C12.9559 10.6952 12.6958 11.0729 12.6446 11.1155C12.6176 11.1379 12.5955 11.1765 12.5955 11.2014C12.5955 11.2262 12.5825 11.2466 12.5667 11.2466C12.5508 11.2466 12.479 11.324 12.4072 11.4187C11.9666 11.9992 11.0499 12.7548 10.2958 13.1591C9.96906 13.3343 9.97545 13.3311 9.72864 13.436C9.02536 13.7349 8.29492 13.9215 7.51708 14.0009C7.1165 14.0418 6.85729 14.0374 6.63246 13.9857Z" fill="white"/>
<path d="M4.65008 13.5859C4.54196 13.5405 4.3724 13.4692 4.2733 13.4276C3.96392 13.2978 3.93432 13.2836 3.73269 13.1672C3.62457 13.1048 3.46977 13.0155 3.38868 12.9689C3.09389 12.7996 2.73298 12.5447 2.46522 12.3169C2.25728 12.1399 1.73055 11.6137 1.5969 11.4493C1.55747 11.4008 1.48257 11.3096 1.43044 11.2464C1.31589 11.1077 1.07216 10.7544 0.966731 10.5742C0.309717 9.45127 -0.00541786 8.28075 7.04466e-05 6.9836C0.00420209 6.00702 0.161697 5.26855 0.598048 4.17996C0.671082 3.99771 0.968252 3.44696 1.07535 3.2953C1.11329 3.24154 1.15909 3.17341 1.17712 3.14387C1.24086 3.03932 1.33918 2.89969 1.42884 2.78634C1.47877 2.72322 1.55314 2.62881 1.59408 2.57652C1.67063 2.47882 2.41895 1.72383 2.52008 1.64226C2.72811 1.47455 3.13387 1.17958 3.15663 1.17958C3.17171 1.17958 3.20337 1.1563 3.22697 1.12782C3.25056 1.09937 3.33714 1.03992 3.41937 0.995749C3.50159 0.951538 3.62784 0.882024 3.69993 0.841249C4.60792 0.327451 5.70723 0.0148114 6.74162 -0.0238031C7.3346 -0.0459391 7.55035 -0.0176525 8.03464 0.14557C8.73679 0.382235 8.98444 0.518816 9.51551 0.962215C10.105 1.45433 10.4868 1.94083 10.8443 2.65519C11.5736 4.11225 11.7549 6.20962 11.2767 7.65582C11.223 7.81814 11.1513 8.00568 11.1173 8.0726C11.0832 8.1395 11.0554 8.20842 11.0554 8.2257C11.0554 8.30972 10.6096 8.98538 10.4339 9.16765C10.3973 9.20563 10.3674 9.24647 10.3674 9.2584C10.3674 9.2814 10.037 9.60031 9.84222 9.7653C9.50844 10.0481 8.90339 10.3452 8.45068 10.4487C8.16348 10.5144 7.55985 10.5264 7.41976 10.4693C7.38585 10.4555 7.38165 10.4091 7.41253 10.3894L7.46891 10.3534C7.77056 10.1606 8.1908 9.75401 8.50018 9.35567C8.54813 9.29389 8.79472 8.88577 8.79472 8.86814C8.79472 8.85929 8.82366 8.78941 8.85903 8.71298C9.05657 8.28614 9.18732 7.61048 9.18734 7.01639C9.18734 6.61185 9.11053 6.00614 9.02564 5.74145C8.98872 5.62639 8.95828 5.51571 8.95795 5.49555C8.95702 5.43774 8.61498 4.76899 8.52854 4.65607C8.12629 4.13044 7.81381 3.84175 7.32802 3.54686C7.23316 3.48928 7.13363 3.44217 7.10687 3.44217C7.08013 3.44217 7.05821 3.42904 7.05821 3.41302C7.05821 3.36652 6.67835 3.2824 6.30465 3.24617C5.43263 3.16162 4.57446 3.42686 3.88012 3.9955C3.07817 4.6523 2.57244 5.53278 2.31451 6.72126C2.229 7.11524 2.22555 7.16875 2.22555 8.0985C2.22555 8.96168 2.23365 9.11174 2.30076 9.49212C2.38987 9.99705 2.54329 10.5951 2.65409 10.8693C2.69781 10.9776 2.73353 11.0785 2.73349 11.0935C2.73316 11.1556 3.12744 11.903 3.27262 12.1158C3.42683 12.3419 3.70443 12.6768 3.89707 12.8692C4.07531 13.0473 4.3961 13.3123 4.43337 13.3123C4.45345 13.3123 4.46991 13.3233 4.46993 13.3369C4.46993 13.3504 4.54001 13.4049 4.62556 13.4579C4.98699 13.682 4.9965 13.7317 4.65008 13.5859Z" fill="white"/>
</g>
<defs>
<clipPath id="clip0_31_716">
<rect width="14" height="14" fill="white"/>
</clipPath>
</defs>
</svg>
