<svg width="14" height="14" viewBox="0 0 14 14" fill="none" xmlns="http://www.w3.org/2000/svg">
<g clip-path="url(#clip0_31_725)">
<path d="M12.0737 3.53268C13.0484 3.53268 13.8386 2.74188 13.8386 1.76635C13.8386 0.790824 13.0484 0 12.0737 0C11.0989 0 10.3088 0.790824 10.3088 1.76635C10.3088 2.74188 11.0989 3.53268 12.0737 3.53268Z" fill="#4545FE"/>
<path d="M5.28428 13.9925C5.23514 13.9838 5.04223 13.9511 4.85559 13.9198C3.61001 13.7109 2.3075 12.9761 1.47265 12.0114C-0.550759 9.67309 -0.48156 6.24947 1.63393 4.03073C3.86621 1.6895 7.5136 1.56774 9.90244 3.7547C11.2691 5.00584 11.9871 6.89349 11.7852 8.70418C11.5229 11.0567 9.97037 12.9863 7.74726 13.7229C7.15394 13.9195 6.76722 13.981 6.03446 13.9954C5.67098 14.0025 5.33339 14.0012 5.28428 13.9925ZM8.71619 7.37731C9.34741 7.18988 9.83736 6.669 9.96619 6.0484C10.0247 5.76635 9.99078 5.28548 9.89437 5.03144C9.72716 4.59072 9.305 4.16821 8.86467 4.00086C8.61081 3.90437 8.13035 3.8704 7.84852 3.929C7.53643 3.99388 7.22187 4.16836 6.97682 4.41249C6.59635 4.79151 6.44733 5.18925 6.46883 5.7681C6.48106 6.09698 6.49435 6.15533 6.61462 6.40864C6.83538 6.8736 7.23957 7.22787 7.72312 7.38025C7.94039 7.44871 8.48114 7.44712 8.71619 7.37731Z" fill="#4545FE"/>
</g>
<defs>
<clipPath id="clip0_31_725">
<rect width="14" height="14" fill="white"/>
</clipPath>
</defs>
</svg>
