<svg width="14" height="14" viewBox="0 0 14 14" fill="none" xmlns="http://www.w3.org/2000/svg">
<g clip-path="url(#clip0_1080_627)">
<path d="M7.23396 5.87471C6.92708 5.87471 6.51873 5.97102 6.00862 6.16363L5.88478 6.59071H6.38341C6.47718 6.59071 6.54612 6.61177 6.59015 6.65363C6.6427 6.6955 6.65765 6.78333 6.63487 6.91732C6.62204 6.99269 6.5971 7.089 6.56012 7.20625C6.53166 7.32348 6.49175 7.45751 6.44055 7.60824L5.81326 9.56778C5.74499 9.76876 5.68251 9.96139 5.62562 10.1456C5.57867 10.3215 5.54235 10.4847 5.51672 10.6355C5.4441 11.0626 5.60806 11.2761 6.0087 11.2761C6.2559 11.2761 6.53587 11.2092 6.84848 11.0752C7.17103 10.9328 7.46802 10.7402 7.73947 10.4973L7.61386 10.1079C7.38081 10.2252 7.19041 10.3172 7.04262 10.3842C6.90337 10.4512 6.79106 10.4849 6.70581 10.4849C6.60352 10.4849 6.5646 10.4137 6.5888 10.2713C6.60302 10.1876 6.62997 10.0787 6.66979 9.9447C6.71104 9.80234 6.75095 9.66832 6.78936 9.54271L7.56391 7.09317C7.60231 6.96755 7.635 6.85034 7.66204 6.74148C7.69902 6.62424 7.72396 6.52792 7.73677 6.45255C7.80228 6.06734 7.6346 5.87471 7.23396 5.87471Z" fill="#60D1FF" stroke="#60D1FF" stroke-width="0.7" stroke-linecap="round" stroke-linejoin="round"/>
<path d="M7.45012 4.82571C8.02996 4.82571 8.50001 4.35521 8.50001 3.77481C8.50001 3.19441 8.02996 2.72391 7.45012 2.72391C6.87029 2.72391 6.40024 3.19441 6.40024 3.77481C6.40024 4.35521 6.87029 4.82571 7.45012 4.82571Z" fill="#60D1FF"/>
<path d="M7 13C10.3137 13 13 10.3137 13 7C13 3.68629 10.3137 1 7 1C3.68629 1 1 3.68629 1 7C1 10.3137 3.68629 13 7 13Z" stroke="#60D1FF" stroke-width="0.6"/>
</g>
<defs>
<clipPath id="clip0_1080_627">
<rect width="14" height="14" fill="white"/>
</clipPath>
</defs>
</svg>
