<svg width="14" height="14" viewBox="0 0 14 14" fill="none" xmlns="http://www.w3.org/2000/svg">
<path d="M6.81905 12.7065C6.81164 12.7076 6.80395 12.707 6.79655 12.7046C6.77171 12.6967 6.72543 12.6746 6.66781 12.6449C6.60851 12.6145 6.53297 12.5739 6.4472 12.5267C6.27561 12.4322 6.06209 12.3107 5.85371 12.1896C5.64535 12.0684 5.44181 11.9474 5.2902 11.8539C5.21448 11.8072 5.15126 11.767 5.10677 11.737C5.08465 11.7221 5.06636 11.7092 5.05328 11.6989C5.0469 11.6939 5.04058 11.6887 5.03544 11.6835C5.03296 11.681 5.02953 11.6773 5.02638 11.6728L5.0263 11.6727C5.0244 11.67 5.01629 11.6583 5.01629 11.6416C5.01629 11.6228 5.02545 11.6091 5.03016 11.6029C5.0358 11.5954 5.04258 11.589 5.04887 11.5838C5.06161 11.5731 5.0784 11.5621 5.09723 11.5512C5.13523 11.5294 5.18766 11.5046 5.24842 11.4806M6.81905 12.7065L2.02974 9.99043C2.06062 10.021 2.13729 10.0742 2.23582 10.1375C2.33653 10.2023 2.46548 10.281 2.60565 10.3637C2.88585 10.529 3.21247 10.7111 3.45 10.8299L3.45001 10.8299C3.88829 11.0492 4.34008 11.1171 4.72389 11.0452C5.10818 10.9733 5.42568 10.7605 5.58691 10.4191L5.58693 10.4191C5.59133 10.4097 5.59564 10.4007 5.59985 10.3918C5.62959 10.3294 5.65454 10.277 5.67333 10.2036C5.69463 10.1203 5.70785 10.0112 5.71641 9.8266C5.73253 9.47907 5.73251 8.85155 5.73245 7.59806C5.73244 7.52013 5.73244 7.43977 5.73244 7.35692C5.73244 6.0833 5.73228 5.43176 5.72612 5.09558C5.72306 4.92832 5.7185 4.83631 5.71122 4.7842C5.70765 4.75858 5.70281 4.73747 5.69423 4.72078C5.68359 4.70008 5.66931 4.69004 5.65749 4.68373L5.63394 4.72784L5.65789 4.68395C5.64838 4.67876 5.63755 4.67577 5.62947 4.67386C5.62033 4.6717 5.60978 4.66982 5.5984 4.66816C5.57559 4.66483 5.54689 4.66198 5.51455 4.65966C5.44974 4.65501 5.36778 4.65227 5.28401 4.65227C5.16377 4.65227 5.08407 4.65477 5.02968 4.66156C4.97559 4.66831 4.9378 4.68018 4.9095 4.70609L4.90946 4.70605L4.90777 4.70776C4.89316 4.72248 4.88674 4.74209 4.88277 4.7593C4.87848 4.77795 4.87521 4.80295 4.87248 4.83633C4.86699 4.90344 4.86315 5.0122 4.86042 5.18889C4.85496 5.54282 4.85388 6.17465 4.85388 7.30376V9.81273L4.78923 9.93608C4.74155 10.027 4.69578 10.077 4.61435 10.1272L4.61393 10.1274C4.55831 10.1625 4.5293 10.1773 4.49111 10.1853C4.44995 10.194 4.39633 10.1953 4.28992 10.1953C4.18823 10.1953 4.13131 10.193 4.08243 10.1833C4.03453 10.1738 3.9921 10.1568 3.92019 10.1226C3.80297 10.0669 3.48244 9.89016 3.18677 9.7218C3.03931 9.63784 2.89878 9.5564 2.79385 9.49379C2.74133 9.46246 2.69805 9.43603 2.66738 9.41645C2.65369 9.40771 2.6429 9.40058 2.63507 9.39512C2.63459 9.38667 2.6341 9.37546 2.6336 9.36147C2.63235 9.32615 2.63114 9.27474 2.62998 9.20883C2.62766 9.0771 2.62558 8.88838 2.62384 8.65658C2.62034 8.19303 2.61818 7.55769 2.61808 6.86248C2.61797 5.6718 2.61846 5.03922 2.62419 4.69975C2.62706 4.52954 2.63124 4.43497 2.63704 4.38108C2.64046 4.34928 2.64423 4.33602 2.64588 4.33143L2.64887 4.32952L2.67277 4.315C2.69361 4.30254 2.72354 4.28496 2.7618 4.2627C2.83828 4.2182 2.9475 4.15528 3.08262 4.07785C3.35284 3.92299 3.72634 3.71022 4.14797 3.47085C4.99125 2.99211 6.02687 2.40708 6.8135 1.96633L6.81356 1.9663C6.87851 1.92979 6.94377 1.89676 6.99649 1.87302C7.0229 1.86112 7.04557 1.85183 7.06313 1.84562C7.0726 1.84227 7.07916 1.84035 7.08329 1.83926L7.0849 1.83997C7.09368 1.84404 7.10647 1.85033 7.12327 1.85888C7.15675 1.87591 7.20457 1.90105 7.26488 1.93331C7.38543 1.99777 7.55494 2.09008 7.7575 2.20136C8.16257 2.42388 8.69931 2.72195 9.23975 3.02404C9.78018 3.32613 10.3242 3.63218 10.7439 3.87065C10.9538 3.98989 11.1324 4.09218 11.264 4.16861C11.3973 4.24608 11.4787 4.29497 11.4974 4.30882L11.4975 4.30883L11.5587 4.35403V6.86625C11.5587 8.08786 11.5582 8.72139 11.5521 9.05474C11.5491 9.22202 11.5446 9.3114 11.5385 9.36115C11.5354 9.38611 11.5322 9.39788 11.5301 9.4034C11.5296 9.40457 11.5293 9.40527 11.5291 9.40572C11.5289 9.40586 11.5286 9.40605 11.5282 9.40628C11.5265 9.4074 11.5232 9.40954 11.5176 9.41298C11.514 9.41521 11.5098 9.41777 11.5051 9.42064C11.4973 9.42533 11.4881 9.43086 11.4774 9.43722C11.4429 9.4577 11.3939 9.48629 11.3324 9.52189C11.2095 9.59306 11.0371 9.69195 10.8315 9.80928C10.4204 10.0439 9.87712 10.3522 9.33291 10.6598C8.7887 10.9675 8.24366 11.2744 7.82916 11.5063C7.62189 11.6222 7.44734 11.7194 7.32187 11.7885C7.25911 11.823 7.20877 11.8505 7.17279 11.8698C7.15478 11.8794 7.14057 11.8869 7.13028 11.8922C7.1233 11.8958 7.1193 11.8977 7.11744 11.8986C7.1161 11.8992 7.11588 11.8993 7.11645 11.8991L7.11645 11.8991L7.11558 11.8995C7.1089 11.9019 7.10267 11.9034 7.08826 11.9004C7.07103 11.8968 7.04422 11.8872 6.99826 11.8649C6.90677 11.8205 6.75351 11.7333 6.47555 11.5724L6.47553 11.5723L5.8615 11.2171C5.84686 11.2086 5.82893 11.2081 5.81385 11.2158L5.62983 11.3091L5.62971 11.3091C5.53029 11.3599 5.35867 11.4347 5.24842 11.4806M6.81905 12.7065C6.90146 12.7304 7.00273 12.741 7.10113 12.74C7.20722 12.739 7.315 12.7246 7.39717 12.6959L7.39725 12.6959C7.41007 12.6914 7.43819 12.6774 7.47482 12.6584C7.5134 12.6384 7.56588 12.6104 7.63055 12.5755C7.75993 12.5058 7.93871 12.4078 8.15385 12.2888C8.58417 12.0508 9.16037 11.7287 9.77859 11.3799C10.6336 10.8974 11.2026 10.5734 11.5689 10.3592C11.752 10.2521 11.8848 10.1722 11.9774 10.1135C12.0683 10.056 12.1248 10.0164 12.1511 9.99026C12.3103 9.83219 12.3885 9.65948 12.4193 9.41326L12.4194 9.41288C12.423 9.38182 12.4259 9.28618 12.4282 9.14232C12.4306 8.99674 12.4325 8.79823 12.4339 8.55832C12.4366 8.07848 12.4371 7.43259 12.4349 6.71241L12.4349 6.71238L12.4262 4.21152C12.4262 4.20418 12.4245 4.19692 12.4214 4.19028L12.3423 4.02358L12.3423 4.02348C12.297 3.92835 12.2148 3.804 12.1565 3.74574M5.24842 11.4806C5.24856 11.4805 5.2487 11.4804 5.24885 11.4804L5.26723 11.5269L5.24803 11.4807C5.24816 11.4807 5.24829 11.4806 5.24842 11.4806ZM12.1565 3.74574C12.1565 3.74574 12.1565 3.74575 12.1565 3.74576L12.1211 3.78109L12.1565 3.74574Z" fill="url(#paint0_linear_649_1912)" stroke="url(#paint1_linear_649_1912)" stroke-width="0.1" stroke-linecap="round" stroke-linejoin="round"/>
<defs>
<linearGradient id="paint0_linear_649_1912" x1="2" y1="7" x2="12" y2="6.5" gradientUnits="userSpaceOnUse">
<stop stop-color="#00F558"/>
<stop offset="1" stop-color="#00F5BA"/>
</linearGradient>
<linearGradient id="paint1_linear_649_1912" x1="2" y1="7" x2="12" y2="6.5" gradientUnits="userSpaceOnUse">
<stop stop-color="#00F558"/>
<stop offset="1" stop-color="#00F5BA"/>
</linearGradient>
</defs>
</svg>
