<svg width="14" height="14" viewBox="0 0 14 14" fill="none" xmlns="http://www.w3.org/2000/svg">
<g clip-path="url(#clip0_31_717)">
<path d="M1.97202 5.93919C1.87156 5.91605 1.82088 5.88725 1.75436 5.81553C1.51292 5.55515 1.49669 5.25999 1.71174 5.04038C1.83413 4.91539 1.98212 4.84144 2.2215 4.78566C2.29488 4.76856 2.35607 4.75578 2.35751 4.75728C2.35893 4.75881 2.27851 4.83188 2.1788 4.91977C2.07909 5.00767 1.99738 5.08247 1.99723 5.08598C1.99702 5.08948 2.06062 5.09414 2.13848 5.09628C2.2668 5.09978 2.28512 5.10259 2.33449 5.12643C2.48063 5.197 2.5557 5.34343 2.53329 5.51418C2.51555 5.64925 2.40788 5.81873 2.30513 5.87329C2.24811 5.90359 2.23172 5.89576 2.25334 5.84855C2.26803 5.81649 2.26829 5.80984 2.25573 5.78708C2.24139 5.76109 2.21806 5.74603 2.11861 5.69857C2.02451 5.65367 2.02025 5.59439 2.10729 5.54127C2.18251 5.49536 2.18281 5.49777 2.09315 5.42604C2.05652 5.39673 2.05638 5.37289 2.09263 5.34112C2.13231 5.30635 2.18256 5.29124 2.23955 5.29694C2.30082 5.30307 2.31724 5.32298 2.30955 5.38184C2.30648 5.40517 2.3013 5.44418 2.29803 5.4685C2.29281 5.50713 2.29519 5.51593 2.31679 5.53844C2.36154 5.58503 2.45222 5.56583 2.47659 5.50457C2.51331 5.41226 2.42425 5.25784 2.29649 5.19236C2.23662 5.16169 2.22611 5.15956 2.13625 5.16008C2.02468 5.16084 1.95106 5.18508 1.85448 5.25337C1.73888 5.33509 1.71408 5.39127 1.72064 5.55643C1.72878 5.76078 1.75805 5.79571 2.00525 5.8962C2.04943 5.91416 2.08614 5.93333 2.08681 5.93883C2.08872 5.95405 2.03715 5.95423 1.97199 5.93958L1.97202 5.93919Z" fill="#37365A"/>
<path d="M1.14746 4.59393C1.11786 4.57893 1.08521 4.52263 1.08521 4.48654C1.08521 4.3366 1.38535 4.17392 1.78097 4.10942C1.92162 4.08648 2.14516 4.08655 2.2608 4.10942C2.36878 4.13089 2.45076 4.16765 2.44616 4.19253C2.44001 4.22571 2.39253 4.239 2.29442 4.23494C2.24426 4.23293 2.13628 4.23139 2.05447 4.23173C1.92594 4.23247 1.89305 4.23577 1.81258 4.25805C1.71035 4.28638 1.58265 4.34478 1.5106 4.39618C1.48512 4.41436 1.43296 4.45998 1.3947 4.4976C1.35644 4.5352 1.30678 4.57464 1.28435 4.58524C1.24066 4.60589 1.17891 4.60975 1.14746 4.59382V4.59393Z" fill="#37365A"/>
<path d="M1.97202 5.93919C1.87156 5.91605 1.82088 5.88725 1.75436 5.81553C1.51292 5.55515 1.49669 5.25999 1.71174 5.04038C1.83413 4.91539 1.98212 4.84144 2.2215 4.78566C2.29488 4.76856 2.35607 4.75578 2.35751 4.75728C2.35893 4.75881 2.27851 4.83188 2.1788 4.91977C2.07909 5.00767 1.99738 5.08247 1.99723 5.08598C1.99702 5.08948 2.06062 5.09414 2.13848 5.09628C2.2668 5.09978 2.28512 5.10259 2.33449 5.12643C2.48063 5.197 2.5557 5.34343 2.53329 5.51418C2.51555 5.64925 2.40788 5.81873 2.30513 5.87329C2.24811 5.90359 2.23172 5.89576 2.25334 5.84855C2.26803 5.81649 2.26829 5.80984 2.25573 5.78708C2.24139 5.76109 2.21806 5.74603 2.11861 5.69857C2.02451 5.65367 2.02025 5.59439 2.10729 5.54127C2.18251 5.49536 2.18281 5.49777 2.09315 5.42604C2.05652 5.39673 2.05638 5.37289 2.09263 5.34112C2.13231 5.30635 2.18256 5.29124 2.23955 5.29694C2.30082 5.30307 2.31724 5.32298 2.30955 5.38184C2.30648 5.40517 2.3013 5.44418 2.29803 5.4685C2.29281 5.50713 2.29519 5.51593 2.31679 5.53844C2.36154 5.58503 2.45222 5.56583 2.47659 5.50457C2.51331 5.41226 2.42425 5.25784 2.29649 5.19236C2.23662 5.16169 2.22611 5.15956 2.13625 5.16008C2.02468 5.16084 1.95106 5.18508 1.85448 5.25337C1.73888 5.33509 1.71408 5.39127 1.72064 5.55643C1.72878 5.76078 1.75805 5.79571 2.00525 5.8962C2.04943 5.91416 2.08614 5.93333 2.08681 5.93883C2.08872 5.95405 2.03715 5.95423 1.97199 5.93958L1.97202 5.93919Z" stroke="#37365A" stroke-width="0.1" stroke-linecap="round" stroke-linejoin="round"/>
<path d="M1.14746 4.59393C1.11786 4.57893 1.08521 4.52263 1.08521 4.48654C1.08521 4.3366 1.38535 4.17392 1.78097 4.10942C1.92161 4.08648 2.14516 4.08655 2.2608 4.10942C2.36878 4.13089 2.45076 4.16765 2.44616 4.19253C2.44001 4.22571 2.39253 4.239 2.29442 4.23494C2.24426 4.23293 2.13628 4.23139 2.05447 4.23173C1.92594 4.23247 1.89305 4.23577 1.81258 4.25805C1.71035 4.28638 1.58265 4.34478 1.5106 4.39618C1.48512 4.41436 1.43296 4.45998 1.3947 4.4976C1.35644 4.5352 1.30678 4.57464 1.28435 4.58524C1.24066 4.60589 1.17891 4.60975 1.14746 4.59382V4.59393Z" stroke="#37365A" stroke-width="0.1" stroke-linecap="round" stroke-linejoin="round"/>
<path d="M4.6737 11.9347C4.59057 11.8991 4.39514 11.7995 4.2394 11.7134C4.08365 11.6273 3.81404 11.4902 3.64026 11.4087C3.29317 11.2459 3.16905 11.1541 3.04759 10.9703C2.97034 10.8534 2.9654 10.8269 2.92558 10.3158C2.89849 9.96824 2.88406 9.42676 2.88406 8.75834V7.73366L2.66013 7.73415C2.32611 7.73516 2.09049 7.86918 1.96004 8.13259C1.88315 8.28784 1.80916 8.72119 1.7314 9.47144C1.53553 11.3618 1.54341 11.3135 1.40883 11.4452C1.24732 11.6031 1.08225 11.6609 0.792171 11.6612C0.454995 11.6615 0.283151 11.6086 0.122998 11.4549L0 11.3369L0.0155024 8.39777C0.0240244 6.78127 0.0434071 5.23614 0.0585632 4.96414C0.0963929 4.28512 0.170372 4.04871 0.441675 3.73966C0.751258 3.387 1.10285 3.17855 1.74404 2.96753C1.96051 2.8963 2.16819 2.82173 2.20555 2.80186C2.2429 2.78199 2.42612 2.6486 2.61269 2.50543C2.98932 2.21645 3.18762 2.10174 3.41887 2.03902C3.62429 1.98332 3.73164 1.98638 3.93829 2.05383C4.14626 2.1217 4.31291 2.12473 4.55849 2.06506C4.96262 1.96689 5.26645 2.0581 5.66749 2.39794L5.88435 2.58171L7.2682 2.60119C8.02931 2.61192 8.7803 2.6335 8.93705 2.64917C9.66879 2.72237 10.2995 2.96625 10.9515 3.42815C11.3636 3.72011 11.3895 3.72761 11.9425 3.71582C12.454 3.70489 12.4113 3.71841 12.8566 3.42682C13.0728 3.28533 13.1138 3.26861 13.2448 3.26861C13.3901 3.26861 13.5514 3.32883 13.5514 3.38303C13.5514 3.39854 13.6476 3.51583 13.765 3.6437C13.8826 3.77156 13.9867 3.90329 13.9965 3.93645C14.0102 3.98231 13.9851 4.03264 13.8912 4.14703C13.8235 4.22969 13.7421 4.35708 13.7104 4.43009C13.6779 4.50515 13.6245 4.57631 13.5877 4.59378C13.3406 4.71094 12.9625 4.61369 12.6148 4.34353L12.4789 4.23795L12.1051 4.22311C11.6722 4.2059 11.7049 4.157 11.8554 4.59679C11.9946 5.00331 12.0851 5.34931 12.1176 5.59882C12.1559 5.89359 12.1284 6.80791 12.0732 7.06946C12.0318 7.26615 12.0229 7.48235 11.9496 10.0839C11.9172 11.2317 11.9052 11.3081 11.7252 11.5115C11.5876 11.6668 11.301 11.8222 11.0572 11.8736C10.8012 11.9276 10.1897 11.9518 9.88503 11.92C9.66694 11.8972 9.55617 11.8648 9.19658 11.7187C8.96089 11.623 8.66256 11.5062 8.53362 11.4593C8.2467 11.3548 8.07818 11.2462 7.9221 11.0655C7.80816 10.9336 7.80232 10.9181 7.78701 10.7082C7.76636 10.4249 7.71961 9.53467 7.71736 9.38151L7.71559 9.26329L7.43738 9.25434C7.28436 9.24942 7.15558 9.247 7.15123 9.24895C7.14685 9.25099 7.13091 9.70733 7.11579 10.2632C7.08918 11.2409 7.08619 11.2783 7.02428 11.4042C6.93246 11.591 6.78173 11.7294 6.54843 11.8413C6.26237 11.9785 6.10489 12.0008 5.42378 12C4.86238 11.9995 4.81533 11.9953 4.67368 11.9346L4.6737 11.9347ZM5.74855 11.8891C6.01317 11.858 6.33514 11.7793 6.50558 11.7039C6.62506 11.6511 6.88888 11.3885 6.92682 11.2846C6.94958 11.2223 6.97895 10.6769 7.02556 9.45126C7.03545 9.19141 7.05184 8.93708 7.06199 8.88609L7.08045 8.79338L7.1266 8.8711C7.15197 8.91384 7.19237 8.98222 7.21636 9.02309L7.25997 9.09735L7.84974 9.08478C8.3942 9.07316 8.44679 9.06754 8.534 9.01142C8.58597 8.97798 8.65094 8.92479 8.67839 8.89319C8.70585 8.86162 8.74378 8.83577 8.76268 8.83577C8.8451 8.83577 8.88651 9.39038 8.88436 10.4654L8.88247 11.4027L9.01155 11.4462C9.45605 11.596 9.98317 11.6956 10.3452 11.6981C10.7748 11.701 11.384 11.4977 11.6209 11.2724L11.7315 11.1671L11.7572 9.38681C11.7819 7.675 11.7855 7.59127 11.8508 7.21088C11.9429 6.67344 11.9607 6.33241 11.9242 5.79793C11.8866 5.24687 11.8384 4.99049 11.7175 4.69884C11.3684 3.85664 10.7714 3.30165 9.86149 2.97346C9.33501 2.78357 9.25331 2.77616 7.67489 2.77513C6.11642 2.77411 6.08699 2.7769 6.08699 2.93193C6.08699 2.97604 6.11699 3.13665 6.15364 3.28881C6.23525 3.62749 6.26402 3.86468 6.30583 4.54397C6.33491 5.0163 6.33346 5.09261 6.29182 5.28752C6.2071 5.68397 5.88068 6.25088 5.65983 6.38512C5.61151 6.4145 5.42646 6.48048 5.24863 6.53177C4.82638 6.65353 4.77376 6.68799 4.67387 6.9081C4.58728 7.09889 4.53982 7.11413 4.53982 6.95115C4.53982 6.72314 4.70732 6.57348 5.136 6.41841C5.51818 6.28019 5.61322 6.22591 5.77381 6.0542C5.93614 5.88063 6.04267 5.68567 6.09967 5.45782C6.14954 5.25852 6.15747 4.31497 6.11306 3.86446C6.05498 3.27527 5.86289 2.78229 5.57149 2.47465C5.33068 2.22042 5.17148 2.15707 4.81125 2.17212C4.56693 2.18235 4.53831 2.19043 4.26635 2.32611C4.10849 2.40486 3.76421 2.59194 3.50129 2.74185C3.02783 3.0118 2.95231 3.04385 2.93284 2.98304C2.91855 2.93843 2.50611 2.94905 2.21401 3.00156C1.15748 3.1915 0.502283 3.64873 0.263855 4.36247C0.136509 4.74371 0.129009 4.95655 0.129009 8.18581V11.1954L0.187693 11.3276C0.262279 11.4956 0.337384 11.52 0.780445 11.5202C1.28177 11.5204 1.34863 11.4638 1.43138 10.9693C1.4548 10.8294 1.51048 10.3398 1.55517 9.88136C1.68874 8.51047 1.7331 8.25824 1.88423 8.01043C2.01926 7.78898 2.30205 7.63954 2.77889 7.53767C2.99899 7.49064 3.16342 7.37092 3.29172 7.16426C3.43365 6.93564 3.56266 6.51757 3.56266 6.28625C3.56266 6.12406 3.55561 6.10364 3.46703 6.0092L3.37141 5.90726L3.5281 5.91875C3.66222 5.92858 3.69946 5.91976 3.78659 5.85787C3.88558 5.78748 3.93087 5.79666 3.84609 5.86993C3.76625 5.93891 3.67088 6.14274 3.6418 6.30652C3.58053 6.65156 3.45795 6.97096 3.27561 7.26069C3.17794 7.41592 3.10418 7.55968 3.11173 7.58018C3.14535 7.67137 3.86123 7.82161 3.86123 7.73746C3.86123 7.71985 3.87908 7.70542 3.90089 7.70542C3.92389 7.70542 3.95178 7.74994 3.96725 7.81138C3.99839 7.93505 4.0255 9.01755 4.03373 10.4658C4.03913 11.4156 4.04312 11.4925 4.08969 11.546C4.11727 11.5778 4.1657 11.6122 4.19731 11.6227C4.22894 11.6331 4.30202 11.6727 4.3597 11.7106C4.51422 11.8121 4.6446 11.8527 4.88304 11.8735C5.00031 11.8837 5.14511 11.9029 5.20484 11.9161C5.26454 11.9293 5.35616 11.9352 5.4084 11.929C5.46065 11.9229 5.61372 11.9049 5.74855 11.8891ZM3.84616 9.64822C3.83562 8.72732 3.82336 7.96948 3.81891 7.96412C3.79819 7.93913 3.21324 7.79023 3.13565 7.79021C3.06358 7.79019 3.04477 7.80343 3.03005 7.86451C3.02019 7.90539 3.01816 8.6032 3.02554 9.41522L3.03897 10.8916L3.11606 10.9968C3.21715 11.1348 3.59081 11.3188 3.77505 11.3213L3.86531 11.3226L3.84616 9.64822ZM8.63999 10.2908C8.64829 9.73143 8.65432 9.27158 8.6534 9.26891C8.64832 9.25407 7.9958 9.32485 7.94228 9.34602L7.87846 9.37129V10.0604C7.87846 11.0046 7.87302 10.9759 8.08239 11.1359C8.18411 11.2137 8.28378 11.2672 8.33017 11.2688C8.37285 11.2704 8.4383 11.282 8.47562 11.2946C8.63139 11.3472 8.62362 11.3946 8.63999 10.2908ZM13.4917 4.47822C13.5438 4.42402 13.5295 4.35062 13.4632 4.33214C13.4296 4.32276 13.2831 4.31491 13.1375 4.31472C12.9334 4.31445 12.8729 4.32305 12.8729 4.35242C12.8729 4.38532 12.9799 4.44728 13.1171 4.49386C13.2 4.52199 13.4601 4.51113 13.4917 4.47822ZM13.789 4.05042C13.886 3.99721 13.9033 3.91999 13.8322 3.85859C13.7978 3.82885 13.6726 3.8198 13.2962 3.8198C13.026 3.8198 12.7585 3.83006 12.7016 3.84259C12.6095 3.86286 12.599 3.87379 12.6066 3.94148C12.6136 4.00476 12.6379 4.02584 12.7507 4.06649C12.9397 4.13457 13.6557 4.12349 13.789 4.05042ZM12.2173 4.03497C12.2374 4.02168 12.2495 3.98691 12.2441 3.9577C12.2353 3.90967 12.2024 3.90379 11.9021 3.89664C11.5822 3.88897 11.57 3.89083 11.57 3.94698C11.57 3.98103 11.5954 4.01592 11.6311 4.03084C11.7092 4.06357 12.169 4.06678 12.2173 4.03497ZM13.3885 3.57961C13.4258 3.55882 13.4432 3.52575 13.4377 3.48582C13.4303 3.43134 13.4103 3.42323 13.2664 3.41621C13.0802 3.40711 12.8665 3.49675 12.8497 3.59101C12.8407 3.64168 12.8545 3.64386 13.0855 3.62828C13.2205 3.6192 13.3568 3.59729 13.3885 3.57961ZM3.19929 2.68778C3.34341 2.66869 3.66089 2.51003 3.78863 2.39325C3.91043 2.28189 3.92343 2.17687 3.81875 2.14951C3.78046 2.1395 3.65299 2.13712 3.5355 2.14421C3.36606 2.15442 3.28642 2.17553 3.15046 2.24628C2.993 2.32822 2.58551 2.65455 2.58548 2.69875C2.58546 2.71938 3.01929 2.7116 3.19929 2.68778Z" fill="#37365A" stroke="#37365A" stroke-width="0.1" stroke-linecap="round" stroke-linejoin="round"/>
<path d="M4.93336 11.8703C4.6791 11.8352 4.59786 11.8102 4.38612 11.7018C4.24936 11.6319 4.12111 11.5541 4.10112 11.529C4.07237 11.493 4.06057 11.1757 4.04467 10.0112C4.02281 8.40931 3.99657 7.7785 3.94973 7.72976C3.92905 7.70821 3.89552 7.70689 3.84289 7.72556C3.71641 7.77039 3.12832 7.6396 3.12832 7.56663C3.12832 7.55506 3.19669 7.42805 3.28026 7.28441C3.46188 6.9723 3.54365 6.77022 3.63261 6.41375C3.70564 6.12115 3.7712 5.96736 3.85765 5.88598C3.94313 5.8055 3.89633 5.77329 3.78939 5.83897C3.72298 5.87978 3.64768 5.89682 3.53392 5.89682C3.4452 5.89682 3.3726 5.90715 3.3726 5.91979C3.3726 5.93241 3.40926 5.9793 3.45403 6.02399C3.52709 6.09686 3.53546 6.12293 3.53546 6.27766C3.53546 6.60473 3.36147 7.08809 3.1715 7.28881C3.04066 7.42704 2.92417 7.48534 2.62616 7.56175C2.13268 7.68825 1.87968 7.88468 1.77404 8.22331C1.69504 8.47655 1.6742 8.6224 1.55366 9.76659C1.4401 10.8443 1.38804 11.1922 1.31967 11.3298C1.25497 11.46 1.13147 11.4961 0.750457 11.4961C0.362703 11.4961 0.294163 11.4725 0.204906 11.3084L0.143433 11.1954L0.143485 8.41186C0.143554 5.38931 0.160373 4.78329 0.252799 4.46888C0.459078 3.76715 1.00337 3.31436 1.91815 3.08346C2.29079 2.9894 2.72455 2.94731 2.88525 2.98964C3.02808 3.02724 2.93514 3.06772 3.90189 2.54685L4.5262 2.21051L4.80177 2.1996C5.1211 2.18694 5.22737 2.21446 5.41897 2.35943C5.68132 2.55792 5.90589 2.95745 6.02189 3.43204C6.10528 3.77314 6.1459 4.48567 6.11512 5.06679C6.0914 5.51432 6.04516 5.66325 5.84355 5.94125C5.70928 6.12642 5.54843 6.23644 5.2216 6.36676C4.84805 6.5157 4.72285 6.58599 4.62554 6.70137C4.5535 6.78679 4.53976 6.8259 4.53976 6.94573C4.53976 7.12415 4.57985 7.11865 4.68076 6.92635C4.72098 6.84969 4.78465 6.75938 4.82226 6.72564C4.85986 6.69192 5.05292 6.61147 5.25129 6.54688C5.44963 6.48228 5.65697 6.39897 5.71202 6.36171C5.84135 6.27418 6.11332 5.84528 6.22913 5.5462L6.31765 5.3175L6.31561 4.80884C6.31334 4.24422 6.2751 3.81404 6.19124 3.41003C6.16059 3.26237 6.12923 3.07542 6.12154 2.9946C6.108 2.85201 6.1099 2.84694 6.18548 2.82503C6.22831 2.81261 6.91685 2.80245 7.71555 2.80245C9.00703 2.80245 9.19254 2.80804 9.39208 2.85286C10.1144 3.01512 10.8085 3.41596 11.2251 3.91128C11.4866 4.22229 11.7198 4.67514 11.8111 5.04904C11.9385 5.57139 11.952 6.51809 11.8415 7.1826C11.78 7.55208 11.7358 8.84291 11.7338 10.3246C11.7332 10.7316 11.721 11.0967 11.7067 11.1359C11.6499 11.2914 11.2683 11.5013 10.8235 11.6219C10.4308 11.7284 9.72319 11.6605 9.09718 11.4562L8.89629 11.3907L8.90452 10.8833C8.91344 10.3348 8.8688 9.10933 8.83407 8.94896C8.80601 8.81936 8.74201 8.80964 8.62443 8.91712C8.49404 9.03632 8.40137 9.05376 7.79324 9.07354C7.3438 9.08816 7.25787 9.08452 7.24523 9.05024C7.237 9.0279 7.19716 8.95504 7.15671 8.88834C7.0897 8.77779 7.08133 8.77229 7.06219 8.82616C7.05066 8.85865 7.0279 9.18248 7.01163 9.54577C6.93942 11.1592 6.93235 11.2414 6.85574 11.3573C6.75985 11.5023 6.57013 11.6585 6.4155 11.7196C6.22973 11.7931 5.75892 11.8825 5.47546 11.8982C5.33644 11.9058 5.1038 11.8939 4.93336 11.8703ZM2.09686 5.93761C2.09686 5.92897 2.04088 5.89611 1.97244 5.86459C1.78026 5.77609 1.74401 5.72469 1.74401 5.54079C1.74401 5.40145 1.75371 5.37312 1.8254 5.30342C1.87123 5.25884 1.9658 5.2095 2.04188 5.19051C2.16013 5.16097 2.18975 5.16326 2.27942 5.20887C2.34294 5.24118 2.40249 5.30185 2.43616 5.36855C2.4888 5.47286 2.48892 5.47728 2.4403 5.51497C2.36343 5.57455 2.31777 5.53707 2.30866 5.40689C2.30147 5.30416 2.29157 5.28816 2.23047 5.28077C2.18956 5.27581 2.13318 5.29637 2.09474 5.33023L2.02901 5.38815L2.09118 5.44307C2.15301 5.49767 2.15305 5.49814 2.09797 5.52883C2.01242 5.57649 2.0297 5.66473 2.13758 5.731C2.19318 5.76516 2.23257 5.81165 2.23257 5.84308C2.23257 5.95259 2.37966 5.87721 2.47237 5.72022C2.5594 5.57276 2.5712 5.44081 2.51018 5.29716C2.44784 5.15044 2.32837 5.0778 2.14704 5.07636L2.02901 5.07542L2.09686 5.01669C2.25193 4.88251 2.37239 4.7613 2.36172 4.7502C2.33638 4.72381 1.96619 4.84278 1.84663 4.91572C1.77626 4.95866 1.68468 5.04021 1.64313 5.09692C1.57774 5.18618 1.56755 5.22573 1.56755 5.39059C1.56755 5.55714 1.57793 5.59646 1.65 5.70321C1.75488 5.85857 1.88971 5.95333 2.00587 5.95333C2.05591 5.95333 2.09686 5.94626 2.09686 5.93761ZM1.29112 4.59251C1.32374 4.57457 1.39831 4.51744 1.45684 4.46558C1.62385 4.31758 1.81159 4.25778 2.10922 4.25778C2.38517 4.25778 2.44973 4.24408 2.44973 4.18545C2.44973 4.12791 2.27275 4.08852 2.01543 4.08881C1.64746 4.08923 1.291 4.20018 1.13461 4.36301C1.05412 4.44681 1.04779 4.50154 1.11034 4.57347C1.16237 4.63334 1.20821 4.63817 1.29112 4.59251Z" fill="#8C9AC9"/>
<path d="M2.64002 2.66092C2.69637 2.59021 3.05208 2.32051 3.18268 2.24944C3.28663 2.19287 3.34526 2.18281 3.57626 2.18187C3.8324 2.18084 3.84815 2.18414 3.85589 2.24061C3.86647 2.31784 3.74727 2.4229 3.50486 2.55C3.30772 2.65337 3.07674 2.70206 2.77899 2.70301C2.62779 2.7035 2.6103 2.6982 2.64002 2.66092Z" fill="#8C9AC9"/>
<path d="M11.7413 4.04571C11.6556 4.03716 11.6256 4.02753 11.5993 4.00012C11.5813 3.98149 11.5768 3.97103 11.5768 3.94863C11.5768 3.89998 11.571 3.90101 11.8374 3.90223C12.1646 3.90371 12.2281 3.9125 12.239 3.95776C12.2484 3.9968 12.2292 4.02953 12.1907 4.03988C12.1554 4.04939 11.8219 4.05371 11.7413 4.04571Z" fill="#374575"/>
<path d="M13.0561 4.1047C12.9797 4.10115 12.8577 4.08752 12.8101 4.07722C12.7434 4.06278 12.661 4.02769 12.6399 4.00475C12.6078 3.96985 12.5977 3.90142 12.6211 3.87707C12.6573 3.8394 12.8284 3.82651 13.297 3.82613C13.7527 3.82579 13.8211 3.83386 13.8557 3.89218C13.8848 3.94118 13.8689 3.98911 13.8098 4.03032C13.7927 4.04222 13.7624 4.0569 13.7423 4.06294C13.6288 4.09709 13.3097 4.11652 13.0561 4.1047Z" fill="#9CA8D1"/>
<path d="M12.8797 3.62993C12.817 3.61797 12.8651 3.53541 12.9647 3.48422C13.0635 3.43336 13.1973 3.41035 13.3184 3.42341C13.4024 3.43246 13.4197 3.43996 13.4297 3.4714C13.4429 3.51287 13.4245 3.55606 13.3854 3.57534C13.3272 3.60412 12.955 3.64428 12.8797 3.62993Z" fill="#9CA8D1"/>
<path d="M13.1404 4.49504C13.0621 4.47648 12.937 4.4166 12.8983 4.37916C12.8756 4.35725 12.8748 4.34594 12.8949 4.33399C12.9168 4.32097 13.4129 4.32136 13.4555 4.33445C13.5148 4.35269 13.5349 4.40538 13.502 4.45634C13.4799 4.49057 13.4435 4.49883 13.3003 4.50209C13.2155 4.50404 13.1698 4.50202 13.1404 4.49504Z" fill="#9CA8D1"/>
<path d="M3.61361 11.277C3.43805 11.2178 3.23081 11.0977 3.14432 11.005C3.07549 10.9313 3.06069 10.9008 3.05037 10.8114C3.04365 10.7531 3.03807 10.0613 3.03797 9.27408C3.03785 7.98659 3.04089 7.84014 3.0685 7.81628C3.10301 7.78647 3.26967 7.81552 3.61612 7.91175L3.80099 7.96309L3.81249 8.13529C3.81881 8.23 3.82863 8.89647 3.83431 9.61633C3.83999 10.3362 3.84949 11.0128 3.85541 11.12L3.8662 11.3148L3.79269 11.3137C3.75225 11.3131 3.67167 11.2966 3.61361 11.277Z" fill="#586DB2"/>
<path d="M8.46968 11.2826C8.42217 11.2691 8.36021 11.2573 8.33198 11.2564C8.25862 11.2542 7.98933 11.0597 7.94233 10.9751C7.90549 10.9088 7.90317 10.8657 7.89761 10.1479C7.89435 9.72784 7.89927 9.38287 7.90866 9.37309C7.9259 9.35515 8.22268 9.31088 8.49613 9.28547L8.64736 9.27142L8.6348 10.0983C8.62088 11.0152 8.61002 11.2407 8.57782 11.2803C8.56001 11.3022 8.5403 11.3026 8.46968 11.2826Z" fill="#586DB2"/>
</g>
<defs>
<clipPath id="clip0_31_717">
<rect width="14" height="14" fill="white"/>
</clipPath>
</defs>
</svg>
