<svg width="14" height="14" viewBox="0 0 14 14" fill="none" xmlns="http://www.w3.org/2000/svg">
<path d="M6.56127 4.14958C6.56559 4.15243 6.56945 4.15504 6.57288 4.15743C6.5641 4.16707 6.55137 4.17771 6.53635 4.18661C6.49107 4.21345 6.28443 4.35742 6.07845 4.50525C5.38226 5.00489 4.83957 5.46375 4.22005 6.07652C4.0995 6.19576 3.98714 6.30403 3.90328 6.38237C3.86129 6.42159 3.82676 6.45302 3.80204 6.4745C3.79624 6.47954 3.79111 6.48392 3.78663 6.48766C3.77304 6.47631 3.75486 6.45856 3.73249 6.43445C3.68796 6.38645 3.63048 6.31723 3.56571 6.23383C3.43632 6.06723 3.28017 5.847 3.14424 5.63367C2.72415 4.97434 2.52214 4.4645 2.49853 4.02381C2.48982 3.86118 2.49654 3.74291 2.52172 3.64621C2.54655 3.55083 2.59001 3.47388 2.65916 3.39504C2.83277 3.19713 3.08003 3.10931 3.52299 3.10892C4.03235 3.10845 4.54324 3.22681 5.30298 3.52491C5.48895 3.59787 5.81265 3.75138 6.09192 3.89322C6.23135 3.96403 6.35891 4.03153 6.45192 4.08415C6.49855 4.11054 6.53577 4.13277 6.56127 4.14958ZM6.83919 7.91491L6.83919 7.91491C6.86736 7.92214 6.91455 7.92676 6.96492 7.9293C7.01668 7.93192 7.07623 7.93251 7.13141 7.93047C7.39153 7.92082 7.62814 7.81495 7.8142 7.62574C8.22429 7.20867 8.20908 6.52768 7.779 6.13967C7.25477 5.6667 6.45867 5.81296 6.15014 6.4416C6.11093 6.52151 6.08703 6.57443 6.07432 6.63931C6.0619 6.70268 6.06056 6.77557 6.06056 6.89471C6.06056 7.00777 6.0626 7.08111 6.0731 7.14298C6.08389 7.20659 6.10328 7.25624 6.13426 7.32259C6.26619 7.60504 6.54427 7.83926 6.83919 7.91491ZM2.01946 10.2704C2.16097 10.7624 2.54769 11.0822 3.10733 11.1811C3.53456 11.2566 4.08671 11.1966 4.70334 11.0224C5.32086 10.8479 6.00688 10.5576 6.70352 10.1686L7.07853 9.95918L7.37096 10.1243C8.05448 10.5103 8.73123 10.8052 9.34077 10.9903C9.9494 11.1751 10.4948 11.2516 10.9142 11.1968C11.2008 11.1594 11.4344 11.0863 11.6226 10.9689C11.8114 10.8511 11.952 10.6902 12.0546 10.4818C12.2392 10.1071 12.218 9.60733 12.0232 9.04089C11.8279 8.47328 11.4558 7.83136 10.9264 7.16575C10.8601 7.08246 10.8047 7.00723 10.7674 6.95119C10.7486 6.92298 10.7351 6.90069 10.727 6.88515C10.7268 6.88466 10.7265 6.88418 10.7263 6.88371L10.7282 6.8812C10.736 6.87085 10.7465 6.85752 10.7589 6.84209C10.7836 6.81126 10.8155 6.7727 10.8484 6.73393C10.9162 6.65422 11.0635 6.46109 11.1763 6.30446C11.6865 5.59594 12.0074 4.94633 12.1274 4.39072C12.2476 3.83456 12.1673 3.36661 11.8663 3.03264C11.7244 2.87525 11.5463 2.76562 11.2899 2.6734C11.2113 2.64516 11.1542 2.62881 11.0609 2.61994C10.9702 2.61131 10.8447 2.60969 10.6294 2.60922C10.3676 2.60864 10.1909 2.61468 10.0126 2.64093C9.83452 2.66716 9.65654 2.71334 9.39209 2.79138C8.78481 2.9706 8.0383 3.29778 7.35245 3.68474C7.27628 3.72772 7.20446 3.76669 7.15023 3.79483C7.12304 3.80893 7.10066 3.82011 7.08451 3.82767C7.08062 3.82949 7.07722 3.83104 7.07431 3.83233C7.07198 3.83128 7.06934 3.83006 7.06637 3.82866C7.0517 3.82173 7.03141 3.81144 7.00676 3.7984C6.95758 3.7724 6.89273 3.73635 6.82418 3.69658C5.89941 3.16002 4.8428 2.75113 4.07119 2.63339C3.77919 2.58884 3.30991 2.5835 3.08757 2.62339C2.54092 2.72149 2.17393 3.01841 2.03083 3.49059C1.99846 3.59737 1.98202 3.74876 1.98025 3.90505C1.97847 4.06195 1.99143 4.22807 2.02009 4.3654C2.15633 5.0183 2.58453 5.81781 3.22734 6.62925C3.2807 6.69661 3.33134 6.76136 3.36991 6.81138C3.3892 6.8364 3.4054 6.85763 3.41738 6.87362L3.42804 6.88806C3.42336 6.8984 3.41523 6.91316 3.40299 6.93247C3.37617 6.97481 3.33358 7.03285 3.27757 7.10226C2.709 7.80689 2.25828 8.60018 2.07 9.23219C2.02238 9.39204 1.99295 9.59174 1.98356 9.77988C1.97421 9.96708 1.98442 10.1486 2.01946 10.2704ZM5.61416 10.1398C5.01782 10.4013 4.65117 10.5241 4.19413 10.6166C4.04823 10.6462 3.86181 10.6709 3.69512 10.6854C3.52611 10.7001 3.38479 10.7036 3.32529 10.6936C2.96533 10.6328 2.74234 10.5302 2.64442 10.4013C2.4799 10.1849 2.44432 9.86073 2.54714 9.44677C2.64971 9.03377 2.88821 8.54013 3.25797 7.99564C3.37604 7.82178 3.50806 7.64185 3.61497 7.50561C3.66849 7.43741 3.71527 7.38074 3.75061 7.34142C3.76405 7.32646 3.7754 7.31451 3.78452 7.30559C3.78554 7.30645 3.78658 7.30734 3.78766 7.30827C3.80646 7.32434 3.83256 7.34806 3.86426 7.37789C3.92751 7.43741 4.01152 7.5198 4.1009 7.61061C4.75189 8.27203 5.50546 8.90159 6.3216 9.466C6.40082 9.52078 6.47134 9.57361 6.52103 9.61439C6.5377 9.62807 6.55161 9.64006 6.56255 9.65008C6.54667 9.66101 6.52557 9.67445 6.49974 9.69005C6.43773 9.72751 6.35164 9.77553 6.25307 9.82788C6.05597 9.93256 5.81133 10.0533 5.61416 10.1398ZM11.5743 10.2942C11.4812 10.4598 11.3435 10.5684 11.1442 10.6302C11.0696 10.6533 10.9348 10.6741 10.7939 10.6865C10.6532 10.6989 10.5132 10.7024 10.4287 10.6931C9.79056 10.6229 9.11257 10.4122 8.28831 10.0257C8.13023 9.95156 7.94303 9.85353 7.79545 9.77031C7.72161 9.72866 7.65832 9.69108 7.61382 9.6623C7.60343 9.65558 7.59427 9.64947 7.58638 9.64402C7.59443 9.63741 7.60378 9.62998 7.61435 9.6218C7.65645 9.58924 7.71507 9.5471 7.77991 9.50341C8.21392 9.21097 8.95626 8.63777 9.28394 8.34191C9.66771 7.9954 10.0407 7.64037 10.1968 7.47264C10.2459 7.41983 10.2935 7.3721 10.3303 7.33785C10.3451 7.32408 10.3577 7.31286 10.3678 7.30449C10.3807 7.31692 10.3978 7.33512 10.4185 7.35861C10.4625 7.40851 10.5201 7.47911 10.5838 7.56079C10.7111 7.72409 10.8607 7.92931 10.9707 8.09693C11.2222 8.47996 11.4643 8.96333 11.5668 9.28456C11.6046 9.40298 11.6242 9.47229 11.635 9.54758C11.6458 9.62337 11.6478 9.70677 11.6478 9.85362C11.6478 10.0124 11.647 10.0889 11.6376 10.1435C11.6289 10.194 11.613 10.2253 11.5743 10.2942ZM8.75572 8.11877C8.327 8.47789 7.84112 8.84491 7.42447 9.12443C7.33382 9.18525 7.24676 9.24039 7.17969 9.28017C7.14608 9.3001 7.11801 9.31587 7.09726 9.3265C7.08724 9.33164 7.07959 9.33524 7.07421 9.33748C7.0714 9.33662 7.06685 9.33507 7.06022 9.3323C7.0466 9.32662 7.02861 9.31774 7.00626 9.30547C6.96169 9.281 6.90312 9.24492 6.83339 9.19919C6.69413 9.10786 6.51313 8.97987 6.31589 8.834C5.92131 8.54219 5.46405 8.18055 5.14895 7.90075C4.94991 7.72401 4.69414 7.47728 4.48808 7.26837C4.38505 7.16392 4.29487 7.06934 4.23063 6.99799C4.19843 6.96222 4.1733 6.9329 4.15645 6.91137C4.15206 6.90576 4.14843 6.90093 4.14548 6.89683C4.14914 6.89158 4.15389 6.88518 4.15984 6.87759C4.17883 6.85337 4.20714 6.82064 4.24343 6.78087C4.31583 6.70153 4.41766 6.59675 4.53452 6.48087C4.76821 6.24913 5.06022 5.97476 5.29358 5.77369C5.50531 5.59125 5.82885 5.32879 6.01191 5.19092C6.21318 5.03933 6.47574 4.85255 6.69298 4.70367C6.80162 4.62922 6.89858 4.56448 6.97068 4.51846C7.00681 4.4954 7.0362 4.47736 7.05749 4.46522C7.06558 4.4606 7.07208 4.45707 7.07709 4.45453C7.07828 4.45503 7.07959 4.4556 7.08104 4.45625C7.09152 4.46097 7.1059 4.46842 7.12422 4.47881C7.1607 4.49949 7.20964 4.52994 7.26844 4.56842C7.38587 4.64525 7.54027 4.75249 7.70846 4.87349C8.04495 5.11558 8.43458 5.4113 8.69106 5.6265C9.00294 5.88818 9.33687 6.19395 9.59265 6.44534C9.7206 6.57109 9.82846 6.68272 9.90406 6.76811C9.94196 6.81092 9.97102 6.84631 9.99032 6.87314C9.99889 6.88505 10.005 6.89448 10.0089 6.90157C10.004 6.90873 9.99678 6.91825 9.98707 6.93019C9.9643 6.95819 9.93068 6.99604 9.88818 7.04169C9.80336 7.13281 9.68536 7.25263 9.55345 7.38219C9.2895 7.64145 8.97182 7.93776 8.75572 8.11877ZM7.06904 9.33944C7.06869 9.33954 7.06872 9.33951 7.0691 9.33942L7.06904 9.33944ZM11.6235 4.3032C11.5042 4.84146 11.1311 5.53742 10.5674 6.26397C10.5144 6.3323 10.4619 6.39403 10.4203 6.4383C10.3994 6.46056 10.382 6.47763 10.3691 6.48878C10.3688 6.48901 10.3685 6.48923 10.3683 6.48945C10.3677 6.48901 10.367 6.48856 10.3664 6.48809C10.3522 6.47792 10.3331 6.46247 10.3102 6.44246C10.2646 6.40262 10.2065 6.34713 10.1474 6.28577C9.44611 5.55798 8.50224 4.76756 7.7397 4.26979C7.68634 4.23496 7.63825 4.20018 7.60391 4.17245C7.59639 4.16638 7.5897 4.16078 7.58386 4.15571C7.59775 4.14596 7.61557 4.13422 7.63689 4.12085C7.69509 4.08436 7.77605 4.03779 7.86558 3.99013C8.94814 3.41379 9.91378 3.10858 10.6353 3.10858C11.1589 3.10858 11.4473 3.24591 11.596 3.53238C11.629 3.59598 11.6519 3.71988 11.6577 3.86745C11.6635 4.01288 11.6524 4.17264 11.6235 4.3032Z" fill="url(#paint0_linear_649_1911)" stroke="url(#paint1_linear_649_1911)" stroke-width="0.1" stroke-linecap="round" stroke-linejoin="round"/>
<defs>
<linearGradient id="paint0_linear_649_1911" x1="2.5" y1="7" x2="12" y2="7" gradientUnits="userSpaceOnUse">
<stop stop-color="#AB7AFF"/>
<stop offset="1" stop-color="#EA69FF"/>
</linearGradient>
<linearGradient id="paint1_linear_649_1911" x1="2.5" y1="7" x2="12" y2="7" gradientUnits="userSpaceOnUse">
<stop stop-color="#AB7AFF"/>
<stop offset="1" stop-color="#EA69FF"/>
</linearGradient>
</defs>
</svg>
