<svg width="14" height="14" viewBox="0 0 14 14" fill="none" xmlns="http://www.w3.org/2000/svg">
<mask id="path-2-outside-1_214_742" maskUnits="userSpaceOnUse" x="0" y="1" width="14" height="13" fill="black">
<rect fill="white" y="1" width="14" height="13"/>
<path d="M9.42042 12.9993L9.34831 12.9985L9.33229 12.9966L9.31626 12.9947L9.25751 12.9886L9.19876 12.9826L9.12727 12.9691L9.05578 12.9556L8.98573 12.9369L8.91567 12.9182L8.83883 12.8927L8.76198 12.8672L8.66791 12.8285L8.57383 12.7898L8.48008 12.7446L8.38633 12.6995L8.29072 12.6456L8.1951 12.5917L8.12809 12.5502L8.06108 12.5087L7.9596 12.4401L7.85811 12.3715L7.79402 12.3243L7.72992 12.2772L7.66838 12.2295L7.60684 12.1819L7.5215 12.1114L7.43616 12.041L7.3458 11.9609L7.25544 11.8809L7.19358 11.8229L7.13172 11.7649L7.07734 11.7113L7.0257 11.6603C7.02394 11.6586 7.02157 11.6576 7.0191 11.6576C7.01663 11.6576 7.01427 11.6586 7.01251 11.6603L6.96665 11.7059L6.91806 11.7541L6.8326 11.8333L6.74714 11.9125L6.65003 11.996L6.55292 12.0795L6.46309 12.1507L6.37326 12.2219L6.29581 12.2793L6.21836 12.3366L6.10353 12.4144L5.98869 12.4921L5.92994 12.5279L5.87118 12.5637L5.79291 12.6083L5.71464 12.6529L5.64603 12.6883L5.57742 12.7236L5.48662 12.765L5.39581 12.8064L5.30073 12.8429L5.20564 12.8793L5.12431 12.9038L5.04298 12.9283L4.9737 12.9445L4.90442 12.9606L4.83766 12.9719L4.77089 12.9833L4.70254 12.9897L4.63419 12.9961L4.52094 12.9931L4.47552 12.992C4.43037 12.9908 4.38537 12.9862 4.34093 12.9781L4.27416 12.966L4.21124 12.9474L4.14833 12.9287L4.09186 12.9039L4.03539 12.8791L3.98629 12.8493L3.93719 12.8195L3.89203 12.7853C3.86196 12.7626 3.83371 12.7375 3.80752 12.7104L3.78248 12.6844L3.7181 12.6177L3.68442 12.5719L3.65074 12.526L3.6161 12.4701L3.58146 12.4141L3.54239 12.3316L3.50331 12.2491L3.48378 12.1973L3.46425 12.1455L3.44319 12.0785L3.42213 12.0116L3.40147 11.9268L3.38081 11.8419L3.36682 11.7622L3.35284 11.6824L3.34245 11.5971L3.33206 11.5118L3.32507 11.432L3.31808 11.3523L3.31818 11.1074L3.31827 10.8626L3.32516 10.7718L3.33204 10.681L3.34263 10.5765L3.35322 10.4719L3.36656 10.3729L3.3799 10.2739L3.39822 10.1638L3.41655 10.0538L3.43576 9.95475L3.45496 9.85571L3.48388 9.72674L3.51233 9.59981C3.51262 9.59854 3.51224 9.5972 3.51133 9.59626C3.51037 9.59527 3.50918 9.59453 3.50787 9.59412L3.39796 9.55911L3.28605 9.52346L3.18457 9.4879L3.08308 9.45234L3.01752 9.42711L2.95197 9.40189L2.85729 9.3626L2.76261 9.32331L2.67181 9.28221L2.58101 9.24111L2.46884 9.18415L2.35668 9.12719L2.2819 9.08512L2.20712 9.04306L2.12167 8.99049L2.03621 8.93792L1.94832 8.87765L1.86044 8.81739L1.78974 8.76296L1.71903 8.70854L1.66664 8.66412L1.61425 8.61969L1.53638 8.5458L1.4585 8.47191L1.40133 8.40676L1.34416 8.3416L1.30381 8.28986L1.26346 8.23812L1.21355 8.16109L1.16364 8.08406L1.13152 8.02079L1.09941 7.95751L1.07538 7.89584L1.05135 7.83417L1.0352 7.7748L1.01905 7.71542L1.00955 7.66591C1.00323 7.63297 1.00005 7.5995 1.00004 7.56597L1.00003 7.48984L1.00001 7.42776C1 7.38488 1.00413 7.34211 1.01233 7.30002L1.02467 7.23675L1.04938 7.15991L1.07409 7.08307L1.1153 6.9976L1.15651 6.91213L1.20458 6.83785L1.25265 6.76357L1.29991 6.70305L1.34716 6.64253L1.42729 6.55786L1.50741 6.47319L1.58379 6.40548L1.66016 6.33777L1.73067 6.28307L1.80118 6.22836L1.87596 6.17622L1.95074 6.12408L2.00949 6.0868L2.06824 6.04952L2.14302 6.00567L2.2178 5.96183L2.31394 5.9105L2.41008 5.85917L2.49287 5.81968L2.57566 5.78019L2.66646 5.74034L2.75726 5.70048L2.87476 5.65345L2.99227 5.60643L3.14984 5.55177L3.3074 5.49711L3.41289 5.46497L3.51101 5.43508C3.51539 5.43374 3.51838 5.4297 3.51838 5.42512C3.51838 5.42 3.51776 5.4149 3.51653 5.40993L3.50765 5.37411L3.49691 5.33081L3.47062 5.20813L3.44433 5.08546L3.42805 4.99743L3.41178 4.90939L3.39314 4.7911L3.3745 4.67281L3.36128 4.56552L3.34805 4.45823L3.33983 4.36469L3.3316 4.27116L3.32641 4.18038L3.32121 4.08959L3.31782 3.97955L3.31444 3.86951L3.32035 3.72774L3.32627 3.58596L3.3342 3.50215L3.34214 3.41835L3.35306 3.34132L3.36398 3.26429L3.37444 3.20751L3.38489 3.15073L3.40099 3.08096L3.41708 3.0112L3.4416 2.93142L3.46612 2.85164L3.49274 2.78286L3.51936 2.71409L3.55332 2.64531L3.58728 2.57654L3.62933 2.51051L3.67138 2.44449L3.70378 2.40322L3.73619 2.36196L3.79153 2.30677L3.84686 2.25159L3.87991 2.22556L3.91296 2.19953L3.95736 2.17112L4.00176 2.14271L4.05004 2.11911L4.09833 2.0955L4.16221 2.07356L4.22609 2.05161L4.29286 2.03789L4.35962 2.02417L4.42105 2.0184L4.48247 2.01262H4.54656H4.61066L4.67475 2.01825L4.73885 2.02389L4.80561 2.03488L4.87238 2.04587L4.93349 2.05996L4.9946 2.07405L5.06792 2.0954L5.14124 2.11674L5.22395 2.14704L5.30666 2.17734L5.39664 2.21657L5.48662 2.2558L5.57742 2.30169L5.66822 2.34758L5.74194 2.38926L5.81566 2.43094L5.89683 2.48116L5.97801 2.53138L6.0547 2.583L6.1314 2.63461L6.21227 2.69315L6.29314 2.75169L6.36792 2.8096L6.44269 2.86751L6.50679 2.91986L6.57088 2.97222L6.63765 3.02976L6.70441 3.08731L6.78453 3.16006L6.86465 3.23283L6.93396 3.29919L6.95689 3.32115C6.98268 3.34585 7.02347 3.34546 7.04879 3.32027L7.09432 3.27499L7.15574 3.21702L7.21717 3.15905L7.28393 3.09875L7.3507 3.03845L7.41212 2.98596L7.47355 2.93347L7.54053 2.87849L7.60751 2.82351L7.6794 2.76826L7.75129 2.71301L7.81647 2.66534L7.88165 2.61767L7.96602 2.56089L8.0504 2.50411L8.13052 2.4546L8.21063 2.4051L8.28007 2.36587L8.3495 2.32664L8.459 2.27178L8.56849 2.21693L8.6406 2.18678L8.71271 2.15663L8.77962 2.13175L8.84653 2.10686L8.92307 2.08402L8.99962 2.06118L9.07198 2.0448L9.14434 2.02843L9.21695 2.01754L9.28956 2.00665L9.39104 2.00333L9.49252 2L9.55662 2.00644L9.62071 2.01289L9.68559 2.02637L9.75046 2.03985L9.80844 2.05931C9.84704 2.07227 9.88467 2.08795 9.92104 2.10625L9.92586 2.10867L9.98531 2.13856L10.0407 2.17689L10.0961 2.21521L10.1477 2.26229L10.1994 2.30938L10.2446 2.36405L10.2899 2.41871L10.3245 2.47008L10.3591 2.52144L10.3921 2.58051L10.425 2.63958L10.4467 2.6878L10.4684 2.73602L10.4972 2.81166L10.526 2.8873L10.5497 2.96926L10.5735 3.05122L10.5923 3.13846L10.6112 3.2257L10.6245 3.31098L10.6379 3.39626L10.646 3.47329L10.6542 3.55032L10.6595 3.61909L10.6649 3.68787L10.6683 3.83918L10.6718 3.99048L10.6654 4.13078L10.6591 4.27108L10.6511 4.36737L10.6432 4.46365L10.6324 4.55994L10.6216 4.65622L10.6083 4.74976L10.5951 4.84329L10.5788 4.93958L10.5626 5.03586L10.5388 5.15691L10.5149 5.27795L10.4964 5.35722L10.4785 5.43361C10.4781 5.4354 10.4786 5.43728 10.4799 5.4386C10.4813 5.43998 10.4829 5.44101 10.4848 5.44159L10.5881 5.47388L10.6943 5.50706L10.8038 5.5447L10.9133 5.58233L11.0288 5.62667L11.1443 5.671L11.2584 5.72009L11.3726 5.76918L11.4447 5.80329L11.5168 5.83739L11.6237 5.89251L11.7305 5.94763L11.7892 5.98095L11.848 6.01426L11.9201 6.05829L11.9922 6.10231L12.0759 6.15866L12.1596 6.21501L12.2415 6.27787L12.3234 6.34074L12.3794 6.38897L12.4355 6.43719L12.5019 6.50131L12.5683 6.56543L12.6302 6.63695L12.6921 6.70848L12.7384 6.77214L12.7848 6.8358L12.8235 6.90144L12.8621 6.96707L12.8908 7.02911L12.9194 7.09116L12.9429 7.16391L12.9664 7.23667L12.9772 7.29169L12.988 7.34671L12.994 7.41274L12.9948 7.42112C12.9982 7.45949 12.9988 7.49808 12.9964 7.53653L12.9928 7.5943L12.9825 7.65727L12.9721 7.72025L12.9559 7.77805L12.9397 7.83585L12.913 7.90287L12.8862 7.9699L12.8511 8.03519L12.816 8.10049L12.776 8.16101L12.736 8.22153L12.7062 8.26005L12.6764 8.29856L12.6302 8.35358L12.584 8.4086L12.5094 8.48288L12.4349 8.55716L12.3738 8.6101L12.3127 8.66304L12.2348 8.72355L12.1569 8.78405L12.0772 8.83888L11.9976 8.89371L11.9228 8.94047L11.848 8.98723L11.7738 9.02994L11.6996 9.07265L11.5788 9.13488L11.4581 9.19711L11.3806 9.23278L11.3032 9.26845L11.2135 9.30756L11.1238 9.34666L11.0079 9.39148L10.8919 9.43629L10.7798 9.47598L10.6676 9.51568L10.5901 9.53944L10.5177 9.56166C10.5144 9.56267 10.5113 9.56436 10.5087 9.56661C10.5063 9.56871 10.5052 9.57199 10.5059 9.57513L10.531 9.68807L10.5573 9.80612L10.5761 9.90515L10.595 10.0042L10.611 10.1032L10.6271 10.2023L10.6404 10.304L10.6538 10.4058L10.6594 10.4581L10.665 10.5104L10.6728 10.6039L10.6805 10.6974L10.6868 10.8295L10.6931 10.9615L10.6898 11.1156L10.6865 11.2697L10.6783 11.3728L10.6702 11.476L10.6621 11.5406L10.654 11.6053L10.6406 11.6851L10.6272 11.7648L10.6111 11.8391L10.5951 11.9134L10.5735 11.9904L10.552 12.0674L10.525 12.1417L10.4981 12.216L10.4719 12.2759L10.4457 12.3359L10.4155 12.3915L10.3853 12.4471L10.3495 12.5021L10.3137 12.5571L10.2861 12.5929L10.2585 12.6287L10.204 12.6857L10.1495 12.7427L10.1066 12.7774L10.0636 12.8121L10.0184 12.841L9.97323 12.8699L9.92495 12.8935L9.87666 12.9171L9.81278 12.9391L9.7489 12.961L9.68214 12.9747L9.61537 12.9884L9.55395 12.9942L9.49252 13L9.42042 12.9993ZM9.42323 12.4713L9.48212 12.4719L9.52738 12.4661L9.57264 12.4603L9.61537 12.4493C9.64378 12.442 9.67134 12.4317 9.69761 12.4186L9.70708 12.4139L9.70993 12.4125C9.74058 12.3973 9.76937 12.3785 9.79573 12.3567L9.79825 12.3546C9.82296 12.3341 9.84571 12.3114 9.86619 12.2867L9.89698 12.2495L9.92235 12.2108L9.94771 12.1721L9.97229 12.1252L9.99687 12.0784L10.0206 12.0201L10.0443 11.9619L10.0657 11.8936L10.0872 11.8254L10.1039 11.7552L10.1206 11.6849L10.1361 11.5901L10.1515 11.4953L10.1597 11.4146L10.168 11.3338L10.1741 11.2165L10.1802 11.0992L10.1769 10.9534L10.1736 10.8076L10.1681 10.7305L10.1626 10.6535L10.1545 10.5682L10.1464 10.4829L10.133 10.3812L10.1197 10.2794L10.1063 10.1968L10.093 10.1143L10.0794 10.04L10.0659 9.96575L10.0501 9.89147L10.0343 9.81719L10.0209 9.75911C10.0135 9.72704 9.98151 9.70703 9.94943 9.71442L9.92895 9.71914L9.85038 9.73726L9.69015 9.76996L9.52991 9.80266L9.40172 9.82491L9.27353 9.84716L9.16404 9.86404L9.05454 9.88091L8.88897 9.90235L8.72339 9.92379L8.61122 9.93563L8.49906 9.94748L8.44066 9.95386C8.40359 9.95792 8.37012 9.97792 8.34899 10.0086L8.2839 10.1033L8.18552 10.2464L8.06142 10.4169L7.93732 10.5875L7.8291 10.7269L7.72088 10.8663L7.62971 10.9773L7.53854 11.0882L7.45988 11.1789L7.38483 11.2656C7.3825 11.2683 7.38114 11.2717 7.38097 11.2752C7.38081 11.2787 7.38216 11.2821 7.38469 11.2845L7.44582 11.3434L7.51093 11.406L7.58037 11.4702L7.6498 11.5344L7.70856 11.5858L7.76731 11.6373L7.85789 11.7119L7.94848 11.7865L8.0395 11.8549L8.13051 11.9232L8.22933 11.9906L8.32814 12.058L8.3949 12.099L8.46167 12.14L8.52725 12.1771L8.59284 12.2143L8.67948 12.257L8.76612 12.2998L8.84624 12.333L8.92635 12.3662L9.00113 12.3911L9.07591 12.4161L9.11864 12.4271L9.16137 12.438L9.20677 12.4474L9.25217 12.4567L9.30825 12.4637L9.36433 12.4707L9.42323 12.4713ZM4.55612 12.4659L4.63511 12.4664L4.68698 12.4606L4.73885 12.4549L4.81716 12.4385L4.89546 12.4222L4.96694 12.4007L5.03842 12.3791L5.11029 12.3522L5.18217 12.3252L5.24359 12.2982L5.30501 12.2713L5.39849 12.2239L5.49196 12.1766L5.56673 12.1335L5.64151 12.0904L5.71896 12.0411L5.79641 11.9919L5.88719 11.9285L5.97797 11.8651L6.07146 11.7935L6.16495 11.7218L6.23171 11.6664L6.29848 11.611L6.38928 11.5308L6.48008 11.4506L6.52281 11.4102L6.56554 11.3698L6.61229 11.3232C6.63849 11.2971 6.63961 11.255 6.61485 11.2275L6.60393 11.2154L6.54881 11.1542L6.46632 11.0579L6.38383 10.9616L6.29797 10.8571L6.2121 10.7525L6.11333 10.626L6.01457 10.4994L5.92678 10.3811L5.83899 10.2629L5.77199 10.1693L5.70499 10.0758L5.66664 10.0202L5.65797 10.0076C5.6392 9.98045 5.6091 9.96325 5.57614 9.96088L5.524 9.95715L5.36377 9.94058L5.20353 9.92401L5.05398 9.90517L4.90442 9.88633L4.77356 9.86664L4.6427 9.84695L4.50116 9.82229L4.35962 9.79762L4.18666 9.76182L4.01631 9.72656C4.01469 9.72622 4.01301 9.72674 4.01185 9.72793C4.01064 9.72918 4.00979 9.73074 4.00939 9.73244L3.99156 9.80928L3.97313 9.88871L3.94839 10.0098L3.92365 10.1308L3.903 10.2573L3.88235 10.3839L3.86873 10.4912L3.85511 10.5985L3.84708 10.6893L3.83905 10.78L3.83366 10.8736L3.82827 10.9671L3.82822 11.1103L3.82817 11.2534L3.83363 11.3413L3.83909 11.4293L3.85001 11.5201L3.86092 11.6108L3.87418 11.6824L3.88745 11.7539L3.90554 11.8255L3.92364 11.8971L3.94328 11.9548L3.96293 12.0125L3.99702 12.0861L4.03111 12.1598L4.06169 12.2072C4.08205 12.2387 4.10514 12.2684 4.13071 12.2959L4.13515 12.3007L4.15097 12.3177C4.16896 12.337 4.18875 12.3546 4.21006 12.3701L4.21785 12.3758C4.234 12.3876 4.25104 12.3982 4.26882 12.4073C4.28659 12.4165 4.30508 12.4242 4.32409 12.4304L4.34092 12.4359L4.34259 12.4364C4.3717 12.4459 4.4015 12.4531 4.43172 12.458C4.46194 12.4629 4.4925 12.4654 4.52311 12.4657L4.55612 12.4659ZM7.01723 10.8928C7.02001 10.8928 7.02265 10.8916 7.02445 10.8895L7.11423 10.7842L7.20685 10.6755L7.2845 10.5792L7.36215 10.4829L7.44515 10.3756L7.52816 10.2684L7.62293 10.1391L7.70861 10.0222C7.71268 10.0166 7.70928 10.0087 7.70245 10.0079C7.69229 10.0066 7.68206 10.0062 7.67183 10.0065L7.51093 10.012L7.33467 10.018H6.98215H6.62963L6.46472 10.0123L6.30254 10.0067C6.3008 10.0066 6.29912 10.0073 6.2979 10.0086C6.29681 10.0097 6.2967 10.0115 6.29765 10.0127L6.38537 10.1287L6.47474 10.2469L6.54381 10.3347L6.61287 10.4225L6.69864 10.527L6.7844 10.6315L6.84829 10.7058L6.91217 10.7801L6.96251 10.8365L7.00993 10.8896C7.01178 10.8917 7.01445 10.8929 7.01723 10.8928ZM7.05426 9.48673L7.53764 9.48525L7.65248 9.47926L7.76731 9.47327L7.90885 9.46505L8.0504 9.45684L8.07462 9.45372C8.08995 9.45175 8.10358 9.44299 8.11174 9.42986L8.12342 9.41107L8.14799 9.37153L8.22246 9.25324L8.29693 9.13494L8.37171 9.01115L8.44649 8.88735L8.52945 8.7443L8.61241 8.60125L8.68458 8.47195L8.75676 8.34265L8.83162 8.20235L8.90647 8.06205L8.97382 7.93L9.04117 7.79795L9.11422 7.64736L9.14561 7.58265C9.17192 7.52839 9.172 7.46509 9.14582 7.41077L9.10438 7.32478L9.03188 7.18173L8.95939 7.03867L8.88214 6.89287L8.80489 6.74707L8.71942 6.59301L8.63394 6.43895L8.54733 6.29028L8.46072 6.14161L8.39307 6.03022L8.32542 5.91882L8.27117 5.83226L8.21692 5.7457L8.15413 5.64883L8.11563 5.58944C8.10032 5.56581 8.0749 5.55064 8.04683 5.54837L8.00233 5.54477L7.87681 5.5368L7.75129 5.52883L7.60975 5.52172L7.4682 5.51461H6.99551H6.52281L6.38127 5.52172L6.23973 5.52883L6.11421 5.5368L5.98869 5.54477L5.94596 5.54827C5.91896 5.55048 5.89445 5.56489 5.87938 5.5874L5.87699 5.59096L5.85075 5.63016L5.75113 5.78696L5.65151 5.94377L5.56862 6.08132L5.48573 6.21887L5.42682 6.32066L5.36792 6.42245L5.29216 6.55928L5.2164 6.6961L5.15326 6.81512L5.09012 6.93413L5.02842 7.05518L4.96672 7.17622L4.88818 7.33929C4.83857 7.44229 4.8388 7.56232 4.88881 7.66512L4.9083 7.70517L5.00696 7.90799L5.06985 8.02904L5.13274 8.15008L5.20244 8.27938L5.27213 8.40868L5.34523 8.53797L5.41833 8.66727L5.47858 8.76906L5.53883 8.87085L5.60575 8.98089L5.67268 9.09093L5.78795 9.26974L5.90321 9.44856L5.90619 9.45265C5.90807 9.45524 5.91101 9.45685 5.91421 9.45705L6.0424 9.46483L6.17563 9.47292L6.32786 9.47883L6.48008 9.48474L6.52548 9.48647L6.57088 9.4882L7.05426 9.48673ZM6.99101 8.59227L6.91272 8.59155L6.86999 8.58658L6.82726 8.58161L6.76583 8.56761L6.70441 8.55361L6.65872 8.53801L6.61303 8.5224L6.55991 8.49831L6.50679 8.47422L6.45469 8.44263L6.4026 8.41105L6.35008 8.3703L6.29756 8.32954L6.24687 8.27832L6.19618 8.22711L6.16232 8.18309L6.12846 8.13908L6.09675 8.08956L6.06504 8.04004L6.03385 7.97402L6.00266 7.90799L5.98597 7.85847L5.96928 7.80896L5.95656 7.75669L5.94385 7.70442L5.9352 7.64389C5.92944 7.6036 5.92655 7.56294 5.92655 7.52224V7.48984V7.45744C5.92655 7.41673 5.92944 7.37608 5.9352 7.33578L5.94385 7.27526L5.95656 7.22299L5.96928 7.17072L5.9861 7.1212L6.00292 7.07168L6.03395 7.00566L6.06498 6.93964L6.09672 6.89012L6.12846 6.8406L6.16045 6.79926L6.19245 6.75792L6.23601 6.71305L6.27957 6.66817L6.319 6.63498L6.35843 6.60179L6.4059 6.5691L6.45337 6.5364L6.51747 6.50323L6.58156 6.47006L6.64299 6.44836L6.70441 6.42667L6.75248 6.41514L6.80055 6.40361L6.86359 6.39515L6.92662 6.38668H6.99445H7.06227L7.11034 6.39222L7.15841 6.39775L7.2145 6.40921L7.27058 6.42066L7.33467 6.44251L7.39877 6.46437L7.4633 6.49656C7.50627 6.51799 7.54766 6.54246 7.58715 6.56978L7.59149 6.57278L7.65515 6.61681L7.70384 6.66078L7.75253 6.70475L7.79498 6.75424L7.83743 6.80373L7.87181 6.85383L7.90618 6.90392L7.93358 6.95571L7.96098 7.00749L7.98234 7.0588L8.0037 7.11011L8.01813 7.15688L8.03257 7.20364L8.04541 7.26692L8.05824 7.33019L8.06469 7.41084L8.06479 7.41208C8.06901 7.46494 8.06895 7.51804 8.06459 7.57088L8.05804 7.65027L8.045 7.71506L8.03196 7.77985L8.01004 7.84619L7.98812 7.91254L7.9648 7.96249L7.94148 8.01244L7.91759 8.05409L7.8937 8.09574L7.85418 8.15037L7.81467 8.20501L7.77056 8.25295L7.72646 8.3009L7.67745 8.34175L7.62844 8.3826L7.58304 8.41365L7.53764 8.44469L7.48156 8.47416L7.42547 8.50363L7.37335 8.52362L7.32122 8.5436L7.26118 8.55949L7.20114 8.57539L7.13522 8.58415L7.0693 8.5929L6.99101 8.59227ZM5.23672 9.39562C5.24405 9.39591 5.24875 9.3879 5.24492 9.38164L5.17181 9.26211L5.08975 9.12794L5.00197 8.97738L4.9142 8.82683L4.83652 8.68653L4.75884 8.54622L4.69759 8.43068L4.63634 8.31514L4.58936 8.22298L4.54406 8.13411C4.54303 8.13209 4.54095 8.13082 4.53869 8.13082C4.53646 8.13082 4.53445 8.13218 4.53363 8.13426L4.48642 8.25324L4.43785 8.37566L4.40069 8.4747L4.36353 8.57373L4.31945 8.69753L4.27538 8.82133L4.21243 9.01665L4.15329 9.20014C4.15115 9.20678 4.15457 9.21393 4.16108 9.21643C4.1688 9.2194 4.17675 9.22173 4.18486 9.22339L4.31689 9.25041L4.4611 9.27993L4.62401 9.30765L4.78692 9.33538L4.92312 9.35489L5.05932 9.37441L5.13944 9.38468L5.21955 9.39495L5.23672 9.39562ZM8.76605 9.38528H8.77934L8.91961 9.36593L9.05989 9.34657L9.18006 9.327L9.30024 9.30743L9.41775 9.28557L9.53525 9.26372L9.64208 9.24145L9.7489 9.21918L9.80413 9.20637L9.85495 9.19459C9.85782 9.19392 9.86044 9.19244 9.8625 9.19032C9.86444 9.18833 9.86511 9.18542 9.86425 9.18278L9.82405 9.05922L9.78244 8.93137L9.73443 8.79657L9.68642 8.66177L9.62901 8.51321L9.57161 8.36466L9.51894 8.23674L9.46739 8.11151C9.46673 8.10989 9.46512 8.10887 9.46338 8.10895C9.46159 8.10904 9.45998 8.11009 9.45918 8.1117L9.42647 8.1777L9.39247 8.24631L9.30803 8.4058L9.2236 8.56529L9.14487 8.70714L9.06614 8.84898L8.98334 8.99204L8.90055 9.13509L8.82666 9.25767L8.7541 9.37803C8.75323 9.37948 8.75277 9.38115 8.75277 9.38284C8.75277 9.38427 8.75393 9.38542 8.75536 9.3854L8.76605 9.38528ZM3.64318 9.08101C3.64923 9.08035 3.65431 9.07617 3.65611 9.07036L3.69491 8.94513L3.73667 8.81033L3.78559 8.66728L3.8345 8.52422L3.88269 8.39218L3.93087 8.26013L3.98575 8.11983L4.04063 7.97953L4.09676 7.84472L4.15289 7.70993L4.19847 7.60632L4.20126 7.59996C4.22852 7.53799 4.22849 7.46743 4.20117 7.40549L4.1583 7.30828L4.09416 7.15422L4.03002 7.00016L3.96435 6.8296L3.89869 6.65904L3.84949 6.52149L3.80029 6.38394L3.73144 6.17087L3.66528 5.96612C3.6635 5.9606 3.66259 5.95484 3.66259 5.94904C3.66259 5.94468 3.65839 5.94156 3.65421 5.94282L3.65324 5.94311L3.6439 5.94594L3.54509 5.97628L3.44627 6.00663L3.35814 6.03634L3.27001 6.06605L3.1712 6.1031L3.07239 6.14016L2.96806 6.18339L2.86374 6.22662L2.76243 6.27398L2.66111 6.32135L2.55429 6.37793L2.44747 6.43452L2.37622 6.47701L2.30498 6.5195L2.23808 6.56325L2.17117 6.607L2.10101 6.65876L2.03085 6.71052L1.98208 6.7508L1.93331 6.79109L1.86724 6.85281L1.80118 6.91453L1.75311 6.9701L1.70504 7.02566L1.66759 7.07713L1.63013 7.12859L1.60366 7.17442L1.57718 7.22025L1.55688 7.26874L1.53657 7.31723L1.52466 7.35952C1.51676 7.38758 1.51281 7.4166 1.51291 7.44575L1.51308 7.4926L1.51323 7.53175C1.51335 7.566 1.51834 7.60005 1.52804 7.6329C1.53778 7.66586 1.54995 7.69806 1.56445 7.72923L1.57169 7.74481L1.60071 7.8072L1.63455 7.86035L1.66839 7.9135L1.71334 7.97127L1.75829 8.02904L1.83315 8.10631L1.908 8.18357L1.97448 8.24056L2.04096 8.29756L2.1005 8.34294L2.16004 8.38832L2.23165 8.43752L2.30325 8.48672L2.38337 8.53623L2.46349 8.58575L2.55133 8.6343L2.63917 8.68286L2.72696 8.72624L2.81475 8.76962L2.88482 8.80155L2.95488 8.83348L3.035 8.86679L3.11512 8.90011L3.19257 8.93006L3.27001 8.96001L3.35013 8.98851L3.43025 9.01701L3.53173 9.04956L3.62367 9.07904C3.62996 9.08106 3.63661 9.08173 3.64318 9.08101ZM10.3818 9.05225C10.3943 9.04989 10.4065 9.04665 10.4185 9.04255L10.5581 8.99487L10.7157 8.94104L10.8252 8.8983L10.9346 8.85555L11.0403 8.80941L11.146 8.76326L11.2478 8.71412L11.3497 8.66498L11.4466 8.61175L11.5435 8.55853L11.637 8.50082L11.7305 8.4431L11.8053 8.39065L11.88 8.33819L11.9418 8.28981L12.0035 8.24142L12.062 8.18952L12.1204 8.13763L12.1875 8.06683L12.2547 7.99603L12.297 7.941L12.3394 7.88598L12.3667 7.84197L12.3941 7.79795L12.4165 7.75202L12.4388 7.70608L12.4569 7.65023L12.4597 7.64183C12.4699 7.61027 12.477 7.57779 12.481 7.54486L12.4824 7.53375C12.4854 7.50822 12.4858 7.48243 12.4834 7.45683C12.481 7.43119 12.4767 7.40576 12.4705 7.38074L12.4672 7.36694C12.4588 7.33277 12.4472 7.2995 12.4324 7.26759L12.4278 7.25786L12.4011 7.20016L12.3671 7.14692L12.3332 7.09369L12.2997 7.05048L12.2663 7.00727L12.2067 6.94374L12.1471 6.88021L12.0857 6.82536L12.0243 6.7705L11.9495 6.71267L11.8747 6.65484L11.7999 6.60416L11.7251 6.55348L11.653 6.50946L11.5809 6.46544L11.4931 6.41692L11.4054 6.36841L11.3276 6.33012L11.2498 6.29184L11.1777 6.2589L11.1056 6.22597L11.0091 6.18553L10.9125 6.1451L10.8034 6.10438L10.6943 6.06366L10.6115 6.03557L10.5287 6.00749L10.4409 5.97976L10.3594 5.95401C10.3552 5.9527 10.3509 5.95202 10.3465 5.95202C10.3426 5.95202 10.3391 5.95458 10.3379 5.95832L10.3015 6.07445L10.2632 6.19687L10.2189 6.32616L10.1746 6.45546L10.1336 6.56825L10.0926 6.68104L10.0268 6.84885L9.96103 7.01666L9.90721 7.14463L9.85339 7.2726L9.80465 7.383L9.80284 7.3871C9.77299 7.45472 9.77345 7.53187 9.8041 7.59913L9.85229 7.70486L9.91479 7.85044L9.97729 7.99603L10.0377 8.14555L10.098 8.29507L10.1419 8.4124L10.1857 8.52972L10.2248 8.63976L10.2638 8.7498L10.3135 8.9028L10.3573 9.0377C10.3606 9.04805 10.3711 9.05428 10.3818 9.05225ZM4.53839 6.8763C4.54014 6.87621 4.54171 6.87519 4.54249 6.87362L4.5706 6.81724L4.59997 6.75833L4.67662 6.61236L4.75326 6.46639L4.8417 6.30683L4.93014 6.14728L5.0167 5.99872L5.10326 5.85017L5.17318 5.736L5.23611 5.63323C5.23917 5.62824 5.23558 5.62183 5.22973 5.62183C5.22083 5.62183 5.21194 5.62248 5.20313 5.62377L5.04798 5.64656L4.87961 5.67128L4.7514 5.69338L4.62319 5.71549L4.53413 5.73228L4.44508 5.74908L4.30354 5.77952L4.16496 5.80932C4.16303 5.80974 4.16125 5.81071 4.15984 5.81211C4.15852 5.81342 4.15804 5.81537 4.15859 5.81715L4.18891 5.91474L4.22013 6.01523L4.26656 6.15278L4.313 6.29033L4.35699 6.41137L4.40097 6.53242L4.46237 6.68923L4.52377 6.84603L4.52966 6.86116L4.53452 6.87365C4.53514 6.87524 4.53668 6.87629 4.53839 6.8763ZM9.45852 6.8763C9.46056 6.87638 9.46242 6.87517 9.46317 6.87329L9.50212 6.77602L9.54232 6.67561L9.57992 6.57857L9.61751 6.48152L9.66915 6.33923L9.72078 6.19694L9.78213 6.00814L9.84266 5.82185C9.84316 5.82032 9.84274 5.81864 9.84159 5.81752C9.84035 5.81632 9.83881 5.81549 9.83713 5.81513L9.70083 5.78526L9.56196 5.75484L9.4311 5.72979L9.30024 5.70474L9.18807 5.68579L9.07591 5.66683L8.91685 5.64365L8.76154 5.62102C8.75918 5.62067 8.7568 5.62148 8.75514 5.62319C8.75359 5.6248 8.75331 5.62725 8.75447 5.62916L8.83732 5.76594L8.92214 5.90597L9.00477 6.0487L9.0874 6.19143L9.16511 6.33174L9.24281 6.47204L9.31473 6.60684L9.38665 6.74164L9.42089 6.80895L9.4536 6.87323C9.45454 6.87509 9.45644 6.87627 9.45852 6.8763ZM9.97714 5.30771C9.97933 5.30805 9.98142 5.30663 9.98191 5.30446L9.98384 5.29594L9.98664 5.28356L10.0024 5.21478L10.0181 5.14601L10.0421 5.02221L10.0661 4.89842L10.0823 4.79663L10.0985 4.69484L10.1117 4.59305L10.125 4.49127L10.1358 4.37022L10.1465 4.24918L10.1527 4.11713L10.159 3.98508L10.1556 3.84478L10.1522 3.70448L10.1442 3.61182L10.1362 3.51915L10.1254 3.44253L10.1145 3.3659L10.1036 3.30961L10.0928 3.25331L10.0794 3.19855L10.066 3.14378L10.0497 3.09126L10.0334 3.03873L10.0123 2.98371L9.99113 2.92869L9.96489 2.87714L9.93865 2.8256L9.90954 2.78052L9.90909 2.77983C9.89001 2.75029 9.86862 2.72231 9.84511 2.69616L9.83779 2.68801C9.81916 2.66729 9.79871 2.64828 9.77668 2.63122L9.7755 2.63031C9.75425 2.61386 9.73157 2.59936 9.70771 2.58698C9.68387 2.57461 9.65891 2.56452 9.63316 2.55683L9.62756 2.55516C9.59807 2.54636 9.56792 2.53994 9.5374 2.53599L9.53032 2.53507C9.49509 2.5305 9.45954 2.52894 9.42405 2.53041L9.39682 2.53153L9.31626 2.53486L9.25217 2.54631L9.18807 2.55776L9.11864 2.57649L9.0492 2.59523L8.97152 2.62258L8.89383 2.64994L8.81662 2.68385L8.73941 2.71777L8.64861 2.764L8.55781 2.81022L8.47235 2.86057L8.38689 2.91092L8.31479 2.95769L8.24268 3.00446L8.15722 3.06522L8.07176 3.12597L7.9863 3.19188L7.90084 3.25778L7.81805 3.32675L7.73526 3.39572L7.66196 3.46087L7.58865 3.52601L7.52042 3.58983L7.45218 3.65366L7.40812 3.69761L7.36551 3.7401C7.36458 3.74103 7.36405 3.74229 7.36405 3.74362C7.36405 3.74494 7.36454 3.74622 7.36542 3.74721L7.42424 3.81311L7.48443 3.88054L7.55919 3.96857L7.63395 4.05661L7.71434 4.15564L7.79472 4.25468L7.88018 4.36472L7.96564 4.47476L8.03535 4.5683L8.10506 4.66183L8.1875 4.77737L8.26994 4.89291L8.32229 4.9686L8.36797 5.03465C8.37225 5.04084 8.37874 5.04515 8.3861 5.04669L8.39757 5.04909L8.4857 5.05794L8.57383 5.06678L8.71003 5.08327L8.84624 5.09976L9.01448 5.12442L9.18273 5.14909L9.32695 5.17396L9.47116 5.19883L9.68214 5.24251L9.89311 5.2862L9.93317 5.29665L9.97323 5.30711L9.97714 5.30771ZM4.02947 5.29956L4.03915 5.29717L4.14864 5.273L4.25814 5.24883L4.38633 5.22368L4.51452 5.19854L4.65876 5.17375L4.80301 5.14895L4.97122 5.12435L5.13944 5.09975L5.25694 5.08549L5.37445 5.07122L5.49619 5.05859L5.61134 5.04664C5.61557 5.0462 5.61947 5.04417 5.62226 5.04096L5.6266 5.03596L5.70577 4.92317L5.78494 4.81038L5.86773 4.69759L5.95052 4.5848L6.03837 4.47014L6.12622 4.35548L6.2179 4.2418L6.30959 4.12813L6.38377 4.0401L6.45794 3.95206L6.52773 3.87228L6.59751 3.7925L6.62037 3.76704C6.6331 3.75286 6.63222 3.73113 6.61838 3.71804L6.55899 3.6618L6.47474 3.58203L6.40263 3.51748L6.33053 3.45292L6.25575 3.38979L6.18097 3.32665L6.07682 3.24572L5.97267 3.1648L5.8928 3.1076L5.81294 3.05039L5.72723 2.99437L5.64151 2.93834L5.55605 2.88776L5.47059 2.83718L5.35843 2.78042L5.24626 2.72367L5.17415 2.6931L5.10205 2.66253L5.02199 2.63448L4.94193 2.60642L4.85641 2.58486L4.77089 2.5633L4.71481 2.5546L4.65873 2.54591L4.58128 2.54267L4.55494 2.54157C4.52093 2.54015 4.48686 2.54159 4.45309 2.54588L4.40235 2.55231L4.35962 2.56345C4.3312 2.57086 4.30359 2.58107 4.2772 2.59394L4.26882 2.59802L4.26772 2.59856C4.23652 2.61377 4.2073 2.63273 4.18069 2.65502L4.1676 2.66599C4.14966 2.68102 4.13314 2.69767 4.11826 2.71573L4.09588 2.74288L4.07186 2.77828L4.04783 2.81369L4.0265 2.85246L4.00517 2.89124L3.98084 2.94992L3.95651 3.0086L3.93729 3.06768L3.91808 3.12676L3.90009 3.20379L3.88209 3.28082L3.87125 3.34684L3.8604 3.41286L3.85266 3.47614L3.84492 3.53941L3.83831 3.62469L3.8317 3.70997L3.83176 3.88879L3.83181 4.06761L3.83814 4.16114L3.84447 4.25467L3.85513 4.36196L3.86579 4.46925L3.87669 4.55178L3.88759 4.63431L3.90632 4.74986L3.92506 4.8654L3.94911 4.98644L3.97316 5.10749L3.9942 5.19827L4.01524 5.28905L4.01752 5.2955C4.01882 5.29916 4.02268 5.30124 4.02645 5.30031L4.02947 5.29956ZM6.3105 4.99694L6.33053 4.99473L6.4961 4.9892L6.66168 4.98367H6.9968L7.33192 4.98368L7.49354 4.98914L7.65515 4.99459L7.68089 4.99718L7.70139 4.99924C7.70384 4.99948 7.70573 4.9971 7.70493 4.99477C7.70379 4.99146 7.70215 4.98836 7.70005 4.98556L7.60086 4.85331L7.4985 4.71684L7.4089 4.60405L7.3193 4.49125L7.24364 4.40047L7.16799 4.30969L7.11566 4.24916L7.06332 4.18864L7.03259 4.15402C7.01628 4.13565 6.98755 4.13575 6.97136 4.15424L6.91298 4.22095L6.82411 4.32249L6.73557 4.42888L6.64703 4.53527L6.55822 4.64723L6.4694 4.75918L6.37993 4.8777L6.29135 4.99504C6.29078 4.9958 6.29047 4.99673 6.29047 4.99768C6.29047 4.99846 6.29115 4.99907 6.29192 4.99898L6.3105 4.99694Z"/>
</mask>
<path d="M9.42042 12.9993L9.34831 12.9985L9.33229 12.9966L9.31626 12.9947L9.25751 12.9886L9.19876 12.9826L9.12727 12.9691L9.05578 12.9556L8.98573 12.9369L8.91567 12.9182L8.83883 12.8927L8.76198 12.8672L8.66791 12.8285L8.57383 12.7898L8.48008 12.7446L8.38633 12.6995L8.29072 12.6456L8.1951 12.5917L8.12809 12.5502L8.06108 12.5087L7.9596 12.4401L7.85811 12.3715L7.79402 12.3243L7.72992 12.2772L7.66838 12.2295L7.60684 12.1819L7.5215 12.1114L7.43616 12.041L7.3458 11.9609L7.25544 11.8809L7.19358 11.8229L7.13172 11.7649L7.07734 11.7113L7.0257 11.6603C7.02394 11.6586 7.02157 11.6576 7.0191 11.6576C7.01663 11.6576 7.01427 11.6586 7.01251 11.6603L6.96665 11.7059L6.91806 11.7541L6.8326 11.8333L6.74714 11.9125L6.65003 11.996L6.55292 12.0795L6.46309 12.1507L6.37326 12.2219L6.29581 12.2793L6.21836 12.3366L6.10353 12.4144L5.98869 12.4921L5.92994 12.5279L5.87118 12.5637L5.79291 12.6083L5.71464 12.6529L5.64603 12.6883L5.57742 12.7236L5.48662 12.765L5.39581 12.8064L5.30073 12.8429L5.20564 12.8793L5.12431 12.9038L5.04298 12.9283L4.9737 12.9445L4.90442 12.9606L4.83766 12.9719L4.77089 12.9833L4.70254 12.9897L4.63419 12.9961L4.52094 12.9931L4.47552 12.992C4.43037 12.9908 4.38537 12.9862 4.34093 12.9781L4.27416 12.966L4.21124 12.9474L4.14833 12.9287L4.09186 12.9039L4.03539 12.8791L3.98629 12.8493L3.93719 12.8195L3.89203 12.7853C3.86196 12.7626 3.83371 12.7375 3.80752 12.7104L3.78248 12.6844L3.7181 12.6177L3.68442 12.5719L3.65074 12.526L3.6161 12.4701L3.58146 12.4141L3.54239 12.3316L3.50331 12.2491L3.48378 12.1973L3.46425 12.1455L3.44319 12.0785L3.42213 12.0116L3.40147 11.9268L3.38081 11.8419L3.36682 11.7622L3.35284 11.6824L3.34245 11.5971L3.33206 11.5118L3.32507 11.432L3.31808 11.3523L3.31818 11.1074L3.31827 10.8626L3.32516 10.7718L3.33204 10.681L3.34263 10.5765L3.35322 10.4719L3.36656 10.3729L3.3799 10.2739L3.39822 10.1638L3.41655 10.0538L3.43576 9.95475L3.45496 9.85571L3.48388 9.72674L3.51233 9.59981C3.51262 9.59854 3.51224 9.5972 3.51133 9.59626C3.51037 9.59527 3.50918 9.59453 3.50787 9.59412L3.39796 9.55911L3.28605 9.52346L3.18457 9.4879L3.08308 9.45234L3.01752 9.42711L2.95197 9.40189L2.85729 9.3626L2.76261 9.32331L2.67181 9.28221L2.58101 9.24111L2.46884 9.18415L2.35668 9.12719L2.2819 9.08512L2.20712 9.04306L2.12167 8.99049L2.03621 8.93792L1.94832 8.87765L1.86044 8.81739L1.78974 8.76296L1.71903 8.70854L1.66664 8.66412L1.61425 8.61969L1.53638 8.5458L1.4585 8.47191L1.40133 8.40676L1.34416 8.3416L1.30381 8.28986L1.26346 8.23812L1.21355 8.16109L1.16364 8.08406L1.13152 8.02079L1.09941 7.95751L1.07538 7.89584L1.05135 7.83417L1.0352 7.7748L1.01905 7.71542L1.00955 7.66591C1.00323 7.63297 1.00005 7.5995 1.00004 7.56597L1.00003 7.48984L1.00001 7.42776C1 7.38488 1.00413 7.34211 1.01233 7.30002L1.02467 7.23675L1.04938 7.15991L1.07409 7.08307L1.1153 6.9976L1.15651 6.91213L1.20458 6.83785L1.25265 6.76357L1.29991 6.70305L1.34716 6.64253L1.42729 6.55786L1.50741 6.47319L1.58379 6.40548L1.66016 6.33777L1.73067 6.28307L1.80118 6.22836L1.87596 6.17622L1.95074 6.12408L2.00949 6.0868L2.06824 6.04952L2.14302 6.00567L2.2178 5.96183L2.31394 5.9105L2.41008 5.85917L2.49287 5.81968L2.57566 5.78019L2.66646 5.74034L2.75726 5.70048L2.87476 5.65345L2.99227 5.60643L3.14984 5.55177L3.3074 5.49711L3.41289 5.46497L3.51101 5.43508C3.51539 5.43374 3.51838 5.4297 3.51838 5.42512C3.51838 5.42 3.51776 5.4149 3.51653 5.40993L3.50765 5.37411L3.49691 5.33081L3.47062 5.20813L3.44433 5.08546L3.42805 4.99743L3.41178 4.90939L3.39314 4.7911L3.3745 4.67281L3.36128 4.56552L3.34805 4.45823L3.33983 4.36469L3.3316 4.27116L3.32641 4.18038L3.32121 4.08959L3.31782 3.97955L3.31444 3.86951L3.32035 3.72774L3.32627 3.58596L3.3342 3.50215L3.34214 3.41835L3.35306 3.34132L3.36398 3.26429L3.37444 3.20751L3.38489 3.15073L3.40099 3.08096L3.41708 3.0112L3.4416 2.93142L3.46612 2.85164L3.49274 2.78286L3.51936 2.71409L3.55332 2.64531L3.58728 2.57654L3.62933 2.51051L3.67138 2.44449L3.70378 2.40322L3.73619 2.36196L3.79153 2.30677L3.84686 2.25159L3.87991 2.22556L3.91296 2.19953L3.95736 2.17112L4.00176 2.14271L4.05004 2.11911L4.09833 2.0955L4.16221 2.07356L4.22609 2.05161L4.29286 2.03789L4.35962 2.02417L4.42105 2.0184L4.48247 2.01262H4.54656H4.61066L4.67475 2.01825L4.73885 2.02389L4.80561 2.03488L4.87238 2.04587L4.93349 2.05996L4.9946 2.07405L5.06792 2.0954L5.14124 2.11674L5.22395 2.14704L5.30666 2.17734L5.39664 2.21657L5.48662 2.2558L5.57742 2.30169L5.66822 2.34758L5.74194 2.38926L5.81566 2.43094L5.89683 2.48116L5.97801 2.53138L6.0547 2.583L6.1314 2.63461L6.21227 2.69315L6.29314 2.75169L6.36792 2.8096L6.44269 2.86751L6.50679 2.91986L6.57088 2.97222L6.63765 3.02976L6.70441 3.08731L6.78453 3.16006L6.86465 3.23283L6.93396 3.29919L6.95689 3.32115C6.98268 3.34585 7.02347 3.34546 7.04879 3.32027L7.09432 3.27499L7.15574 3.21702L7.21717 3.15905L7.28393 3.09875L7.3507 3.03845L7.41212 2.98596L7.47355 2.93347L7.54053 2.87849L7.60751 2.82351L7.6794 2.76826L7.75129 2.71301L7.81647 2.66534L7.88165 2.61767L7.96602 2.56089L8.0504 2.50411L8.13052 2.4546L8.21063 2.4051L8.28007 2.36587L8.3495 2.32664L8.459 2.27178L8.56849 2.21693L8.6406 2.18678L8.71271 2.15663L8.77962 2.13175L8.84653 2.10686L8.92307 2.08402L8.99962 2.06118L9.07198 2.0448L9.14434 2.02843L9.21695 2.01754L9.28956 2.00665L9.39104 2.00333L9.49252 2L9.55662 2.00644L9.62071 2.01289L9.68559 2.02637L9.75046 2.03985L9.80844 2.05931C9.84704 2.07227 9.88467 2.08795 9.92104 2.10625L9.92586 2.10867L9.98531 2.13856L10.0407 2.17689L10.0961 2.21521L10.1477 2.26229L10.1994 2.30938L10.2446 2.36405L10.2899 2.41871L10.3245 2.47008L10.3591 2.52144L10.3921 2.58051L10.425 2.63958L10.4467 2.6878L10.4684 2.73602L10.4972 2.81166L10.526 2.8873L10.5497 2.96926L10.5735 3.05122L10.5923 3.13846L10.6112 3.2257L10.6245 3.31098L10.6379 3.39626L10.646 3.47329L10.6542 3.55032L10.6595 3.61909L10.6649 3.68787L10.6683 3.83918L10.6718 3.99048L10.6654 4.13078L10.6591 4.27108L10.6511 4.36737L10.6432 4.46365L10.6324 4.55994L10.6216 4.65622L10.6083 4.74976L10.5951 4.84329L10.5788 4.93958L10.5626 5.03586L10.5388 5.15691L10.5149 5.27795L10.4964 5.35722L10.4785 5.43361C10.4781 5.4354 10.4786 5.43728 10.4799 5.4386C10.4813 5.43998 10.4829 5.44101 10.4848 5.44159L10.5881 5.47388L10.6943 5.50706L10.8038 5.5447L10.9133 5.58233L11.0288 5.62667L11.1443 5.671L11.2584 5.72009L11.3726 5.76918L11.4447 5.80329L11.5168 5.83739L11.6237 5.89251L11.7305 5.94763L11.7892 5.98095L11.848 6.01426L11.9201 6.05829L11.9922 6.10231L12.0759 6.15866L12.1596 6.21501L12.2415 6.27787L12.3234 6.34074L12.3794 6.38897L12.4355 6.43719L12.5019 6.50131L12.5683 6.56543L12.6302 6.63695L12.6921 6.70848L12.7384 6.77214L12.7848 6.8358L12.8235 6.90144L12.8621 6.96707L12.8908 7.02911L12.9194 7.09116L12.9429 7.16391L12.9664 7.23667L12.9772 7.29169L12.988 7.34671L12.994 7.41274L12.9948 7.42112C12.9982 7.45949 12.9988 7.49808 12.9964 7.53653L12.9928 7.5943L12.9825 7.65727L12.9721 7.72025L12.9559 7.77805L12.9397 7.83585L12.913 7.90287L12.8862 7.9699L12.8511 8.03519L12.816 8.10049L12.776 8.16101L12.736 8.22153L12.7062 8.26005L12.6764 8.29856L12.6302 8.35358L12.584 8.4086L12.5094 8.48288L12.4349 8.55716L12.3738 8.6101L12.3127 8.66304L12.2348 8.72355L12.1569 8.78405L12.0772 8.83888L11.9976 8.89371L11.9228 8.94047L11.848 8.98723L11.7738 9.02994L11.6996 9.07265L11.5788 9.13488L11.4581 9.19711L11.3806 9.23278L11.3032 9.26845L11.2135 9.30756L11.1238 9.34666L11.0079 9.39148L10.8919 9.43629L10.7798 9.47598L10.6676 9.51568L10.5901 9.53944L10.5177 9.56166C10.5144 9.56267 10.5113 9.56436 10.5087 9.56661C10.5063 9.56871 10.5052 9.57199 10.5059 9.57513L10.531 9.68807L10.5573 9.80612L10.5761 9.90515L10.595 10.0042L10.611 10.1032L10.6271 10.2023L10.6404 10.304L10.6538 10.4058L10.6594 10.4581L10.665 10.5104L10.6728 10.6039L10.6805 10.6974L10.6868 10.8295L10.6931 10.9615L10.6898 11.1156L10.6865 11.2697L10.6783 11.3728L10.6702 11.476L10.6621 11.5406L10.654 11.6053L10.6406 11.6851L10.6272 11.7648L10.6111 11.8391L10.5951 11.9134L10.5735 11.9904L10.552 12.0674L10.525 12.1417L10.4981 12.216L10.4719 12.2759L10.4457 12.3359L10.4155 12.3915L10.3853 12.4471L10.3495 12.5021L10.3137 12.5571L10.2861 12.5929L10.2585 12.6287L10.204 12.6857L10.1495 12.7427L10.1066 12.7774L10.0636 12.8121L10.0184 12.841L9.97323 12.8699L9.92495 12.8935L9.87666 12.9171L9.81278 12.9391L9.7489 12.961L9.68214 12.9747L9.61537 12.9884L9.55395 12.9942L9.49252 13L9.42042 12.9993ZM9.42323 12.4713L9.48212 12.4719L9.52738 12.4661L9.57264 12.4603L9.61537 12.4493C9.64378 12.442 9.67134 12.4317 9.69761 12.4186L9.70708 12.4139L9.70993 12.4125C9.74058 12.3973 9.76937 12.3785 9.79573 12.3567L9.79825 12.3546C9.82296 12.3341 9.84571 12.3114 9.86619 12.2867L9.89698 12.2495L9.92235 12.2108L9.94771 12.1721L9.97229 12.1252L9.99687 12.0784L10.0206 12.0201L10.0443 11.9619L10.0657 11.8936L10.0872 11.8254L10.1039 11.7552L10.1206 11.6849L10.1361 11.5901L10.1515 11.4953L10.1597 11.4146L10.168 11.3338L10.1741 11.2165L10.1802 11.0992L10.1769 10.9534L10.1736 10.8076L10.1681 10.7305L10.1626 10.6535L10.1545 10.5682L10.1464 10.4829L10.133 10.3812L10.1197 10.2794L10.1063 10.1968L10.093 10.1143L10.0794 10.04L10.0659 9.96575L10.0501 9.89147L10.0343 9.81719L10.0209 9.75911C10.0135 9.72704 9.98151 9.70703 9.94943 9.71442L9.92895 9.71914L9.85038 9.73726L9.69015 9.76996L9.52991 9.80266L9.40172 9.82491L9.27353 9.84716L9.16404 9.86404L9.05454 9.88091L8.88897 9.90235L8.72339 9.92379L8.61122 9.93563L8.49906 9.94748L8.44066 9.95386C8.40359 9.95792 8.37012 9.97792 8.34899 10.0086L8.2839 10.1033L8.18552 10.2464L8.06142 10.4169L7.93732 10.5875L7.8291 10.7269L7.72088 10.8663L7.62971 10.9773L7.53854 11.0882L7.45988 11.1789L7.38483 11.2656C7.3825 11.2683 7.38114 11.2717 7.38097 11.2752C7.38081 11.2787 7.38216 11.2821 7.38469 11.2845L7.44582 11.3434L7.51093 11.406L7.58037 11.4702L7.6498 11.5344L7.70856 11.5858L7.76731 11.6373L7.85789 11.7119L7.94848 11.7865L8.0395 11.8549L8.13051 11.9232L8.22933 11.9906L8.32814 12.058L8.3949 12.099L8.46167 12.14L8.52725 12.1771L8.59284 12.2143L8.67948 12.257L8.76612 12.2998L8.84624 12.333L8.92635 12.3662L9.00113 12.3911L9.07591 12.4161L9.11864 12.4271L9.16137 12.438L9.20677 12.4474L9.25217 12.4567L9.30825 12.4637L9.36433 12.4707L9.42323 12.4713ZM4.55612 12.4659L4.63511 12.4664L4.68698 12.4606L4.73885 12.4549L4.81716 12.4385L4.89546 12.4222L4.96694 12.4007L5.03842 12.3791L5.11029 12.3522L5.18217 12.3252L5.24359 12.2982L5.30501 12.2713L5.39849 12.2239L5.49196 12.1766L5.56673 12.1335L5.64151 12.0904L5.71896 12.0411L5.79641 11.9919L5.88719 11.9285L5.97797 11.8651L6.07146 11.7935L6.16495 11.7218L6.23171 11.6664L6.29848 11.611L6.38928 11.5308L6.48008 11.4506L6.52281 11.4102L6.56554 11.3698L6.61229 11.3232C6.63849 11.2971 6.63961 11.255 6.61485 11.2275L6.60393 11.2154L6.54881 11.1542L6.46632 11.0579L6.38383 10.9616L6.29797 10.8571L6.2121 10.7525L6.11333 10.626L6.01457 10.4994L5.92678 10.3811L5.83899 10.2629L5.77199 10.1693L5.70499 10.0758L5.66664 10.0202L5.65797 10.0076C5.6392 9.98045 5.6091 9.96325 5.57614 9.96088L5.524 9.95715L5.36377 9.94058L5.20353 9.92401L5.05398 9.90517L4.90442 9.88633L4.77356 9.86664L4.6427 9.84695L4.50116 9.82229L4.35962 9.79762L4.18666 9.76182L4.01631 9.72656C4.01469 9.72622 4.01301 9.72674 4.01185 9.72793C4.01064 9.72918 4.00979 9.73074 4.00939 9.73244L3.99156 9.80928L3.97313 9.88871L3.94839 10.0098L3.92365 10.1308L3.903 10.2573L3.88235 10.3839L3.86873 10.4912L3.85511 10.5985L3.84708 10.6893L3.83905 10.78L3.83366 10.8736L3.82827 10.9671L3.82822 11.1103L3.82817 11.2534L3.83363 11.3413L3.83909 11.4293L3.85001 11.5201L3.86092 11.6108L3.87418 11.6824L3.88745 11.7539L3.90554 11.8255L3.92364 11.8971L3.94328 11.9548L3.96293 12.0125L3.99702 12.0861L4.03111 12.1598L4.06169 12.2072C4.08205 12.2387 4.10514 12.2684 4.13071 12.2959L4.13515 12.3007L4.15097 12.3177C4.16896 12.337 4.18875 12.3546 4.21006 12.3701L4.21785 12.3758C4.234 12.3876 4.25104 12.3982 4.26882 12.4073C4.28659 12.4165 4.30508 12.4242 4.32409 12.4304L4.34092 12.4359L4.34259 12.4364C4.3717 12.4459 4.4015 12.4531 4.43172 12.458C4.46194 12.4629 4.4925 12.4654 4.52311 12.4657L4.55612 12.4659ZM7.01723 10.8928C7.02001 10.8928 7.02265 10.8916 7.02445 10.8895L7.11423 10.7842L7.20685 10.6755L7.2845 10.5792L7.36215 10.4829L7.44515 10.3756L7.52816 10.2684L7.62293 10.1391L7.70861 10.0222C7.71268 10.0166 7.70928 10.0087 7.70245 10.0079C7.69229 10.0066 7.68206 10.0062 7.67183 10.0065L7.51093 10.012L7.33467 10.018H6.98215H6.62963L6.46472 10.0123L6.30254 10.0067C6.3008 10.0066 6.29912 10.0073 6.2979 10.0086C6.29681 10.0097 6.2967 10.0115 6.29765 10.0127L6.38537 10.1287L6.47474 10.2469L6.54381 10.3347L6.61287 10.4225L6.69864 10.527L6.7844 10.6315L6.84829 10.7058L6.91217 10.7801L6.96251 10.8365L7.00993 10.8896C7.01178 10.8917 7.01445 10.8929 7.01723 10.8928ZM7.05426 9.48673L7.53764 9.48525L7.65248 9.47926L7.76731 9.47327L7.90885 9.46505L8.0504 9.45684L8.07462 9.45372C8.08995 9.45175 8.10358 9.44299 8.11174 9.42986L8.12342 9.41107L8.14799 9.37153L8.22246 9.25324L8.29693 9.13494L8.37171 9.01115L8.44649 8.88735L8.52945 8.7443L8.61241 8.60125L8.68458 8.47195L8.75676 8.34265L8.83162 8.20235L8.90647 8.06205L8.97382 7.93L9.04117 7.79795L9.11422 7.64736L9.14561 7.58265C9.17192 7.52839 9.172 7.46509 9.14582 7.41077L9.10438 7.32478L9.03188 7.18173L8.95939 7.03867L8.88214 6.89287L8.80489 6.74707L8.71942 6.59301L8.63394 6.43895L8.54733 6.29028L8.46072 6.14161L8.39307 6.03022L8.32542 5.91882L8.27117 5.83226L8.21692 5.7457L8.15413 5.64883L8.11563 5.58944C8.10032 5.56581 8.0749 5.55064 8.04683 5.54837L8.00233 5.54477L7.87681 5.5368L7.75129 5.52883L7.60975 5.52172L7.4682 5.51461H6.99551H6.52281L6.38127 5.52172L6.23973 5.52883L6.11421 5.5368L5.98869 5.54477L5.94596 5.54827C5.91896 5.55048 5.89445 5.56489 5.87938 5.5874L5.87699 5.59096L5.85075 5.63016L5.75113 5.78696L5.65151 5.94377L5.56862 6.08132L5.48573 6.21887L5.42682 6.32066L5.36792 6.42245L5.29216 6.55928L5.2164 6.6961L5.15326 6.81512L5.09012 6.93413L5.02842 7.05518L4.96672 7.17622L4.88818 7.33929C4.83857 7.44229 4.8388 7.56232 4.88881 7.66512L4.9083 7.70517L5.00696 7.90799L5.06985 8.02904L5.13274 8.15008L5.20244 8.27938L5.27213 8.40868L5.34523 8.53797L5.41833 8.66727L5.47858 8.76906L5.53883 8.87085L5.60575 8.98089L5.67268 9.09093L5.78795 9.26974L5.90321 9.44856L5.90619 9.45265C5.90807 9.45524 5.91101 9.45685 5.91421 9.45705L6.0424 9.46483L6.17563 9.47292L6.32786 9.47883L6.48008 9.48474L6.52548 9.48647L6.57088 9.4882L7.05426 9.48673ZM6.99101 8.59227L6.91272 8.59155L6.86999 8.58658L6.82726 8.58161L6.76583 8.56761L6.70441 8.55361L6.65872 8.53801L6.61303 8.5224L6.55991 8.49831L6.50679 8.47422L6.45469 8.44263L6.4026 8.41105L6.35008 8.3703L6.29756 8.32954L6.24687 8.27832L6.19618 8.22711L6.16232 8.18309L6.12846 8.13908L6.09675 8.08956L6.06504 8.04004L6.03385 7.97402L6.00266 7.90799L5.98597 7.85847L5.96928 7.80896L5.95656 7.75669L5.94385 7.70442L5.9352 7.64389C5.92944 7.6036 5.92655 7.56294 5.92655 7.52224V7.48984V7.45744C5.92655 7.41673 5.92944 7.37608 5.9352 7.33578L5.94385 7.27526L5.95656 7.22299L5.96928 7.17072L5.9861 7.1212L6.00292 7.07168L6.03395 7.00566L6.06498 6.93964L6.09672 6.89012L6.12846 6.8406L6.16045 6.79926L6.19245 6.75792L6.23601 6.71305L6.27957 6.66817L6.319 6.63498L6.35843 6.60179L6.4059 6.5691L6.45337 6.5364L6.51747 6.50323L6.58156 6.47006L6.64299 6.44836L6.70441 6.42667L6.75248 6.41514L6.80055 6.40361L6.86359 6.39515L6.92662 6.38668H6.99445H7.06227L7.11034 6.39222L7.15841 6.39775L7.2145 6.40921L7.27058 6.42066L7.33467 6.44251L7.39877 6.46437L7.4633 6.49656C7.50627 6.51799 7.54766 6.54246 7.58715 6.56978L7.59149 6.57278L7.65515 6.61681L7.70384 6.66078L7.75253 6.70475L7.79498 6.75424L7.83743 6.80373L7.87181 6.85383L7.90618 6.90392L7.93358 6.95571L7.96098 7.00749L7.98234 7.0588L8.0037 7.11011L8.01813 7.15688L8.03257 7.20364L8.04541 7.26692L8.05824 7.33019L8.06469 7.41084L8.06479 7.41208C8.06901 7.46494 8.06895 7.51804 8.06459 7.57088L8.05804 7.65027L8.045 7.71506L8.03196 7.77985L8.01004 7.84619L7.98812 7.91254L7.9648 7.96249L7.94148 8.01244L7.91759 8.05409L7.8937 8.09574L7.85418 8.15037L7.81467 8.20501L7.77056 8.25295L7.72646 8.3009L7.67745 8.34175L7.62844 8.3826L7.58304 8.41365L7.53764 8.44469L7.48156 8.47416L7.42547 8.50363L7.37335 8.52362L7.32122 8.5436L7.26118 8.55949L7.20114 8.57539L7.13522 8.58415L7.0693 8.5929L6.99101 8.59227ZM5.23672 9.39562C5.24405 9.39591 5.24875 9.3879 5.24492 9.38164L5.17181 9.26211L5.08975 9.12794L5.00197 8.97738L4.9142 8.82683L4.83652 8.68653L4.75884 8.54622L4.69759 8.43068L4.63634 8.31514L4.58936 8.22298L4.54406 8.13411C4.54303 8.13209 4.54095 8.13082 4.53869 8.13082C4.53646 8.13082 4.53445 8.13218 4.53363 8.13426L4.48642 8.25324L4.43785 8.37566L4.40069 8.4747L4.36353 8.57373L4.31945 8.69753L4.27538 8.82133L4.21243 9.01665L4.15329 9.20014C4.15115 9.20678 4.15457 9.21393 4.16108 9.21643C4.1688 9.2194 4.17675 9.22173 4.18486 9.22339L4.31689 9.25041L4.4611 9.27993L4.62401 9.30765L4.78692 9.33538L4.92312 9.35489L5.05932 9.37441L5.13944 9.38468L5.21955 9.39495L5.23672 9.39562ZM8.76605 9.38528H8.77934L8.91961 9.36593L9.05989 9.34657L9.18006 9.327L9.30024 9.30743L9.41775 9.28557L9.53525 9.26372L9.64208 9.24145L9.7489 9.21918L9.80413 9.20637L9.85495 9.19459C9.85782 9.19392 9.86044 9.19244 9.8625 9.19032C9.86444 9.18833 9.86511 9.18542 9.86425 9.18278L9.82405 9.05922L9.78244 8.93137L9.73443 8.79657L9.68642 8.66177L9.62901 8.51321L9.57161 8.36466L9.51894 8.23674L9.46739 8.11151C9.46673 8.10989 9.46512 8.10887 9.46338 8.10895C9.46159 8.10904 9.45998 8.11009 9.45918 8.1117L9.42647 8.1777L9.39247 8.24631L9.30803 8.4058L9.2236 8.56529L9.14487 8.70714L9.06614 8.84898L8.98334 8.99204L8.90055 9.13509L8.82666 9.25767L8.7541 9.37803C8.75323 9.37948 8.75277 9.38115 8.75277 9.38284C8.75277 9.38427 8.75393 9.38542 8.75536 9.3854L8.76605 9.38528ZM3.64318 9.08101C3.64923 9.08035 3.65431 9.07617 3.65611 9.07036L3.69491 8.94513L3.73667 8.81033L3.78559 8.66728L3.8345 8.52422L3.88269 8.39218L3.93087 8.26013L3.98575 8.11983L4.04063 7.97953L4.09676 7.84472L4.15289 7.70993L4.19847 7.60632L4.20126 7.59996C4.22852 7.53799 4.22849 7.46743 4.20117 7.40549L4.1583 7.30828L4.09416 7.15422L4.03002 7.00016L3.96435 6.8296L3.89869 6.65904L3.84949 6.52149L3.80029 6.38394L3.73144 6.17087L3.66528 5.96612C3.6635 5.9606 3.66259 5.95484 3.66259 5.94904C3.66259 5.94468 3.65839 5.94156 3.65421 5.94282L3.65324 5.94311L3.6439 5.94594L3.54509 5.97628L3.44627 6.00663L3.35814 6.03634L3.27001 6.06605L3.1712 6.1031L3.07239 6.14016L2.96806 6.18339L2.86374 6.22662L2.76243 6.27398L2.66111 6.32135L2.55429 6.37793L2.44747 6.43452L2.37622 6.47701L2.30498 6.5195L2.23808 6.56325L2.17117 6.607L2.10101 6.65876L2.03085 6.71052L1.98208 6.7508L1.93331 6.79109L1.86724 6.85281L1.80118 6.91453L1.75311 6.9701L1.70504 7.02566L1.66759 7.07713L1.63013 7.12859L1.60366 7.17442L1.57718 7.22025L1.55688 7.26874L1.53657 7.31723L1.52466 7.35952C1.51676 7.38758 1.51281 7.4166 1.51291 7.44575L1.51308 7.4926L1.51323 7.53175C1.51335 7.566 1.51834 7.60005 1.52804 7.6329C1.53778 7.66586 1.54995 7.69806 1.56445 7.72923L1.57169 7.74481L1.60071 7.8072L1.63455 7.86035L1.66839 7.9135L1.71334 7.97127L1.75829 8.02904L1.83315 8.10631L1.908 8.18357L1.97448 8.24056L2.04096 8.29756L2.1005 8.34294L2.16004 8.38832L2.23165 8.43752L2.30325 8.48672L2.38337 8.53623L2.46349 8.58575L2.55133 8.6343L2.63917 8.68286L2.72696 8.72624L2.81475 8.76962L2.88482 8.80155L2.95488 8.83348L3.035 8.86679L3.11512 8.90011L3.19257 8.93006L3.27001 8.96001L3.35013 8.98851L3.43025 9.01701L3.53173 9.04956L3.62367 9.07904C3.62996 9.08106 3.63661 9.08173 3.64318 9.08101ZM10.3818 9.05225C10.3943 9.04989 10.4065 9.04665 10.4185 9.04255L10.5581 8.99487L10.7157 8.94104L10.8252 8.8983L10.9346 8.85555L11.0403 8.80941L11.146 8.76326L11.2478 8.71412L11.3497 8.66498L11.4466 8.61175L11.5435 8.55853L11.637 8.50082L11.7305 8.4431L11.8053 8.39065L11.88 8.33819L11.9418 8.28981L12.0035 8.24142L12.062 8.18952L12.1204 8.13763L12.1875 8.06683L12.2547 7.99603L12.297 7.941L12.3394 7.88598L12.3667 7.84197L12.3941 7.79795L12.4165 7.75202L12.4388 7.70608L12.4569 7.65023L12.4597 7.64183C12.4699 7.61027 12.477 7.57779 12.481 7.54486L12.4824 7.53375C12.4854 7.50822 12.4858 7.48243 12.4834 7.45683C12.481 7.43119 12.4767 7.40576 12.4705 7.38074L12.4672 7.36694C12.4588 7.33277 12.4472 7.2995 12.4324 7.26759L12.4278 7.25786L12.4011 7.20016L12.3671 7.14692L12.3332 7.09369L12.2997 7.05048L12.2663 7.00727L12.2067 6.94374L12.1471 6.88021L12.0857 6.82536L12.0243 6.7705L11.9495 6.71267L11.8747 6.65484L11.7999 6.60416L11.7251 6.55348L11.653 6.50946L11.5809 6.46544L11.4931 6.41692L11.4054 6.36841L11.3276 6.33012L11.2498 6.29184L11.1777 6.2589L11.1056 6.22597L11.0091 6.18553L10.9125 6.1451L10.8034 6.10438L10.6943 6.06366L10.6115 6.03557L10.5287 6.00749L10.4409 5.97976L10.3594 5.95401C10.3552 5.9527 10.3509 5.95202 10.3465 5.95202C10.3426 5.95202 10.3391 5.95458 10.3379 5.95832L10.3015 6.07445L10.2632 6.19687L10.2189 6.32616L10.1746 6.45546L10.1336 6.56825L10.0926 6.68104L10.0268 6.84885L9.96103 7.01666L9.90721 7.14463L9.85339 7.2726L9.80465 7.383L9.80284 7.3871C9.77299 7.45472 9.77345 7.53187 9.8041 7.59913L9.85229 7.70486L9.91479 7.85044L9.97729 7.99603L10.0377 8.14555L10.098 8.29507L10.1419 8.4124L10.1857 8.52972L10.2248 8.63976L10.2638 8.7498L10.3135 8.9028L10.3573 9.0377C10.3606 9.04805 10.3711 9.05428 10.3818 9.05225ZM4.53839 6.8763C4.54014 6.87621 4.54171 6.87519 4.54249 6.87362L4.5706 6.81724L4.59997 6.75833L4.67662 6.61236L4.75326 6.46639L4.8417 6.30683L4.93014 6.14728L5.0167 5.99872L5.10326 5.85017L5.17318 5.736L5.23611 5.63323C5.23917 5.62824 5.23558 5.62183 5.22973 5.62183C5.22083 5.62183 5.21194 5.62248 5.20313 5.62377L5.04798 5.64656L4.87961 5.67128L4.7514 5.69338L4.62319 5.71549L4.53413 5.73228L4.44508 5.74908L4.30354 5.77952L4.16496 5.80932C4.16303 5.80974 4.16125 5.81071 4.15984 5.81211C4.15852 5.81342 4.15804 5.81537 4.15859 5.81715L4.18891 5.91474L4.22013 6.01523L4.26656 6.15278L4.313 6.29033L4.35699 6.41137L4.40097 6.53242L4.46237 6.68923L4.52377 6.84603L4.52966 6.86116L4.53452 6.87365C4.53514 6.87524 4.53668 6.87629 4.53839 6.8763ZM9.45852 6.8763C9.46056 6.87638 9.46242 6.87517 9.46317 6.87329L9.50212 6.77602L9.54232 6.67561L9.57992 6.57857L9.61751 6.48152L9.66915 6.33923L9.72078 6.19694L9.78213 6.00814L9.84266 5.82185C9.84316 5.82032 9.84274 5.81864 9.84159 5.81752C9.84035 5.81632 9.83881 5.81549 9.83713 5.81513L9.70083 5.78526L9.56196 5.75484L9.4311 5.72979L9.30024 5.70474L9.18807 5.68579L9.07591 5.66683L8.91685 5.64365L8.76154 5.62102C8.75918 5.62067 8.7568 5.62148 8.75514 5.62319C8.75359 5.6248 8.75331 5.62725 8.75447 5.62916L8.83732 5.76594L8.92214 5.90597L9.00477 6.0487L9.0874 6.19143L9.16511 6.33174L9.24281 6.47204L9.31473 6.60684L9.38665 6.74164L9.42089 6.80895L9.4536 6.87323C9.45454 6.87509 9.45644 6.87627 9.45852 6.8763ZM9.97714 5.30771C9.97933 5.30805 9.98142 5.30663 9.98191 5.30446L9.98384 5.29594L9.98664 5.28356L10.0024 5.21478L10.0181 5.14601L10.0421 5.02221L10.0661 4.89842L10.0823 4.79663L10.0985 4.69484L10.1117 4.59305L10.125 4.49127L10.1358 4.37022L10.1465 4.24918L10.1527 4.11713L10.159 3.98508L10.1556 3.84478L10.1522 3.70448L10.1442 3.61182L10.1362 3.51915L10.1254 3.44253L10.1145 3.3659L10.1036 3.30961L10.0928 3.25331L10.0794 3.19855L10.066 3.14378L10.0497 3.09126L10.0334 3.03873L10.0123 2.98371L9.99113 2.92869L9.96489 2.87714L9.93865 2.8256L9.90954 2.78052L9.90909 2.77983C9.89001 2.75029 9.86862 2.72231 9.84511 2.69616L9.83779 2.68801C9.81916 2.66729 9.79871 2.64828 9.77668 2.63122L9.7755 2.63031C9.75425 2.61386 9.73157 2.59936 9.70771 2.58698C9.68387 2.57461 9.65891 2.56452 9.63316 2.55683L9.62756 2.55516C9.59807 2.54636 9.56792 2.53994 9.5374 2.53599L9.53032 2.53507C9.49509 2.5305 9.45954 2.52894 9.42405 2.53041L9.39682 2.53153L9.31626 2.53486L9.25217 2.54631L9.18807 2.55776L9.11864 2.57649L9.0492 2.59523L8.97152 2.62258L8.89383 2.64994L8.81662 2.68385L8.73941 2.71777L8.64861 2.764L8.55781 2.81022L8.47235 2.86057L8.38689 2.91092L8.31479 2.95769L8.24268 3.00446L8.15722 3.06522L8.07176 3.12597L7.9863 3.19188L7.90084 3.25778L7.81805 3.32675L7.73526 3.39572L7.66196 3.46087L7.58865 3.52601L7.52042 3.58983L7.45218 3.65366L7.40812 3.69761L7.36551 3.7401C7.36458 3.74103 7.36405 3.74229 7.36405 3.74362C7.36405 3.74494 7.36454 3.74622 7.36542 3.74721L7.42424 3.81311L7.48443 3.88054L7.55919 3.96857L7.63395 4.05661L7.71434 4.15564L7.79472 4.25468L7.88018 4.36472L7.96564 4.47476L8.03535 4.5683L8.10506 4.66183L8.1875 4.77737L8.26994 4.89291L8.32229 4.9686L8.36797 5.03465C8.37225 5.04084 8.37874 5.04515 8.3861 5.04669L8.39757 5.04909L8.4857 5.05794L8.57383 5.06678L8.71003 5.08327L8.84624 5.09976L9.01448 5.12442L9.18273 5.14909L9.32695 5.17396L9.47116 5.19883L9.68214 5.24251L9.89311 5.2862L9.93317 5.29665L9.97323 5.30711L9.97714 5.30771ZM4.02947 5.29956L4.03915 5.29717L4.14864 5.273L4.25814 5.24883L4.38633 5.22368L4.51452 5.19854L4.65876 5.17375L4.80301 5.14895L4.97122 5.12435L5.13944 5.09975L5.25694 5.08549L5.37445 5.07122L5.49619 5.05859L5.61134 5.04664C5.61557 5.0462 5.61947 5.04417 5.62226 5.04096L5.6266 5.03596L5.70577 4.92317L5.78494 4.81038L5.86773 4.69759L5.95052 4.5848L6.03837 4.47014L6.12622 4.35548L6.2179 4.2418L6.30959 4.12813L6.38377 4.0401L6.45794 3.95206L6.52773 3.87228L6.59751 3.7925L6.62037 3.76704C6.6331 3.75286 6.63222 3.73113 6.61838 3.71804L6.55899 3.6618L6.47474 3.58203L6.40263 3.51748L6.33053 3.45292L6.25575 3.38979L6.18097 3.32665L6.07682 3.24572L5.97267 3.1648L5.8928 3.1076L5.81294 3.05039L5.72723 2.99437L5.64151 2.93834L5.55605 2.88776L5.47059 2.83718L5.35843 2.78042L5.24626 2.72367L5.17415 2.6931L5.10205 2.66253L5.02199 2.63448L4.94193 2.60642L4.85641 2.58486L4.77089 2.5633L4.71481 2.5546L4.65873 2.54591L4.58128 2.54267L4.55494 2.54157C4.52093 2.54015 4.48686 2.54159 4.45309 2.54588L4.40235 2.55231L4.35962 2.56345C4.3312 2.57086 4.30359 2.58107 4.2772 2.59394L4.26882 2.59802L4.26772 2.59856C4.23652 2.61377 4.2073 2.63273 4.18069 2.65502L4.1676 2.66599C4.14966 2.68102 4.13314 2.69767 4.11826 2.71573L4.09588 2.74288L4.07186 2.77828L4.04783 2.81369L4.0265 2.85246L4.00517 2.89124L3.98084 2.94992L3.95651 3.0086L3.93729 3.06768L3.91808 3.12676L3.90009 3.20379L3.88209 3.28082L3.87125 3.34684L3.8604 3.41286L3.85266 3.47614L3.84492 3.53941L3.83831 3.62469L3.8317 3.70997L3.83176 3.88879L3.83181 4.06761L3.83814 4.16114L3.84447 4.25467L3.85513 4.36196L3.86579 4.46925L3.87669 4.55178L3.88759 4.63431L3.90632 4.74986L3.92506 4.8654L3.94911 4.98644L3.97316 5.10749L3.9942 5.19827L4.01524 5.28905L4.01752 5.2955C4.01882 5.29916 4.02268 5.30124 4.02645 5.30031L4.02947 5.29956ZM6.3105 4.99694L6.33053 4.99473L6.4961 4.9892L6.66168 4.98367H6.9968L7.33192 4.98368L7.49354 4.98914L7.65515 4.99459L7.68089 4.99718L7.70139 4.99924C7.70384 4.99948 7.70573 4.9971 7.70493 4.99477C7.70379 4.99146 7.70215 4.98836 7.70005 4.98556L7.60086 4.85331L7.4985 4.71684L7.4089 4.60405L7.3193 4.49125L7.24364 4.40047L7.16799 4.30969L7.11566 4.24916L7.06332 4.18864L7.03259 4.15402C7.01628 4.13565 6.98755 4.13575 6.97136 4.15424L6.91298 4.22095L6.82411 4.32249L6.73557 4.42888L6.64703 4.53527L6.55822 4.64723L6.4694 4.75918L6.37993 4.8777L6.29135 4.99504C6.29078 4.9958 6.29047 4.99673 6.29047 4.99768C6.29047 4.99846 6.29115 4.99907 6.29192 4.99898L6.3105 4.99694Z" fill="url(#paint0_linear_214_742)"/>
<path d="M9.42042 12.9993L9.34831 12.9985L9.33229 12.9966L9.31626 12.9947L9.25751 12.9886L9.19876 12.9826L9.12727 12.9691L9.05578 12.9556L8.98573 12.9369L8.91567 12.9182L8.83883 12.8927L8.76198 12.8672L8.66791 12.8285L8.57383 12.7898L8.48008 12.7446L8.38633 12.6995L8.29072 12.6456L8.1951 12.5917L8.12809 12.5502L8.06108 12.5087L7.9596 12.4401L7.85811 12.3715L7.79402 12.3243L7.72992 12.2772L7.66838 12.2295L7.60684 12.1819L7.5215 12.1114L7.43616 12.041L7.3458 11.9609L7.25544 11.8809L7.19358 11.8229L7.13172 11.7649L7.07734 11.7113L7.0257 11.6603C7.02394 11.6586 7.02157 11.6576 7.0191 11.6576C7.01663 11.6576 7.01427 11.6586 7.01251 11.6603L6.96665 11.7059L6.91806 11.7541L6.8326 11.8333L6.74714 11.9125L6.65003 11.996L6.55292 12.0795L6.46309 12.1507L6.37326 12.2219L6.29581 12.2793L6.21836 12.3366L6.10353 12.4144L5.98869 12.4921L5.92994 12.5279L5.87118 12.5637L5.79291 12.6083L5.71464 12.6529L5.64603 12.6883L5.57742 12.7236L5.48662 12.765L5.39581 12.8064L5.30073 12.8429L5.20564 12.8793L5.12431 12.9038L5.04298 12.9283L4.9737 12.9445L4.90442 12.9606L4.83766 12.9719L4.77089 12.9833L4.70254 12.9897L4.63419 12.9961L4.52094 12.9931L4.47552 12.992C4.43037 12.9908 4.38537 12.9862 4.34093 12.9781L4.27416 12.966L4.21124 12.9474L4.14833 12.9287L4.09186 12.9039L4.03539 12.8791L3.98629 12.8493L3.93719 12.8195L3.89203 12.7853C3.86196 12.7626 3.83371 12.7375 3.80752 12.7104L3.78248 12.6844L3.7181 12.6177L3.68442 12.5719L3.65074 12.526L3.6161 12.4701L3.58146 12.4141L3.54239 12.3316L3.50331 12.2491L3.48378 12.1973L3.46425 12.1455L3.44319 12.0785L3.42213 12.0116L3.40147 11.9268L3.38081 11.8419L3.36682 11.7622L3.35284 11.6824L3.34245 11.5971L3.33206 11.5118L3.32507 11.432L3.31808 11.3523L3.31818 11.1074L3.31827 10.8626L3.32516 10.7718L3.33204 10.681L3.34263 10.5765L3.35322 10.4719L3.36656 10.3729L3.3799 10.2739L3.39822 10.1638L3.41655 10.0538L3.43576 9.95475L3.45496 9.85571L3.48388 9.72674L3.51233 9.59981C3.51262 9.59854 3.51224 9.5972 3.51133 9.59626C3.51037 9.59527 3.50918 9.59453 3.50787 9.59412L3.39796 9.55911L3.28605 9.52346L3.18457 9.4879L3.08308 9.45234L3.01752 9.42711L2.95197 9.40189L2.85729 9.3626L2.76261 9.32331L2.67181 9.28221L2.58101 9.24111L2.46884 9.18415L2.35668 9.12719L2.2819 9.08512L2.20712 9.04306L2.12167 8.99049L2.03621 8.93792L1.94832 8.87765L1.86044 8.81739L1.78974 8.76296L1.71903 8.70854L1.66664 8.66412L1.61425 8.61969L1.53638 8.5458L1.4585 8.47191L1.40133 8.40676L1.34416 8.3416L1.30381 8.28986L1.26346 8.23812L1.21355 8.16109L1.16364 8.08406L1.13152 8.02079L1.09941 7.95751L1.07538 7.89584L1.05135 7.83417L1.0352 7.7748L1.01905 7.71542L1.00955 7.66591C1.00323 7.63297 1.00005 7.5995 1.00004 7.56597L1.00003 7.48984L1.00001 7.42776C1 7.38488 1.00413 7.34211 1.01233 7.30002L1.02467 7.23675L1.04938 7.15991L1.07409 7.08307L1.1153 6.9976L1.15651 6.91213L1.20458 6.83785L1.25265 6.76357L1.29991 6.70305L1.34716 6.64253L1.42729 6.55786L1.50741 6.47319L1.58379 6.40548L1.66016 6.33777L1.73067 6.28307L1.80118 6.22836L1.87596 6.17622L1.95074 6.12408L2.00949 6.0868L2.06824 6.04952L2.14302 6.00567L2.2178 5.96183L2.31394 5.9105L2.41008 5.85917L2.49287 5.81968L2.57566 5.78019L2.66646 5.74034L2.75726 5.70048L2.87476 5.65345L2.99227 5.60643L3.14984 5.55177L3.3074 5.49711L3.41289 5.46497L3.51101 5.43508C3.51539 5.43374 3.51838 5.4297 3.51838 5.42512C3.51838 5.42 3.51776 5.4149 3.51653 5.40993L3.50765 5.37411L3.49691 5.33081L3.47062 5.20813L3.44433 5.08546L3.42805 4.99743L3.41178 4.90939L3.39314 4.7911L3.3745 4.67281L3.36128 4.56552L3.34805 4.45823L3.33983 4.36469L3.3316 4.27116L3.32641 4.18038L3.32121 4.08959L3.31782 3.97955L3.31444 3.86951L3.32035 3.72774L3.32627 3.58596L3.3342 3.50215L3.34214 3.41835L3.35306 3.34132L3.36398 3.26429L3.37444 3.20751L3.38489 3.15073L3.40099 3.08096L3.41708 3.0112L3.4416 2.93142L3.46612 2.85164L3.49274 2.78286L3.51936 2.71409L3.55332 2.64531L3.58728 2.57654L3.62933 2.51051L3.67138 2.44449L3.70378 2.40322L3.73619 2.36196L3.79153 2.30677L3.84686 2.25159L3.87991 2.22556L3.91296 2.19953L3.95736 2.17112L4.00176 2.14271L4.05004 2.11911L4.09833 2.0955L4.16221 2.07356L4.22609 2.05161L4.29286 2.03789L4.35962 2.02417L4.42105 2.0184L4.48247 2.01262H4.54656H4.61066L4.67475 2.01825L4.73885 2.02389L4.80561 2.03488L4.87238 2.04587L4.93349 2.05996L4.9946 2.07405L5.06792 2.0954L5.14124 2.11674L5.22395 2.14704L5.30666 2.17734L5.39664 2.21657L5.48662 2.2558L5.57742 2.30169L5.66822 2.34758L5.74194 2.38926L5.81566 2.43094L5.89683 2.48116L5.97801 2.53138L6.0547 2.583L6.1314 2.63461L6.21227 2.69315L6.29314 2.75169L6.36792 2.8096L6.44269 2.86751L6.50679 2.91986L6.57088 2.97222L6.63765 3.02976L6.70441 3.08731L6.78453 3.16006L6.86465 3.23283L6.93396 3.29919L6.95689 3.32115C6.98268 3.34585 7.02347 3.34546 7.04879 3.32027L7.09432 3.27499L7.15574 3.21702L7.21717 3.15905L7.28393 3.09875L7.3507 3.03845L7.41212 2.98596L7.47355 2.93347L7.54053 2.87849L7.60751 2.82351L7.6794 2.76826L7.75129 2.71301L7.81647 2.66534L7.88165 2.61767L7.96602 2.56089L8.0504 2.50411L8.13052 2.4546L8.21063 2.4051L8.28007 2.36587L8.3495 2.32664L8.459 2.27178L8.56849 2.21693L8.6406 2.18678L8.71271 2.15663L8.77962 2.13175L8.84653 2.10686L8.92307 2.08402L8.99962 2.06118L9.07198 2.0448L9.14434 2.02843L9.21695 2.01754L9.28956 2.00665L9.39104 2.00333L9.49252 2L9.55662 2.00644L9.62071 2.01289L9.68559 2.02637L9.75046 2.03985L9.80844 2.05931C9.84704 2.07227 9.88467 2.08795 9.92104 2.10625L9.92586 2.10867L9.98531 2.13856L10.0407 2.17689L10.0961 2.21521L10.1477 2.26229L10.1994 2.30938L10.2446 2.36405L10.2899 2.41871L10.3245 2.47008L10.3591 2.52144L10.3921 2.58051L10.425 2.63958L10.4467 2.6878L10.4684 2.73602L10.4972 2.81166L10.526 2.8873L10.5497 2.96926L10.5735 3.05122L10.5923 3.13846L10.6112 3.2257L10.6245 3.31098L10.6379 3.39626L10.646 3.47329L10.6542 3.55032L10.6595 3.61909L10.6649 3.68787L10.6683 3.83918L10.6718 3.99048L10.6654 4.13078L10.6591 4.27108L10.6511 4.36737L10.6432 4.46365L10.6324 4.55994L10.6216 4.65622L10.6083 4.74976L10.5951 4.84329L10.5788 4.93958L10.5626 5.03586L10.5388 5.15691L10.5149 5.27795L10.4964 5.35722L10.4785 5.43361C10.4781 5.4354 10.4786 5.43728 10.4799 5.4386C10.4813 5.43998 10.4829 5.44101 10.4848 5.44159L10.5881 5.47388L10.6943 5.50706L10.8038 5.5447L10.9133 5.58233L11.0288 5.62667L11.1443 5.671L11.2584 5.72009L11.3726 5.76918L11.4447 5.80329L11.5168 5.83739L11.6237 5.89251L11.7305 5.94763L11.7892 5.98095L11.848 6.01426L11.9201 6.05829L11.9922 6.10231L12.0759 6.15866L12.1596 6.21501L12.2415 6.27787L12.3234 6.34074L12.3794 6.38897L12.4355 6.43719L12.5019 6.50131L12.5683 6.56543L12.6302 6.63695L12.6921 6.70848L12.7384 6.77214L12.7848 6.8358L12.8235 6.90144L12.8621 6.96707L12.8908 7.02911L12.9194 7.09116L12.9429 7.16391L12.9664 7.23667L12.9772 7.29169L12.988 7.34671L12.994 7.41274L12.9948 7.42112C12.9982 7.45949 12.9988 7.49808 12.9964 7.53653L12.9928 7.5943L12.9825 7.65727L12.9721 7.72025L12.9559 7.77805L12.9397 7.83585L12.913 7.90287L12.8862 7.9699L12.8511 8.03519L12.816 8.10049L12.776 8.16101L12.736 8.22153L12.7062 8.26005L12.6764 8.29856L12.6302 8.35358L12.584 8.4086L12.5094 8.48288L12.4349 8.55716L12.3738 8.6101L12.3127 8.66304L12.2348 8.72355L12.1569 8.78405L12.0772 8.83888L11.9976 8.89371L11.9228 8.94047L11.848 8.98723L11.7738 9.02994L11.6996 9.07265L11.5788 9.13488L11.4581 9.19711L11.3806 9.23278L11.3032 9.26845L11.2135 9.30756L11.1238 9.34666L11.0079 9.39148L10.8919 9.43629L10.7798 9.47598L10.6676 9.51568L10.5901 9.53944L10.5177 9.56166C10.5144 9.56267 10.5113 9.56436 10.5087 9.56661C10.5063 9.56871 10.5052 9.57199 10.5059 9.57513L10.531 9.68807L10.5573 9.80612L10.5761 9.90515L10.595 10.0042L10.611 10.1032L10.6271 10.2023L10.6404 10.304L10.6538 10.4058L10.6594 10.4581L10.665 10.5104L10.6728 10.6039L10.6805 10.6974L10.6868 10.8295L10.6931 10.9615L10.6898 11.1156L10.6865 11.2697L10.6783 11.3728L10.6702 11.476L10.6621 11.5406L10.654 11.6053L10.6406 11.6851L10.6272 11.7648L10.6111 11.8391L10.5951 11.9134L10.5735 11.9904L10.552 12.0674L10.525 12.1417L10.4981 12.216L10.4719 12.2759L10.4457 12.3359L10.4155 12.3915L10.3853 12.4471L10.3495 12.5021L10.3137 12.5571L10.2861 12.5929L10.2585 12.6287L10.204 12.6857L10.1495 12.7427L10.1066 12.7774L10.0636 12.8121L10.0184 12.841L9.97323 12.8699L9.92495 12.8935L9.87666 12.9171L9.81278 12.9391L9.7489 12.961L9.68214 12.9747L9.61537 12.9884L9.55395 12.9942L9.49252 13L9.42042 12.9993ZM9.42323 12.4713L9.48212 12.4719L9.52738 12.4661L9.57264 12.4603L9.61537 12.4493C9.64378 12.442 9.67134 12.4317 9.69761 12.4186L9.70708 12.4139L9.70993 12.4125C9.74058 12.3973 9.76937 12.3785 9.79573 12.3567L9.79825 12.3546C9.82296 12.3341 9.84571 12.3114 9.86619 12.2867L9.89698 12.2495L9.92235 12.2108L9.94771 12.1721L9.97229 12.1252L9.99687 12.0784L10.0206 12.0201L10.0443 11.9619L10.0657 11.8936L10.0872 11.8254L10.1039 11.7552L10.1206 11.6849L10.1361 11.5901L10.1515 11.4953L10.1597 11.4146L10.168 11.3338L10.1741 11.2165L10.1802 11.0992L10.1769 10.9534L10.1736 10.8076L10.1681 10.7305L10.1626 10.6535L10.1545 10.5682L10.1464 10.4829L10.133 10.3812L10.1197 10.2794L10.1063 10.1968L10.093 10.1143L10.0794 10.04L10.0659 9.96575L10.0501 9.89147L10.0343 9.81719L10.0209 9.75911C10.0135 9.72704 9.98151 9.70703 9.94943 9.71442L9.92895 9.71914L9.85038 9.73726L9.69015 9.76996L9.52991 9.80266L9.40172 9.82491L9.27353 9.84716L9.16404 9.86404L9.05454 9.88091L8.88897 9.90235L8.72339 9.92379L8.61122 9.93563L8.49906 9.94748L8.44066 9.95386C8.40359 9.95792 8.37012 9.97792 8.34899 10.0086L8.2839 10.1033L8.18552 10.2464L8.06142 10.4169L7.93732 10.5875L7.8291 10.7269L7.72088 10.8663L7.62971 10.9773L7.53854 11.0882L7.45988 11.1789L7.38483 11.2656C7.3825 11.2683 7.38114 11.2717 7.38097 11.2752C7.38081 11.2787 7.38216 11.2821 7.38469 11.2845L7.44582 11.3434L7.51093 11.406L7.58037 11.4702L7.6498 11.5344L7.70856 11.5858L7.76731 11.6373L7.85789 11.7119L7.94848 11.7865L8.0395 11.8549L8.13051 11.9232L8.22933 11.9906L8.32814 12.058L8.3949 12.099L8.46167 12.14L8.52725 12.1771L8.59284 12.2143L8.67948 12.257L8.76612 12.2998L8.84624 12.333L8.92635 12.3662L9.00113 12.3911L9.07591 12.4161L9.11864 12.4271L9.16137 12.438L9.20677 12.4474L9.25217 12.4567L9.30825 12.4637L9.36433 12.4707L9.42323 12.4713ZM4.55612 12.4659L4.63511 12.4664L4.68698 12.4606L4.73885 12.4549L4.81716 12.4385L4.89546 12.4222L4.96694 12.4007L5.03842 12.3791L5.11029 12.3522L5.18217 12.3252L5.24359 12.2982L5.30501 12.2713L5.39849 12.2239L5.49196 12.1766L5.56673 12.1335L5.64151 12.0904L5.71896 12.0411L5.79641 11.9919L5.88719 11.9285L5.97797 11.8651L6.07146 11.7935L6.16495 11.7218L6.23171 11.6664L6.29848 11.611L6.38928 11.5308L6.48008 11.4506L6.52281 11.4102L6.56554 11.3698L6.61229 11.3232C6.63849 11.2971 6.63961 11.255 6.61485 11.2275L6.60393 11.2154L6.54881 11.1542L6.46632 11.0579L6.38383 10.9616L6.29797 10.8571L6.2121 10.7525L6.11333 10.626L6.01457 10.4994L5.92678 10.3811L5.83899 10.2629L5.77199 10.1693L5.70499 10.0758L5.66664 10.0202L5.65797 10.0076C5.6392 9.98045 5.6091 9.96325 5.57614 9.96088L5.524 9.95715L5.36377 9.94058L5.20353 9.92401L5.05398 9.90517L4.90442 9.88633L4.77356 9.86664L4.6427 9.84695L4.50116 9.82229L4.35962 9.79762L4.18666 9.76182L4.01631 9.72656C4.01469 9.72622 4.01301 9.72674 4.01185 9.72793C4.01064 9.72918 4.00979 9.73074 4.00939 9.73244L3.99156 9.80928L3.97313 9.88871L3.94839 10.0098L3.92365 10.1308L3.903 10.2573L3.88235 10.3839L3.86873 10.4912L3.85511 10.5985L3.84708 10.6893L3.83905 10.78L3.83366 10.8736L3.82827 10.9671L3.82822 11.1103L3.82817 11.2534L3.83363 11.3413L3.83909 11.4293L3.85001 11.5201L3.86092 11.6108L3.87418 11.6824L3.88745 11.7539L3.90554 11.8255L3.92364 11.8971L3.94328 11.9548L3.96293 12.0125L3.99702 12.0861L4.03111 12.1598L4.06169 12.2072C4.08205 12.2387 4.10514 12.2684 4.13071 12.2959L4.13515 12.3007L4.15097 12.3177C4.16896 12.337 4.18875 12.3546 4.21006 12.3701L4.21785 12.3758C4.234 12.3876 4.25104 12.3982 4.26882 12.4073C4.28659 12.4165 4.30508 12.4242 4.32409 12.4304L4.34092 12.4359L4.34259 12.4364C4.3717 12.4459 4.4015 12.4531 4.43172 12.458C4.46194 12.4629 4.4925 12.4654 4.52311 12.4657L4.55612 12.4659ZM7.01723 10.8928C7.02001 10.8928 7.02265 10.8916 7.02445 10.8895L7.11423 10.7842L7.20685 10.6755L7.2845 10.5792L7.36215 10.4829L7.44515 10.3756L7.52816 10.2684L7.62293 10.1391L7.70861 10.0222C7.71268 10.0166 7.70928 10.0087 7.70245 10.0079C7.69229 10.0066 7.68206 10.0062 7.67183 10.0065L7.51093 10.012L7.33467 10.018H6.98215H6.62963L6.46472 10.0123L6.30254 10.0067C6.3008 10.0066 6.29912 10.0073 6.2979 10.0086C6.29681 10.0097 6.2967 10.0115 6.29765 10.0127L6.38537 10.1287L6.47474 10.2469L6.54381 10.3347L6.61287 10.4225L6.69864 10.527L6.7844 10.6315L6.84829 10.7058L6.91217 10.7801L6.96251 10.8365L7.00993 10.8896C7.01178 10.8917 7.01445 10.8929 7.01723 10.8928ZM7.05426 9.48673L7.53764 9.48525L7.65248 9.47926L7.76731 9.47327L7.90885 9.46505L8.0504 9.45684L8.07462 9.45372C8.08995 9.45175 8.10358 9.44299 8.11174 9.42986L8.12342 9.41107L8.14799 9.37153L8.22246 9.25324L8.29693 9.13494L8.37171 9.01115L8.44649 8.88735L8.52945 8.7443L8.61241 8.60125L8.68458 8.47195L8.75676 8.34265L8.83162 8.20235L8.90647 8.06205L8.97382 7.93L9.04117 7.79795L9.11422 7.64736L9.14561 7.58265C9.17192 7.52839 9.172 7.46509 9.14582 7.41077L9.10438 7.32478L9.03188 7.18173L8.95939 7.03867L8.88214 6.89287L8.80489 6.74707L8.71942 6.59301L8.63394 6.43895L8.54733 6.29028L8.46072 6.14161L8.39307 6.03022L8.32542 5.91882L8.27117 5.83226L8.21692 5.7457L8.15413 5.64883L8.11563 5.58944C8.10032 5.56581 8.0749 5.55064 8.04683 5.54837L8.00233 5.54477L7.87681 5.5368L7.75129 5.52883L7.60975 5.52172L7.4682 5.51461H6.99551H6.52281L6.38127 5.52172L6.23973 5.52883L6.11421 5.5368L5.98869 5.54477L5.94596 5.54827C5.91896 5.55048 5.89445 5.56489 5.87938 5.5874L5.87699 5.59096L5.85075 5.63016L5.75113 5.78696L5.65151 5.94377L5.56862 6.08132L5.48573 6.21887L5.42682 6.32066L5.36792 6.42245L5.29216 6.55928L5.2164 6.6961L5.15326 6.81512L5.09012 6.93413L5.02842 7.05518L4.96672 7.17622L4.88818 7.33929C4.83857 7.44229 4.8388 7.56232 4.88881 7.66512L4.9083 7.70517L5.00696 7.90799L5.06985 8.02904L5.13274 8.15008L5.20244 8.27938L5.27213 8.40868L5.34523 8.53797L5.41833 8.66727L5.47858 8.76906L5.53883 8.87085L5.60575 8.98089L5.67268 9.09093L5.78795 9.26974L5.90321 9.44856L5.90619 9.45265C5.90807 9.45524 5.91101 9.45685 5.91421 9.45705L6.0424 9.46483L6.17563 9.47292L6.32786 9.47883L6.48008 9.48474L6.52548 9.48647L6.57088 9.4882L7.05426 9.48673ZM6.99101 8.59227L6.91272 8.59155L6.86999 8.58658L6.82726 8.58161L6.76583 8.56761L6.70441 8.55361L6.65872 8.53801L6.61303 8.5224L6.55991 8.49831L6.50679 8.47422L6.45469 8.44263L6.4026 8.41105L6.35008 8.3703L6.29756 8.32954L6.24687 8.27832L6.19618 8.22711L6.16232 8.18309L6.12846 8.13908L6.09675 8.08956L6.06504 8.04004L6.03385 7.97402L6.00266 7.90799L5.98597 7.85847L5.96928 7.80896L5.95656 7.75669L5.94385 7.70442L5.9352 7.64389C5.92944 7.6036 5.92655 7.56294 5.92655 7.52224V7.48984V7.45744C5.92655 7.41673 5.92944 7.37608 5.9352 7.33578L5.94385 7.27526L5.95656 7.22299L5.96928 7.17072L5.9861 7.1212L6.00292 7.07168L6.03395 7.00566L6.06498 6.93964L6.09672 6.89012L6.12846 6.8406L6.16045 6.79926L6.19245 6.75792L6.23601 6.71305L6.27957 6.66817L6.319 6.63498L6.35843 6.60179L6.4059 6.5691L6.45337 6.5364L6.51747 6.50323L6.58156 6.47006L6.64299 6.44836L6.70441 6.42667L6.75248 6.41514L6.80055 6.40361L6.86359 6.39515L6.92662 6.38668H6.99445H7.06227L7.11034 6.39222L7.15841 6.39775L7.2145 6.40921L7.27058 6.42066L7.33467 6.44251L7.39877 6.46437L7.4633 6.49656C7.50627 6.51799 7.54766 6.54246 7.58715 6.56978L7.59149 6.57278L7.65515 6.61681L7.70384 6.66078L7.75253 6.70475L7.79498 6.75424L7.83743 6.80373L7.87181 6.85383L7.90618 6.90392L7.93358 6.95571L7.96098 7.00749L7.98234 7.0588L8.0037 7.11011L8.01813 7.15688L8.03257 7.20364L8.04541 7.26692L8.05824 7.33019L8.06469 7.41084L8.06479 7.41208C8.06901 7.46494 8.06895 7.51804 8.06459 7.57088L8.05804 7.65027L8.045 7.71506L8.03196 7.77985L8.01004 7.84619L7.98812 7.91254L7.9648 7.96249L7.94148 8.01244L7.91759 8.05409L7.8937 8.09574L7.85418 8.15037L7.81467 8.20501L7.77056 8.25295L7.72646 8.3009L7.67745 8.34175L7.62844 8.3826L7.58304 8.41365L7.53764 8.44469L7.48156 8.47416L7.42547 8.50363L7.37335 8.52362L7.32122 8.5436L7.26118 8.55949L7.20114 8.57539L7.13522 8.58415L7.0693 8.5929L6.99101 8.59227ZM5.23672 9.39562C5.24405 9.39591 5.24875 9.3879 5.24492 9.38164L5.17181 9.26211L5.08975 9.12794L5.00197 8.97738L4.9142 8.82683L4.83652 8.68653L4.75884 8.54622L4.69759 8.43068L4.63634 8.31514L4.58936 8.22298L4.54406 8.13411C4.54303 8.13209 4.54095 8.13082 4.53869 8.13082C4.53646 8.13082 4.53445 8.13218 4.53363 8.13426L4.48642 8.25324L4.43785 8.37566L4.40069 8.4747L4.36353 8.57373L4.31945 8.69753L4.27538 8.82133L4.21243 9.01665L4.15329 9.20014C4.15115 9.20678 4.15457 9.21393 4.16108 9.21643C4.1688 9.2194 4.17675 9.22173 4.18486 9.22339L4.31689 9.25041L4.4611 9.27993L4.62401 9.30765L4.78692 9.33538L4.92312 9.35489L5.05932 9.37441L5.13944 9.38468L5.21955 9.39495L5.23672 9.39562ZM8.76605 9.38528H8.77934L8.91961 9.36593L9.05989 9.34657L9.18006 9.327L9.30024 9.30743L9.41775 9.28557L9.53525 9.26372L9.64208 9.24145L9.7489 9.21918L9.80413 9.20637L9.85495 9.19459C9.85782 9.19392 9.86044 9.19244 9.8625 9.19032C9.86444 9.18833 9.86511 9.18542 9.86425 9.18278L9.82405 9.05922L9.78244 8.93137L9.73443 8.79657L9.68642 8.66177L9.62901 8.51321L9.57161 8.36466L9.51894 8.23674L9.46739 8.11151C9.46673 8.10989 9.46512 8.10887 9.46338 8.10895C9.46159 8.10904 9.45998 8.11009 9.45918 8.1117L9.42647 8.1777L9.39247 8.24631L9.30803 8.4058L9.2236 8.56529L9.14487 8.70714L9.06614 8.84898L8.98334 8.99204L8.90055 9.13509L8.82666 9.25767L8.7541 9.37803C8.75323 9.37948 8.75277 9.38115 8.75277 9.38284C8.75277 9.38427 8.75393 9.38542 8.75536 9.3854L8.76605 9.38528ZM3.64318 9.08101C3.64923 9.08035 3.65431 9.07617 3.65611 9.07036L3.69491 8.94513L3.73667 8.81033L3.78559 8.66728L3.8345 8.52422L3.88269 8.39218L3.93087 8.26013L3.98575 8.11983L4.04063 7.97953L4.09676 7.84472L4.15289 7.70993L4.19847 7.60632L4.20126 7.59996C4.22852 7.53799 4.22849 7.46743 4.20117 7.40549L4.1583 7.30828L4.09416 7.15422L4.03002 7.00016L3.96435 6.8296L3.89869 6.65904L3.84949 6.52149L3.80029 6.38394L3.73144 6.17087L3.66528 5.96612C3.6635 5.9606 3.66259 5.95484 3.66259 5.94904C3.66259 5.94468 3.65839 5.94156 3.65421 5.94282L3.65324 5.94311L3.6439 5.94594L3.54509 5.97628L3.44627 6.00663L3.35814 6.03634L3.27001 6.06605L3.1712 6.1031L3.07239 6.14016L2.96806 6.18339L2.86374 6.22662L2.76243 6.27398L2.66111 6.32135L2.55429 6.37793L2.44747 6.43452L2.37622 6.47701L2.30498 6.5195L2.23808 6.56325L2.17117 6.607L2.10101 6.65876L2.03085 6.71052L1.98208 6.7508L1.93331 6.79109L1.86724 6.85281L1.80118 6.91453L1.75311 6.9701L1.70504 7.02566L1.66759 7.07713L1.63013 7.12859L1.60366 7.17442L1.57718 7.22025L1.55688 7.26874L1.53657 7.31723L1.52466 7.35952C1.51676 7.38758 1.51281 7.4166 1.51291 7.44575L1.51308 7.4926L1.51323 7.53175C1.51335 7.566 1.51834 7.60005 1.52804 7.6329C1.53778 7.66586 1.54995 7.69806 1.56445 7.72923L1.57169 7.74481L1.60071 7.8072L1.63455 7.86035L1.66839 7.9135L1.71334 7.97127L1.75829 8.02904L1.83315 8.10631L1.908 8.18357L1.97448 8.24056L2.04096 8.29756L2.1005 8.34294L2.16004 8.38832L2.23165 8.43752L2.30325 8.48672L2.38337 8.53623L2.46349 8.58575L2.55133 8.6343L2.63917 8.68286L2.72696 8.72624L2.81475 8.76962L2.88482 8.80155L2.95488 8.83348L3.035 8.86679L3.11512 8.90011L3.19257 8.93006L3.27001 8.96001L3.35013 8.98851L3.43025 9.01701L3.53173 9.04956L3.62367 9.07904C3.62996 9.08106 3.63661 9.08173 3.64318 9.08101ZM10.3818 9.05225C10.3943 9.04989 10.4065 9.04665 10.4185 9.04255L10.5581 8.99487L10.7157 8.94104L10.8252 8.8983L10.9346 8.85555L11.0403 8.80941L11.146 8.76326L11.2478 8.71412L11.3497 8.66498L11.4466 8.61175L11.5435 8.55853L11.637 8.50082L11.7305 8.4431L11.8053 8.39065L11.88 8.33819L11.9418 8.28981L12.0035 8.24142L12.062 8.18952L12.1204 8.13763L12.1875 8.06683L12.2547 7.99603L12.297 7.941L12.3394 7.88598L12.3667 7.84197L12.3941 7.79795L12.4165 7.75202L12.4388 7.70608L12.4569 7.65023L12.4597 7.64183C12.4699 7.61027 12.477 7.57779 12.481 7.54486L12.4824 7.53375C12.4854 7.50822 12.4858 7.48243 12.4834 7.45683C12.481 7.43119 12.4767 7.40576 12.4705 7.38074L12.4672 7.36694C12.4588 7.33277 12.4472 7.2995 12.4324 7.26759L12.4278 7.25786L12.4011 7.20016L12.3671 7.14692L12.3332 7.09369L12.2997 7.05048L12.2663 7.00727L12.2067 6.94374L12.1471 6.88021L12.0857 6.82536L12.0243 6.7705L11.9495 6.71267L11.8747 6.65484L11.7999 6.60416L11.7251 6.55348L11.653 6.50946L11.5809 6.46544L11.4931 6.41692L11.4054 6.36841L11.3276 6.33012L11.2498 6.29184L11.1777 6.2589L11.1056 6.22597L11.0091 6.18553L10.9125 6.1451L10.8034 6.10438L10.6943 6.06366L10.6115 6.03557L10.5287 6.00749L10.4409 5.97976L10.3594 5.95401C10.3552 5.9527 10.3509 5.95202 10.3465 5.95202C10.3426 5.95202 10.3391 5.95458 10.3379 5.95832L10.3015 6.07445L10.2632 6.19687L10.2189 6.32616L10.1746 6.45546L10.1336 6.56825L10.0926 6.68104L10.0268 6.84885L9.96103 7.01666L9.90721 7.14463L9.85339 7.2726L9.80465 7.383L9.80284 7.3871C9.77299 7.45472 9.77345 7.53187 9.8041 7.59913L9.85229 7.70486L9.91479 7.85044L9.97729 7.99603L10.0377 8.14555L10.098 8.29507L10.1419 8.4124L10.1857 8.52972L10.2248 8.63976L10.2638 8.7498L10.3135 8.9028L10.3573 9.0377C10.3606 9.04805 10.3711 9.05428 10.3818 9.05225ZM4.53839 6.8763C4.54014 6.87621 4.54171 6.87519 4.54249 6.87362L4.5706 6.81724L4.59997 6.75833L4.67662 6.61236L4.75326 6.46639L4.8417 6.30683L4.93014 6.14728L5.0167 5.99872L5.10326 5.85017L5.17318 5.736L5.23611 5.63323C5.23917 5.62824 5.23558 5.62183 5.22973 5.62183C5.22083 5.62183 5.21194 5.62248 5.20313 5.62377L5.04798 5.64656L4.87961 5.67128L4.7514 5.69338L4.62319 5.71549L4.53413 5.73228L4.44508 5.74908L4.30354 5.77952L4.16496 5.80932C4.16303 5.80974 4.16125 5.81071 4.15984 5.81211C4.15852 5.81342 4.15804 5.81537 4.15859 5.81715L4.18891 5.91474L4.22013 6.01523L4.26656 6.15278L4.313 6.29033L4.35699 6.41137L4.40097 6.53242L4.46237 6.68923L4.52377 6.84603L4.52966 6.86116L4.53452 6.87365C4.53514 6.87524 4.53668 6.87629 4.53839 6.8763ZM9.45852 6.8763C9.46056 6.87638 9.46242 6.87517 9.46317 6.87329L9.50212 6.77602L9.54232 6.67561L9.57992 6.57857L9.61751 6.48152L9.66915 6.33923L9.72078 6.19694L9.78213 6.00814L9.84266 5.82185C9.84316 5.82032 9.84274 5.81864 9.84159 5.81752C9.84035 5.81632 9.83881 5.81549 9.83713 5.81513L9.70083 5.78526L9.56196 5.75484L9.4311 5.72979L9.30024 5.70474L9.18807 5.68579L9.07591 5.66683L8.91685 5.64365L8.76154 5.62102C8.75918 5.62067 8.7568 5.62148 8.75514 5.62319C8.75359 5.6248 8.75331 5.62725 8.75447 5.62916L8.83732 5.76594L8.92214 5.90597L9.00477 6.0487L9.0874 6.19143L9.16511 6.33174L9.24281 6.47204L9.31473 6.60684L9.38665 6.74164L9.42089 6.80895L9.4536 6.87323C9.45454 6.87509 9.45644 6.87627 9.45852 6.8763ZM9.97714 5.30771C9.97933 5.30805 9.98142 5.30663 9.98191 5.30446L9.98384 5.29594L9.98664 5.28356L10.0024 5.21478L10.0181 5.14601L10.0421 5.02221L10.0661 4.89842L10.0823 4.79663L10.0985 4.69484L10.1117 4.59305L10.125 4.49127L10.1358 4.37022L10.1465 4.24918L10.1527 4.11713L10.159 3.98508L10.1556 3.84478L10.1522 3.70448L10.1442 3.61182L10.1362 3.51915L10.1254 3.44253L10.1145 3.3659L10.1036 3.30961L10.0928 3.25331L10.0794 3.19855L10.066 3.14378L10.0497 3.09126L10.0334 3.03873L10.0123 2.98371L9.99113 2.92869L9.96489 2.87714L9.93865 2.8256L9.90954 2.78052L9.90909 2.77983C9.89001 2.75029 9.86862 2.72231 9.84511 2.69616L9.83779 2.68801C9.81916 2.66729 9.79871 2.64828 9.77668 2.63122L9.7755 2.63031C9.75425 2.61386 9.73157 2.59936 9.70771 2.58698C9.68387 2.57461 9.65891 2.56452 9.63316 2.55683L9.62756 2.55516C9.59807 2.54636 9.56792 2.53994 9.5374 2.53599L9.53032 2.53507C9.49509 2.5305 9.45954 2.52894 9.42405 2.53041L9.39682 2.53153L9.31626 2.53486L9.25217 2.54631L9.18807 2.55776L9.11864 2.57649L9.0492 2.59523L8.97152 2.62258L8.89383 2.64994L8.81662 2.68385L8.73941 2.71777L8.64861 2.764L8.55781 2.81022L8.47235 2.86057L8.38689 2.91092L8.31479 2.95769L8.24268 3.00446L8.15722 3.06522L8.07176 3.12597L7.9863 3.19188L7.90084 3.25778L7.81805 3.32675L7.73526 3.39572L7.66196 3.46087L7.58865 3.52601L7.52042 3.58983L7.45218 3.65366L7.40812 3.69761L7.36551 3.7401C7.36458 3.74103 7.36405 3.74229 7.36405 3.74362C7.36405 3.74494 7.36454 3.74622 7.36542 3.74721L7.42424 3.81311L7.48443 3.88054L7.55919 3.96857L7.63395 4.05661L7.71434 4.15564L7.79472 4.25468L7.88018 4.36472L7.96564 4.47476L8.03535 4.5683L8.10506 4.66183L8.1875 4.77737L8.26994 4.89291L8.32229 4.9686L8.36797 5.03465C8.37225 5.04084 8.37874 5.04515 8.3861 5.04669L8.39757 5.04909L8.4857 5.05794L8.57383 5.06678L8.71003 5.08327L8.84624 5.09976L9.01448 5.12442L9.18273 5.14909L9.32695 5.17396L9.47116 5.19883L9.68214 5.24251L9.89311 5.2862L9.93317 5.29665L9.97323 5.30711L9.97714 5.30771ZM4.02947 5.29956L4.03915 5.29717L4.14864 5.273L4.25814 5.24883L4.38633 5.22368L4.51452 5.19854L4.65876 5.17375L4.80301 5.14895L4.97122 5.12435L5.13944 5.09975L5.25694 5.08549L5.37445 5.07122L5.49619 5.05859L5.61134 5.04664C5.61557 5.0462 5.61947 5.04417 5.62226 5.04096L5.6266 5.03596L5.70577 4.92317L5.78494 4.81038L5.86773 4.69759L5.95052 4.5848L6.03837 4.47014L6.12622 4.35548L6.2179 4.2418L6.30959 4.12813L6.38377 4.0401L6.45794 3.95206L6.52773 3.87228L6.59751 3.7925L6.62037 3.76704C6.6331 3.75286 6.63222 3.73113 6.61838 3.71804L6.55899 3.6618L6.47474 3.58203L6.40263 3.51748L6.33053 3.45292L6.25575 3.38979L6.18097 3.32665L6.07682 3.24572L5.97267 3.1648L5.8928 3.1076L5.81294 3.05039L5.72723 2.99437L5.64151 2.93834L5.55605 2.88776L5.47059 2.83718L5.35843 2.78042L5.24626 2.72367L5.17415 2.6931L5.10205 2.66253L5.02199 2.63448L4.94193 2.60642L4.85641 2.58486L4.77089 2.5633L4.71481 2.5546L4.65873 2.54591L4.58128 2.54267L4.55494 2.54157C4.52093 2.54015 4.48686 2.54159 4.45309 2.54588L4.40235 2.55231L4.35962 2.56345C4.3312 2.57086 4.30359 2.58107 4.2772 2.59394L4.26882 2.59802L4.26772 2.59856C4.23652 2.61377 4.2073 2.63273 4.18069 2.65502L4.1676 2.66599C4.14966 2.68102 4.13314 2.69767 4.11826 2.71573L4.09588 2.74288L4.07186 2.77828L4.04783 2.81369L4.0265 2.85246L4.00517 2.89124L3.98084 2.94992L3.95651 3.0086L3.93729 3.06768L3.91808 3.12676L3.90009 3.20379L3.88209 3.28082L3.87125 3.34684L3.8604 3.41286L3.85266 3.47614L3.84492 3.53941L3.83831 3.62469L3.8317 3.70997L3.83176 3.88879L3.83181 4.06761L3.83814 4.16114L3.84447 4.25467L3.85513 4.36196L3.86579 4.46925L3.87669 4.55178L3.88759 4.63431L3.90632 4.74986L3.92506 4.8654L3.94911 4.98644L3.97316 5.10749L3.9942 5.19827L4.01524 5.28905L4.01752 5.2955C4.01882 5.29916 4.02268 5.30124 4.02645 5.30031L4.02947 5.29956ZM6.3105 4.99694L6.33053 4.99473L6.4961 4.9892L6.66168 4.98367H6.9968L7.33192 4.98368L7.49354 4.98914L7.65515 4.99459L7.68089 4.99718L7.70139 4.99924C7.70384 4.99948 7.70573 4.9971 7.70493 4.99477C7.70379 4.99146 7.70215 4.98836 7.70005 4.98556L7.60086 4.85331L7.4985 4.71684L7.4089 4.60405L7.3193 4.49125L7.24364 4.40047L7.16799 4.30969L7.11566 4.24916L7.06332 4.18864L7.03259 4.15402C7.01628 4.13565 6.98755 4.13575 6.97136 4.15424L6.91298 4.22095L6.82411 4.32249L6.73557 4.42888L6.64703 4.53527L6.55822 4.64723L6.4694 4.75918L6.37993 4.8777L6.29135 4.99504C6.29078 4.9958 6.29047 4.99673 6.29047 4.99768C6.29047 4.99846 6.29115 4.99907 6.29192 4.99898L6.3105 4.99694Z" stroke="url(#paint1_linear_214_742)" stroke-width="0.2" mask="url(#path-2-outside-1_214_742)"/>
<defs>
<linearGradient id="paint0_linear_214_742" x1="1" y1="7.5" x2="13" y2="7.5" gradientUnits="userSpaceOnUse">
<stop stop-color="#00C8FF"/>
<stop offset="1" stop-color="#236EFF"/>
</linearGradient>
<linearGradient id="paint1_linear_214_742" x1="1" y1="7.5" x2="13" y2="7.5" gradientUnits="userSpaceOnUse">
<stop stop-color="#00C8FF"/>
<stop offset="1" stop-color="#236EFF"/>
</linearGradient>
</defs>
</svg>
