<svg width="14" height="14" viewBox="0 0 14 14" fill="none" xmlns="http://www.w3.org/2000/svg">
<path d="M0.269446 7.64766C0.0767048 8.75678 1.79882 10.1564 1.60608 11.2655C3.1352 11.5667 2.74939 11.5775 4.27847 11.8787C4.40697 11.9198 10.5618 13.4397 10.5618 13.4397L13.4144 5.55265C13.4144 5.55265 13.4693 3.59978 13.8034 2.51805C12.9681 2.12095 12.7463 1.51328 11.911 1.11619C11.7954 1.0888 9.82943 0.5 9.82943 0.5L8.35702 0.545155L4.58686 2.63609L1.77283 4.89539L2.11013 4.19706L1.95594 4.10464L1.22352 5.15214L0.915128 5.88128L0.404365 7.4628L0.269446 7.64766Z" fill="white"/>
<path d="M0.000208977 8.93738C0.00215791 8.88697 0.01178 8.87672 0.0247396 8.91123C0.0364638 8.94247 0.035016 8.97978 0.0215269 8.99416C0.00803785 9.00853 -0.00155427 8.98298 0.000208977 8.93738ZM0.0408123 8.67776C0.0427612 8.62736 0.0523833 8.61711 0.0653429 8.65162C0.0770672 8.68286 0.0756193 8.72018 0.0621302 8.73456C0.0486412 8.74893 0.0390491 8.72337 0.0408123 8.67776ZM4.25014 6.98503C4.30038 6.97471 4.3826 6.97471 4.43285 6.98503C4.48309 6.99535 4.44197 7.00378 4.34149 7.00378C4.24099 7.00378 4.19989 6.99534 4.25014 6.98503ZM3.6411 6.94176C3.69134 6.93144 3.77356 6.93144 3.82381 6.94176C3.87405 6.95208 3.83293 6.96052 3.73245 6.96052C3.63195 6.96052 3.59085 6.95207 3.6411 6.94176ZM3.07266 6.89849C3.1229 6.88817 3.20512 6.88817 3.25537 6.89849C3.30562 6.90881 3.2645 6.91725 3.16401 6.91725C3.06352 6.91725 3.02241 6.90881 3.07266 6.89849ZM2.46362 6.85522C2.51386 6.84491 2.59608 6.84491 2.64633 6.85522C2.69658 6.86554 2.65546 6.87398 2.55497 6.87398C2.45448 6.87398 2.41337 6.86554 2.46362 6.85522ZM1.85458 6.81197C1.90482 6.80165 1.98704 6.80165 2.03729 6.81197C2.08754 6.82229 2.04641 6.83071 1.94593 6.83071C1.84544 6.83071 1.80433 6.82228 1.85458 6.81197ZM1.35209 6.73575C1.33952 6.70084 1.33864 6.6473 1.35015 6.61677C1.36166 6.58623 1.37252 6.60363 1.37429 6.65543C1.37605 6.70723 1.40946 6.75852 1.44854 6.76941C1.51514 6.78795 1.51506 6.78951 1.44732 6.79421C1.40754 6.79697 1.36466 6.77066 1.35209 6.73575ZM2.82904 6.68404C2.85695 6.67203 2.90264 6.67203 2.93055 6.68404C2.95847 6.69604 2.93563 6.70587 2.8798 6.70587C2.82397 6.70587 2.80113 6.69603 2.82904 6.68404ZM3.49898 6.68289C3.53806 6.672 3.60202 6.672 3.6411 6.68289C3.68018 6.69378 3.6482 6.70268 3.57004 6.70268C3.49188 6.70268 3.4599 6.69376 3.49898 6.68289ZM3.92785 6.63989C3.95716 6.6274 3.99218 6.62894 4.00567 6.64331C4.01916 6.65769 3.99517 6.66791 3.95238 6.66603C3.90508 6.66396 3.89546 6.6537 3.92785 6.63989ZM4.17147 6.59662C4.20078 6.58413 4.23579 6.58567 4.24928 6.60005C4.26277 6.61442 4.23879 6.62465 4.196 6.62277C4.1487 6.6207 4.13908 6.61043 4.17147 6.59662ZM1.69714 6.20432C1.64663 6.1357 1.64807 6.13417 1.71247 6.18798C1.7801 6.24451 1.80161 6.28004 1.76819 6.28004C1.75977 6.28004 1.72779 6.24597 1.69714 6.20432ZM1.30961 5.82573C1.30977 5.65915 1.31713 5.5963 1.32592 5.68607C1.33471 5.77584 1.33456 5.91214 1.32561 5.98895C1.31665 6.06576 1.30943 5.99232 1.30961 5.82573ZM1.42752 5.45795C1.42752 5.37466 1.43586 5.34059 1.44608 5.38224C1.4563 5.42388 1.4563 5.49203 1.44608 5.53368C1.43586 5.57532 1.42752 5.54124 1.42752 5.45795ZM8.64538 4.31666C8.64538 4.30768 8.67735 4.2736 8.71643 4.24094C8.78083 4.18712 8.78227 4.18865 8.73176 4.25728C8.67872 4.32935 8.64538 4.35227 8.64538 4.31666ZM13.9675 3.78854C13.9695 3.73814 13.9791 3.72789 13.9921 3.7624C14.0038 3.79364 14.0023 3.83096 13.9889 3.84534C13.9754 3.85971 13.9658 3.83415 13.9675 3.78854ZM2.53467 3.33784C2.66726 3.19506 2.78488 3.07823 2.79605 3.07823C2.80722 3.07823 2.70787 3.19506 2.57528 3.33784C2.44269 3.48063 2.32506 3.59744 2.3139 3.59744C2.30272 3.59744 2.40208 3.48063 2.53467 3.33784ZM2.961 2.9321C2.961 2.92312 2.99298 2.88904 3.03206 2.85638C3.09645 2.80256 3.09788 2.80409 3.04738 2.87271C2.99434 2.94478 2.961 2.96771 2.961 2.9321ZM13.4749 2.05062L13.335 1.88837L13.4873 2.03748C13.571 2.11949 13.6395 2.1925 13.6395 2.19973C13.6395 2.23277 13.6052 2.20164 13.4749 2.05062ZM7.41969 0.625683C7.449 0.613189 7.48401 0.614732 7.49751 0.629106C7.51099 0.643481 7.487 0.653712 7.44421 0.651833C7.39691 0.649756 7.3873 0.639494 7.41969 0.625683ZM7.7039 0.582424C7.73321 0.56993 7.76824 0.571463 7.78173 0.585838C7.79522 0.600212 7.77123 0.610444 7.72843 0.608565C7.68113 0.606488 7.67151 0.596234 7.7039 0.582424ZM9.00319 0.582424C9.0325 0.56993 9.06752 0.571463 9.08102 0.585838C9.09451 0.600212 9.07052 0.610444 9.02772 0.608565C8.98042 0.606488 8.9708 0.596234 9.00319 0.582424ZM9.93451 0.583402C9.96242 0.571399 10.0081 0.571399 10.036 0.583402C10.0639 0.595406 10.0411 0.605221 9.98527 0.605221C9.92944 0.605221 9.9066 0.595399 9.93451 0.583402ZM7.98813 0.539236C8.01744 0.526742 8.05245 0.528275 8.06594 0.542649C8.07943 0.557024 8.05545 0.567255 8.01266 0.565376C7.96536 0.5633 7.95574 0.553046 7.98813 0.539236ZM8.75957 0.539236C8.78888 0.526742 8.8239 0.528275 8.8374 0.542649C8.85089 0.557024 8.8269 0.567255 8.7841 0.565376C8.7368 0.5633 8.72718 0.553046 8.75957 0.539236Z" fill="#EE9FA2"/>
<path d="M10.4014 13.4752C10.3512 13.4649 10.3101 13.436 10.3101 13.4111C10.3101 13.3862 10.2735 13.376 10.2288 13.3885C10.1841 13.4009 10.1559 13.3968 10.166 13.3793C10.1762 13.3618 9.08061 12.8819 7.73142 12.313C6.38222 11.7441 5.29136 11.2668 5.30729 11.2524C5.32322 11.238 5.44588 11.2013 5.57987 11.1709C6.18779 11.0329 7.46801 10.5436 8.08255 10.2144C8.26295 10.1177 8.43265 10.0477 8.45967 10.0587C8.4867 10.0698 8.93506 10.8061 9.45603 11.6949C9.97701 12.5838 10.4301 13.3548 10.4628 13.4084C10.4956 13.4619 10.5158 13.5031 10.5076 13.4998C10.4995 13.4966 10.4517 13.4855 10.4014 13.4752ZM1.72674 11.1647C1.71537 11.1077 1.62951 10.107 1.53594 8.94097C1.44237 7.77491 1.35866 6.81206 1.34993 6.80132C1.3412 6.79058 1.08804 7.04343 0.787339 7.3632C0.48664 7.68298 0.240613 7.92332 0.240613 7.89729C0.240613 7.82157 0.663629 6.5167 0.846703 6.02769C1.03101 5.5354 1.1944 5.17378 1.2487 5.13802C1.26804 5.12528 1.29659 5.47911 1.31215 5.92432C1.3277 6.36952 1.35334 6.74691 1.36911 6.76296C1.38489 6.77902 2.08115 6.8421 2.91636 6.90316C3.75157 6.96422 4.44214 7.02187 4.45096 7.03127C4.46474 7.04595 1.87136 11.123 1.78043 11.2296C1.76226 11.2509 1.73812 11.2217 1.72674 11.1647ZM0.542576 10.596L0.423323 10.4553L0.555286 10.5824C0.627863 10.6523 0.68724 10.7156 0.68724 10.723C0.68724 10.7565 0.653737 10.727 0.542576 10.596ZM3.07266 6.68139C3.14523 6.67179 3.264 6.67179 3.33657 6.68139C3.40915 6.69099 3.34977 6.69885 3.20461 6.69885C3.05946 6.69885 3.00008 6.69099 3.07266 6.68139ZM3.80604 6.63987C3.83535 6.62737 3.87037 6.62891 3.88386 6.64328C3.89735 6.65765 3.87337 6.66789 3.83058 6.66601C3.78327 6.66393 3.77365 6.65368 3.80604 6.63987ZM8.76718 4.18683C8.76718 4.17785 8.79916 4.14377 8.83824 4.11111C8.90263 4.05729 8.90407 4.05882 8.85357 4.12745C8.80053 4.19952 8.76718 4.22244 8.76718 4.18683ZM2.14894 3.79742C2.14894 3.78844 2.18092 3.75436 2.22 3.7217C2.28439 3.66789 2.28583 3.66941 2.23533 3.73803C2.18229 3.81011 2.14894 3.83303 2.14894 3.79742ZM9.29502 3.62435C9.29502 3.61537 9.32699 3.58129 9.36607 3.54863C9.43047 3.49481 9.43191 3.49634 9.3814 3.56497C9.32836 3.63704 9.29502 3.65996 9.29502 3.62435ZM2.83919 3.06187C2.83919 3.05289 2.87116 3.01881 2.91024 2.98615C2.97464 2.93233 2.97608 2.93387 2.92558 3.00249C2.87253 3.07456 2.83919 3.09748 2.83919 3.06187ZM10.2187 1.26942C10.001 0.918123 9.82285 0.617224 9.82285 0.600765C9.82285 0.557498 10.0419 0.604608 10.3913 0.723014C10.5588 0.779776 11.0338 0.932123 11.447 1.06156C12.3064 1.33082 12.6327 1.45889 12.5432 1.49188C12.4353 1.53167 10.7385 1.9112 10.6755 1.90964C10.642 1.90883 10.4365 1.62072 10.2187 1.26942ZM10.1509 1.62513C10.1528 1.57473 10.1625 1.56447 10.1754 1.59899C10.1871 1.63023 10.1857 1.66755 10.1722 1.68192C10.1587 1.6963 10.1491 1.67074 10.1509 1.62513ZM9.86038 1.01218L9.76195 0.893183L9.87361 0.998085C9.97797 1.09612 10.0039 1.13116 9.97204 1.13116C9.96476 1.13116 9.91452 1.07762 9.86038 1.01218ZM7.82571 0.58239C7.85502 0.569896 7.89003 0.571439 7.90353 0.585813C7.91701 0.600187 7.89303 0.610409 7.85024 0.60853C7.80294 0.606453 7.79332 0.5962 7.82571 0.58239ZM8.88138 0.58239C8.91069 0.569896 8.94571 0.571439 8.9592 0.585813C8.97269 0.600187 8.9487 0.610409 8.90591 0.60853C8.85861 0.606453 8.84899 0.5962 8.88138 0.58239ZM8.10739 0.540029C8.1353 0.528026 8.18098 0.528026 8.2089 0.540029C8.23681 0.552033 8.21397 0.561848 8.15814 0.561848C8.10231 0.561848 8.07947 0.552025 8.10739 0.540029ZM8.63777 0.539041C8.66708 0.526548 8.70209 0.52809 8.71558 0.542465C8.72907 0.556839 8.70508 0.567061 8.66229 0.565182C8.61499 0.563105 8.60538 0.552852 8.63777 0.539041Z" fill="#F16460"/>
<path d="M10.5558 13.2677C10.5541 13.244 10.7205 12.0465 10.9256 10.6068L11.2985 7.9891L11.903 7.36546C12.5261 6.72269 13.0223 6.1064 13.2931 5.63896C13.3783 5.49181 13.453 5.3714 13.459 5.3714C13.4727 5.3714 13.5126 5.26141 11.9345 9.56837C10.4528 13.6121 10.5598 13.3249 10.5558 13.2677ZM1.70232 11.2342C1.70232 11.1985 1.70949 11.1693 1.71827 11.1693C1.72704 11.1693 1.74474 11.1985 1.7576 11.2342C1.77046 11.2699 1.76328 11.2991 1.74164 11.2991C1.72001 11.2991 1.70232 11.2699 1.70232 11.2342ZM1.62431 10.2354C1.62626 10.185 1.63588 10.1748 1.64884 10.2093C1.66057 10.2405 1.65913 10.2778 1.64564 10.2922C1.63215 10.3066 1.62255 10.281 1.62431 10.2354ZM8.45453 10.03C8.43668 9.99838 7.55418 9.31611 6.49343 8.51389C5.43269 7.71167 4.56021 7.04141 4.55459 7.02441C4.54079 6.9827 8.78418 4.81492 8.79982 4.85569C8.80661 4.87338 8.7368 6.00424 8.64468 7.36872C8.55256 8.73321 8.48446 9.90316 8.49335 9.9686C8.51134 10.1011 8.50252 10.1151 8.45453 10.03ZM1.5025 8.76431C1.50445 8.71391 1.51407 8.70365 1.52703 8.73817C1.53876 8.7694 1.53732 8.80673 1.52383 8.8211C1.51034 8.83548 1.50074 8.80991 1.5025 8.76431ZM2.51436 6.61134C2.04629 6.49328 1.76811 6.3069 1.59786 5.99733C0.988147 4.88865 2.53734 2.86394 4.98418 1.57161C6.02942 1.01955 6.90319 0.726072 7.90291 0.591286C8.40058 0.524188 8.46966 0.524041 8.85707 0.58932C10.065 0.792846 10.4529 1.49741 9.96324 2.59844C9.58524 3.44846 8.72673 4.35804 7.56941 5.13467C6.67185 5.73699 5.35202 6.32261 4.40239 6.5399C3.891 6.65691 2.85102 6.69627 2.51436 6.61134ZM10.9015 5.34436C9.78633 5.04899 8.86702 4.79993 8.85853 4.79089C8.83662 4.76754 10.5952 1.99652 10.6319 1.99652C10.6607 1.99652 13.0711 5.82321 13.0711 5.8689C13.0711 5.91445 12.8729 5.86653 10.9015 5.34436Z" fill="#EA1420"/>
<path d="M9.51832 11.7906C8.98237 10.8786 8.52786 10.0871 8.50831 10.0318C8.4766 9.94199 8.78954 4.85856 8.82945 4.81503C8.83728 4.80649 9.78684 5.04705 10.9396 5.3496C12.0923 5.65215 13.0448 5.8898 13.0561 5.8777C13.0675 5.8656 12.5269 4.9772 11.855 3.90347C11.0873 2.67684 10.6524 1.9443 10.6848 1.93258C10.7132 1.92231 11.1652 1.81684 11.6892 1.69818L12.642 1.48244L12.9276 1.64208C13.0961 1.7363 13.323 1.91699 13.4812 2.083C13.7834 2.40025 13.8817 2.62148 13.9648 3.17139C14.0076 3.45466 14.005 3.5593 13.9471 3.8951C13.7414 5.08799 13.168 6.06049 11.8983 7.37032L11.2985 7.9891L10.9239 10.6284C10.718 12.08 10.5367 13.3085 10.5211 13.3583C10.4983 13.4312 10.3031 13.1261 9.51832 11.7906ZM6.41222 12.4652C4.32423 11.9452 2.42859 11.4766 2.19969 11.4238C1.9708 11.3711 1.78352 11.3094 1.78352 11.2868C1.78352 11.258 4.35446 7.20333 4.488 7.0215C4.50313 7.0009 8.43828 9.97156 8.44059 10.0053C8.44151 10.0196 8.26421 10.1203 8.04648 10.2291C7.271 10.6166 6.43537 10.937 5.69459 11.1308C5.4975 11.1823 5.32203 11.238 5.30465 11.2544C5.28727 11.2708 6.37441 11.748 7.72051 12.3149C10.0854 13.3108 10.3367 13.42 10.2492 13.4136C10.2268 13.4119 8.50022 12.9852 6.41222 12.4652ZM1.53947 11.2341C0.795539 10.9568 0.21442 10.3355 0.0564553 9.64861C-0.0204799 9.31407 -0.00466944 9.07517 0.145193 8.30788L0.20969 7.97763L0.771861 7.37971C1.08106 7.05085 1.34032 6.79057 1.34799 6.80132C1.37168 6.83451 1.71204 11.1493 1.69657 11.2203C1.68408 11.2777 1.66172 11.2797 1.53947 11.2341Z" fill="#950D15"/>
</svg>
