<svg width="14" height="14" viewBox="0 0 14 14" fill="none" xmlns="http://www.w3.org/2000/svg">
<path d="M5.95833 5.22304H7.55147C8.53186 5.22304 8.53186 6.20343 7.55147 6.20343H5.95833V5.22304ZM2.15931 9.75735H7.06127V8.40931H5.95833V7.42892H7.18382C8.53186 7.42892 7.79657 9.75735 8.89951 9.75735H11.9632V7.42892H11.2279V7.67402C11.2279 8.65441 10.125 8.53186 10.0025 7.91912C9.8799 7.30637 9.38971 6.81618 9.26716 6.81618C11.1054 5.83578 10.0025 3.875 8.53186 3.875H2.77206V5.22304H3.99755V8.40931H2.15931V9.75735Z" fill="white"/>
<path d="M12.6373 7.36765L13.25 7L12.6373 6.63235V7.36765Z" fill="white"/>
<path d="M12.4572 8.46036L13.1299 8.21931L12.6007 7.73919L12.4572 8.46036Z" fill="white"/>
<path d="M12.0675 9.49695L12.7742 9.39177L12.3488 8.81762L12.0675 9.49695Z" fill="white"/>
<path d="M11.483 10.4376L12.1967 10.4723L11.8915 9.8262L11.483 10.4376Z" fill="white"/>
<path d="M10.7262 11.2461L11.4194 11.4194L11.2461 10.7262L10.7262 11.2461Z" fill="white"/>
<path d="M9.8262 11.8915L10.4723 12.1967L10.4376 11.483L9.8262 11.8915Z" fill="white"/>
<path d="M8.81762 12.3488L9.39177 12.7742L9.49695 12.0675L8.81762 12.3488Z" fill="white"/>
<path d="M7.73919 12.6007L8.21931 13.1299L8.46036 12.4572L7.73919 12.6007Z" fill="white"/>
<path d="M6.63235 12.6373L7 13.25L7.36765 12.6373H6.63235Z" fill="white"/>
<path d="M5.53964 12.4572L5.78069 13.1299L6.26081 12.6007L5.53964 12.4572Z" fill="white"/>
<path d="M4.50305 12.0675L4.60823 12.7742L5.18238 12.3488L4.50305 12.0675Z" fill="white"/>
<path d="M3.56242 11.483L3.52769 12.1967L4.1738 11.8915L3.56242 11.483Z" fill="white"/>
<path d="M2.75389 10.7262L2.58058 11.4194L3.27382 11.2461L2.75389 10.7262Z" fill="white"/>
<path d="M2.10854 9.8262L1.80332 10.4723L2.51705 10.4376L2.10854 9.8262Z" fill="white"/>
<path d="M1.65116 8.81762L1.22575 9.39177L1.93255 9.49695L1.65116 8.81762Z" fill="white"/>
<path d="M1.39934 7.73919L0.870092 8.21931L1.54279 8.46036L1.39934 7.73919Z" fill="white"/>
<path d="M1.36275 6.63235L0.75 7L1.36275 7.36765V6.63235Z" fill="white"/>
<path d="M1.54279 5.53964L0.870092 5.78069L1.39934 6.26081L1.54279 5.53964Z" fill="white"/>
<path d="M1.93255 4.50305L1.22575 4.60823L1.65116 5.18238L1.93255 4.50305Z" fill="white"/>
<path d="M2.51705 3.56242L1.80331 3.52769L2.10854 4.1738L2.51705 3.56242Z" fill="white"/>
<path d="M3.27382 2.75389L2.58058 2.58058L2.75389 3.27382L3.27382 2.75389Z" fill="white"/>
<path d="M4.1738 2.10854L3.52769 1.80332L3.56242 2.51705L4.1738 2.10854Z" fill="white"/>
<path d="M5.18238 1.65116L4.60823 1.22575L4.50305 1.93255L5.18238 1.65116Z" fill="white"/>
<path d="M6.26081 1.39934L5.78069 0.870092L5.53964 1.54279L6.26081 1.39934Z" fill="white"/>
<path d="M7.36765 1.36275L7 0.75L6.63235 1.36275H7.36765Z" fill="white"/>
<path d="M8.46036 1.54279L8.21931 0.870092L7.73919 1.39934L8.46036 1.54279Z" fill="white"/>
<path d="M9.49695 1.93255L9.39177 1.22575L8.81762 1.65116L9.49695 1.93255Z" fill="white"/>
<path d="M10.4376 2.51705L10.4723 1.80331L9.8262 2.10854L10.4376 2.51705Z" fill="white"/>
<path d="M11.2461 3.27382L11.4194 2.58058L10.7262 2.75389L11.2461 3.27382Z" fill="white"/>
<path d="M11.8915 4.1738L12.1967 3.52769L11.483 3.56242L11.8915 4.1738Z" fill="white"/>
<path d="M12.3488 5.18238L12.7742 4.60823L12.0675 4.50305L12.3488 5.18238Z" fill="white"/>
<path d="M12.6007 6.26081L13.1299 5.78069L12.4572 5.53964L12.6007 6.26081Z" fill="white"/>
<path d="M6.14216 1.85294L7 2.71078L7.85784 1.85294H6.14216Z" fill="white"/>
<path d="M11.6301 4.59361L11.0793 5.67456L12.1602 6.22533L11.6301 4.59361Z" fill="white"/>
<path d="M10.7194 10.6598L9.52114 10.47L9.33136 11.6683L10.7194 10.6598Z" fill="white"/>
<path d="M4.66864 11.6683L4.47886 10.47L3.28063 10.6598L4.66864 11.6683Z" fill="white"/>
<path d="M1.83977 6.22533L2.92071 5.67456L2.36994 4.59361L1.83977 6.22533Z" fill="white"/>
<path d="M5.95833 5.22304V4.98804C5.82855 4.98804 5.72333 5.09325 5.72333 5.22304H5.95833ZM5.95833 6.20343H5.72333C5.72333 6.33322 5.82855 6.43843 5.95833 6.43843V6.20343ZM2.15931 9.75735H1.92431C1.92431 9.88714 2.02953 9.99235 2.15931 9.99235V9.75735ZM7.06127 9.75735V9.99235C7.19106 9.99235 7.29627 9.88714 7.29627 9.75735H7.06127ZM7.06127 8.40931H7.29627C7.29627 8.27953 7.19106 8.17431 7.06127 8.17431V8.40931ZM5.95833 8.40931H5.72333C5.72333 8.5391 5.82855 8.64431 5.95833 8.64431V8.40931ZM5.95833 7.42892V7.19392C5.82855 7.19392 5.72333 7.29913 5.72333 7.42892H5.95833ZM11.9632 9.75735V9.99235C12.093 9.99235 12.1982 9.88714 12.1982 9.75735H11.9632ZM11.9632 7.42892H12.1982C12.1982 7.29913 12.093 7.19392 11.9632 7.19392V7.42892ZM11.2279 7.42892V7.19392C11.0982 7.19392 10.9929 7.29913 10.9929 7.42892H11.2279ZM9.26716 6.81618L9.15657 6.60882C9.06142 6.65957 9.01302 6.76856 9.03917 6.87317C9.06533 6.97779 9.15932 7.05118 9.26716 7.05118V6.81618ZM2.77206 3.875V3.64C2.64227 3.64 2.53706 3.74521 2.53706 3.875H2.77206ZM2.77206 5.22304H2.53706C2.53706 5.35283 2.64227 5.45804 2.77206 5.45804V5.22304ZM3.99755 5.22304H4.23255C4.23255 5.09325 4.12734 4.98804 3.99755 4.98804V5.22304ZM3.99755 8.40931V8.64431C4.12734 8.64431 4.23255 8.5391 4.23255 8.40931H3.99755ZM2.15931 8.40931V8.17431C2.02953 8.17431 1.92431 8.27953 1.92431 8.40931H2.15931ZM12.6373 7.36765H12.4023C12.4023 7.45231 12.4478 7.53043 12.5215 7.57214C12.5951 7.61386 12.6856 7.61272 12.7582 7.56916L12.6373 7.36765ZM13.25 7L13.3709 7.20151C13.4417 7.15904 13.485 7.08255 13.485 7C13.485 6.91745 13.4417 6.84096 13.3709 6.79849L13.25 7ZM12.6373 6.63235L12.7582 6.43084C12.6856 6.38728 12.5951 6.38614 12.5215 6.42786C12.4478 6.46957 12.4023 6.54769 12.4023 6.63235H12.6373ZM12.4572 8.46036L12.2267 8.41451C12.2102 8.49755 12.2396 8.58305 12.3038 8.63834C12.3679 8.69362 12.4568 8.71014 12.5365 8.68158L12.4572 8.46036ZM13.1299 8.21931L13.2092 8.44054C13.2869 8.4127 13.3443 8.34612 13.3604 8.26516C13.3765 8.1842 13.3489 8.10073 13.2878 8.04526L13.1299 8.21931ZM12.6007 7.73919L12.7586 7.56514C12.6959 7.50825 12.6074 7.4895 12.527 7.51604C12.4466 7.54257 12.3867 7.61031 12.3702 7.69335L12.6007 7.73919ZM12.0675 9.49695L11.8503 9.40701C11.8179 9.48523 11.8301 9.57483 11.8822 9.64157C11.9343 9.7083 12.0183 9.74185 12.102 9.72939L12.0675 9.49695ZM12.7742 9.39177L12.8088 9.62421C12.8905 9.61206 12.9598 9.55797 12.9914 9.4817C13.0229 9.40544 13.0122 9.31819 12.9631 9.25187L12.7742 9.39177ZM12.3488 8.81762L12.5377 8.67772C12.4873 8.60969 12.4042 8.57404 12.3201 8.58438C12.2361 8.59473 12.1641 8.64947 12.1317 8.72769L12.3488 8.81762ZM11.483 10.4376L11.2876 10.307C11.2405 10.3774 11.235 10.4677 11.2731 10.5433C11.3112 10.6189 11.387 10.6682 11.4715 10.6723L11.483 10.4376ZM12.1967 10.4723L12.1853 10.707C12.2677 10.711 12.3462 10.6715 12.3921 10.6029C12.4379 10.5342 12.4444 10.4466 12.4092 10.3719L12.1967 10.4723ZM11.8915 9.8262L12.1039 9.72583C12.0678 9.64927 11.9932 9.59809 11.9088 9.59184C11.8244 9.5856 11.7431 9.62525 11.6961 9.69564L11.8915 9.8262ZM10.7262 11.2461L10.56 11.0799C10.5001 11.1398 10.4771 11.2272 10.4997 11.3088C10.5223 11.3904 10.587 11.4536 10.6692 11.4741L10.7262 11.2461ZM11.4194 11.4194L11.3624 11.6474C11.4425 11.6674 11.5272 11.644 11.5856 11.5856C11.644 11.5272 11.6674 11.4425 11.6474 11.3624L11.4194 11.4194ZM11.2461 10.7262L11.4741 10.6692C11.4536 10.587 11.3904 10.5223 11.3088 10.4997C11.2272 10.4771 11.1398 10.5001 11.0799 10.56L11.2461 10.7262ZM9.8262 11.8915L9.69565 11.6961C9.62525 11.7431 9.5856 11.8244 9.59185 11.9088C9.59809 11.9932 9.64927 12.0678 9.72583 12.1039L9.8262 11.8915ZM10.4723 12.1967L10.3719 12.4092C10.4466 12.4444 10.5342 12.4379 10.6029 12.3921C10.6715 12.3462 10.711 12.2677 10.707 12.1853L10.4723 12.1967ZM10.4376 11.483L10.6723 11.4715C10.6682 11.387 10.6189 11.3112 10.5433 11.2731C10.4677 11.235 10.3774 11.2405 10.307 11.2876L10.4376 11.483ZM8.81762 12.3488L8.72769 12.1317C8.64947 12.1641 8.59473 12.2361 8.58438 12.3201C8.57404 12.4042 8.60969 12.4873 8.67772 12.5377L8.81762 12.3488ZM9.39177 12.7742L9.25187 12.9631C9.31819 13.0122 9.40544 13.0229 9.4817 12.9914C9.55797 12.9598 9.61206 12.8905 9.62421 12.8088L9.39177 12.7742ZM9.49695 12.0675L9.72939 12.102C9.74185 12.0183 9.7083 11.9343 9.64157 11.8822C9.57483 11.8301 9.48523 11.8179 9.40701 11.8503L9.49695 12.0675ZM7.73919 12.6007L7.69335 12.3702C7.61031 12.3867 7.54257 12.4466 7.51604 12.527C7.4895 12.6074 7.50825 12.6959 7.56514 12.7586L7.73919 12.6007ZM8.21931 13.1299L8.04526 13.2878C8.10073 13.3489 8.1842 13.3765 8.26516 13.3604C8.34612 13.3443 8.4127 13.2869 8.44054 13.2092L8.21931 13.1299ZM8.46036 12.4572L8.68158 12.5365C8.71014 12.4568 8.69362 12.3679 8.63834 12.3038C8.58305 12.2396 8.49755 12.2102 8.41451 12.2267L8.46036 12.4572ZM6.63235 12.6373V12.4023C6.54769 12.4023 6.46957 12.4478 6.42786 12.5215C6.38614 12.5951 6.38728 12.6856 6.43084 12.7582L6.63235 12.6373ZM7 13.25L6.79849 13.3709C6.84096 13.4417 6.91745 13.485 7 13.485C7.08255 13.485 7.15904 13.4417 7.20151 13.3709L7 13.25ZM7.36765 12.6373L7.56916 12.7582C7.61272 12.6856 7.61386 12.5951 7.57214 12.5215C7.53043 12.4478 7.45231 12.4023 7.36765 12.4023V12.6373ZM5.53964 12.4572L5.58549 12.2267C5.50245 12.2102 5.41695 12.2396 5.36166 12.3038C5.30638 12.3679 5.28986 12.4568 5.31842 12.5365L5.53964 12.4572ZM5.78069 13.1299L5.55946 13.2092C5.5873 13.2869 5.65388 13.3443 5.73484 13.3604C5.8158 13.3765 5.89927 13.3489 5.95474 13.2878L5.78069 13.1299ZM6.26081 12.6007L6.43486 12.7586C6.49175 12.6959 6.5105 12.6074 6.48396 12.527C6.45743 12.4466 6.38969 12.3867 6.30665 12.3702L6.26081 12.6007ZM4.50305 12.0675L4.59298 11.8503C4.51477 11.8179 4.42516 11.8301 4.35843 11.8822C4.2917 11.9343 4.25815 12.0183 4.27061 12.102L4.50305 12.0675ZM4.60823 12.7742L4.37579 12.8088C4.38794 12.8905 4.44203 12.9598 4.5183 12.9914C4.59456 13.0229 4.68181 13.0122 4.74813 12.9631L4.60823 12.7742ZM5.18238 12.3488L5.32228 12.5377C5.39031 12.4873 5.42596 12.4042 5.41562 12.3201C5.40527 12.2361 5.35053 12.1641 5.27231 12.1317L5.18238 12.3488ZM3.56242 11.483L3.69298 11.2876C3.62259 11.2405 3.53233 11.235 3.45672 11.2731C3.3811 11.3112 3.33182 11.387 3.3277 11.4715L3.56242 11.483ZM3.52769 12.1967L3.29296 12.1853C3.28895 12.2677 3.32849 12.3462 3.39713 12.3921C3.46576 12.4379 3.55343 12.4444 3.62806 12.4092L3.52769 12.1967ZM4.1738 11.8915L4.27417 12.1039C4.35073 12.0678 4.40191 11.9932 4.40816 11.9088C4.4144 11.8244 4.37475 11.7431 4.30436 11.6961L4.1738 11.8915ZM2.75389 10.7262L2.92006 10.56C2.8602 10.5001 2.77276 10.4771 2.69116 10.4997C2.60957 10.5223 2.54644 10.587 2.52591 10.6692L2.75389 10.7262ZM2.58058 11.4194L2.3526 11.3624C2.33258 11.4425 2.35604 11.5272 2.41441 11.5856C2.47278 11.644 2.5575 11.6674 2.63758 11.6474L2.58058 11.4194ZM3.27382 11.2461L3.33082 11.4741C3.41296 11.4536 3.4777 11.3904 3.5003 11.3088C3.5229 11.2272 3.49986 11.1398 3.43999 11.0799L3.27382 11.2461ZM2.10854 9.8262L2.30394 9.69565C2.2569 9.62525 2.17563 9.5856 2.0912 9.59185C2.00677 9.59809 1.93222 9.64927 1.89606 9.72583L2.10854 9.8262ZM1.80332 10.4723L1.59083 10.3719C1.55557 10.4466 1.56206 10.5342 1.60792 10.6029C1.65378 10.6715 1.73229 10.711 1.81474 10.707L1.80332 10.4723ZM2.51705 10.4376L2.52847 10.6723C2.61303 10.6682 2.68885 10.6189 2.72693 10.5433C2.76501 10.4677 2.75948 10.3774 2.71244 10.307L2.51705 10.4376ZM1.65116 8.81762L1.86828 8.72769C1.83588 8.64947 1.76391 8.59473 1.67988 8.58438C1.59585 8.57404 1.51275 8.60969 1.46235 8.67772L1.65116 8.81762ZM1.22575 9.39177L1.03694 9.25187C0.987793 9.31819 0.977052 9.40544 1.00864 9.4817C1.04023 9.55797 1.10952 9.61206 1.19116 9.62421L1.22575 9.39177ZM1.93255 9.49695L1.89796 9.72939C1.9817 9.74185 2.06567 9.7083 2.11778 9.64157C2.16988 9.57483 2.18206 9.48523 2.14966 9.40701L1.93255 9.49695ZM1.39934 7.73919L1.62982 7.69335C1.61331 7.61031 1.5534 7.54257 1.473 7.51604C1.39261 7.4895 1.30415 7.50825 1.24144 7.56514L1.39934 7.73919ZM0.870092 8.21931L0.712196 8.04526C0.651058 8.10073 0.623503 8.1842 0.639607 8.26516C0.655711 8.34612 0.713113 8.4127 0.790821 8.44054L0.870092 8.21931ZM1.54279 8.46036L1.46352 8.68158C1.54322 8.71014 1.63212 8.69362 1.69624 8.63834C1.76036 8.58305 1.78979 8.49755 1.77327 8.41451L1.54279 8.46036ZM1.36275 6.63235H1.59775C1.59775 6.54769 1.5522 6.46957 1.47853 6.42786C1.40485 6.38614 1.31444 6.38728 1.24184 6.43084L1.36275 6.63235ZM0.75 7L0.629093 6.79849C0.55831 6.84096 0.515 6.91745 0.515 7C0.515 7.08255 0.55831 7.15904 0.629093 7.20151L0.75 7ZM1.36275 7.36765L1.24184 7.56916C1.31444 7.61272 1.40485 7.61386 1.47853 7.57214C1.5522 7.53043 1.59775 7.45231 1.59775 7.36765H1.36275ZM1.54279 5.53964L1.77327 5.58549C1.78979 5.50245 1.76036 5.41695 1.69624 5.36166C1.63212 5.30638 1.54322 5.28986 1.46352 5.31842L1.54279 5.53964ZM0.870092 5.78069L0.790822 5.55946C0.713113 5.5873 0.655712 5.65388 0.639608 5.73484C0.623503 5.8158 0.651058 5.89927 0.712196 5.95474L0.870092 5.78069ZM1.39934 6.26081L1.24144 6.43486C1.30415 6.49175 1.39261 6.5105 1.473 6.48396C1.5534 6.45743 1.61331 6.38969 1.62982 6.30665L1.39934 6.26081ZM1.93255 4.50305L2.14966 4.59298C2.18206 4.51477 2.16988 4.42516 2.11778 4.35843C2.06567 4.2917 1.9817 4.25815 1.89796 4.27061L1.93255 4.50305ZM1.22575 4.60823L1.19116 4.37579C1.10952 4.38794 1.04023 4.44203 1.00864 4.5183C0.977052 4.59456 0.987793 4.68181 1.03694 4.74813L1.22575 4.60823ZM1.65116 5.18238L1.46235 5.32228C1.51275 5.39031 1.59585 5.42596 1.67988 5.41562C1.76391 5.40527 1.83588 5.35053 1.86828 5.27231L1.65116 5.18238ZM2.51705 3.56242L2.71244 3.69298C2.75948 3.62259 2.76501 3.53233 2.72693 3.45672C2.68885 3.3811 2.61303 3.33182 2.52847 3.3277L2.51705 3.56242ZM1.80331 3.52769L1.81474 3.29296C1.73229 3.28895 1.65378 3.32849 1.60792 3.39713C1.56206 3.46576 1.55557 3.55343 1.59083 3.62806L1.80331 3.52769ZM2.10854 4.1738L1.89606 4.27417C1.93222 4.35073 2.00677 4.40191 2.0912 4.40816C2.17563 4.4144 2.2569 4.37475 2.30394 4.30436L2.10854 4.1738ZM3.27382 2.75389L3.43999 2.92006C3.49986 2.8602 3.5229 2.77276 3.5003 2.69116C3.4777 2.60957 3.41296 2.54644 3.33082 2.52591L3.27382 2.75389ZM2.58058 2.58058L2.63758 2.3526C2.5575 2.33258 2.47278 2.35604 2.41441 2.41441C2.35604 2.47278 2.33258 2.5575 2.3526 2.63758L2.58058 2.58058ZM2.75389 3.27382L2.52591 3.33082C2.54644 3.41296 2.60957 3.4777 2.69116 3.5003C2.77276 3.5229 2.8602 3.49986 2.92006 3.43999L2.75389 3.27382ZM4.1738 2.10854L4.30436 2.30394C4.37475 2.2569 4.4144 2.17563 4.40816 2.0912C4.40191 2.00677 4.35073 1.93222 4.27417 1.89606L4.1738 2.10854ZM3.52769 1.80332L3.62806 1.59083C3.55343 1.55557 3.46576 1.56206 3.39713 1.60792C3.32849 1.65378 3.28895 1.73229 3.29296 1.81474L3.52769 1.80332ZM3.56242 2.51705L3.3277 2.52847C3.33181 2.61303 3.3811 2.68885 3.45671 2.72693C3.53233 2.76501 3.62259 2.75948 3.69298 2.71244L3.56242 2.51705ZM5.18238 1.65116L5.27231 1.86828C5.35053 1.83588 5.40527 1.76391 5.41562 1.67988C5.42596 1.59585 5.39031 1.51275 5.32228 1.46235L5.18238 1.65116ZM4.60823 1.22575L4.74813 1.03694C4.68181 0.987793 4.59456 0.977052 4.5183 1.00864C4.44203 1.04023 4.38794 1.10952 4.37579 1.19116L4.60823 1.22575ZM4.50305 1.93255L4.27061 1.89796C4.25815 1.9817 4.2917 2.06567 4.35843 2.11778C4.42517 2.16988 4.51477 2.18206 4.59298 2.14966L4.50305 1.93255ZM6.26081 1.39934L6.30665 1.62982C6.38969 1.61331 6.45743 1.5534 6.48396 1.473C6.5105 1.39261 6.49175 1.30415 6.43486 1.24144L6.26081 1.39934ZM5.78069 0.870092L5.95474 0.712196C5.89927 0.651058 5.8158 0.623503 5.73484 0.639607C5.65388 0.655711 5.5873 0.713113 5.55946 0.790821L5.78069 0.870092ZM5.53964 1.54279L5.31842 1.46352C5.28986 1.54322 5.30638 1.63212 5.36166 1.69624C5.41695 1.76036 5.50245 1.78979 5.58549 1.77327L5.53964 1.54279ZM7.36765 1.36275V1.59775C7.45231 1.59775 7.53043 1.5522 7.57214 1.47853C7.61386 1.40485 7.61272 1.31444 7.56916 1.24184L7.36765 1.36275ZM7 0.75L7.20151 0.629093C7.15904 0.55831 7.08255 0.515 7 0.515C6.91745 0.515 6.84096 0.55831 6.79849 0.629093L7 0.75ZM6.63235 1.36275L6.43084 1.24184C6.38728 1.31444 6.38614 1.40485 6.42786 1.47853C6.46957 1.5522 6.54769 1.59775 6.63235 1.59775V1.36275ZM8.46036 1.54279L8.41451 1.77327C8.49755 1.78979 8.58305 1.76036 8.63834 1.69624C8.69362 1.63212 8.71014 1.54322 8.68158 1.46352L8.46036 1.54279ZM8.21931 0.870092L8.44054 0.790822C8.4127 0.713113 8.34612 0.655712 8.26516 0.639608C8.1842 0.623503 8.10073 0.651058 8.04526 0.712196L8.21931 0.870092ZM7.73919 1.39934L7.56514 1.24144C7.50825 1.30415 7.4895 1.39261 7.51604 1.473C7.54257 1.5534 7.61031 1.61331 7.69335 1.62982L7.73919 1.39934ZM9.49695 1.93255L9.40701 2.14966C9.48523 2.18206 9.57483 2.16988 9.64157 2.11778C9.7083 2.06567 9.74185 1.9817 9.72939 1.89796L9.49695 1.93255ZM9.39177 1.22575L9.62421 1.19117C9.61206 1.10952 9.55797 1.04023 9.4817 1.00864C9.40544 0.977052 9.31819 0.987793 9.25187 1.03694L9.39177 1.22575ZM8.81762 1.65116L8.67772 1.46235C8.60969 1.51275 8.57404 1.59585 8.58438 1.67988C8.59473 1.76391 8.64947 1.83588 8.72769 1.86828L8.81762 1.65116ZM10.4376 2.51705L10.307 2.71244C10.3774 2.75948 10.4677 2.76501 10.5433 2.72693C10.6189 2.68885 10.6682 2.61303 10.6723 2.52847L10.4376 2.51705ZM10.4723 1.80331L10.707 1.81474C10.711 1.73229 10.6715 1.65378 10.6029 1.60792C10.5342 1.56206 10.4466 1.55557 10.3719 1.59083L10.4723 1.80331ZM9.8262 2.10854L9.72583 1.89606C9.64927 1.93222 9.59809 2.00677 9.59184 2.0912C9.5856 2.17563 9.62525 2.2569 9.69564 2.30394L9.8262 2.10854ZM11.2461 3.27382L11.0799 3.43999C11.1398 3.49986 11.2272 3.5229 11.3088 3.5003C11.3904 3.4777 11.4536 3.41296 11.4741 3.33082L11.2461 3.27382ZM11.4194 2.58058L11.6474 2.63758C11.6674 2.5575 11.644 2.47278 11.5856 2.41441C11.5272 2.35604 11.4425 2.33258 11.3624 2.3526L11.4194 2.58058ZM10.7262 2.75389L10.6692 2.52591C10.587 2.54644 10.5223 2.60957 10.4997 2.69116C10.4771 2.77276 10.5001 2.8602 10.56 2.92006L10.7262 2.75389ZM11.8915 4.1738L11.6961 4.30436C11.7431 4.37475 11.8244 4.4144 11.9088 4.40816C11.9932 4.40191 12.0678 4.35073 12.1039 4.27417L11.8915 4.1738ZM12.1967 3.52769L12.4092 3.62806C12.4444 3.55343 12.4379 3.46576 12.3921 3.39713C12.3462 3.32849 12.2677 3.28895 12.1853 3.29296L12.1967 3.52769ZM11.483 3.56242L11.4715 3.3277C11.387 3.33181 11.3112 3.3811 11.2731 3.45671C11.235 3.53233 11.2405 3.62259 11.2876 3.69298L11.483 3.56242ZM12.3488 5.18238L12.1317 5.27231C12.1641 5.35053 12.2361 5.40527 12.3201 5.41562C12.4042 5.42596 12.4873 5.39031 12.5377 5.32228L12.3488 5.18238ZM12.7742 4.60823L12.9631 4.74813C13.0122 4.68181 13.0229 4.59456 12.9914 4.5183C12.9598 4.44203 12.8905 4.38794 12.8088 4.37579L12.7742 4.60823ZM12.0675 4.50305L12.102 4.27061C12.0183 4.25815 11.9343 4.2917 11.8822 4.35843C11.8301 4.42516 11.8179 4.51477 11.8503 4.59298L12.0675 4.50305ZM12.6007 6.26081L12.3702 6.30665C12.3867 6.38969 12.4466 6.45743 12.527 6.48396C12.6074 6.5105 12.6959 6.49175 12.7586 6.43486L12.6007 6.26081ZM13.1299 5.78069L13.2878 5.95474C13.3489 5.89927 13.3765 5.8158 13.3604 5.73484C13.3443 5.65388 13.2869 5.5873 13.2092 5.55946L13.1299 5.78069ZM12.4572 5.53964L12.5365 5.31842C12.4568 5.28986 12.3679 5.30638 12.3038 5.36166C12.2396 5.41695 12.2102 5.50245 12.2267 5.58549L12.4572 5.53964ZM6.14216 1.85294V1.61794C6.04711 1.61794 5.96142 1.6752 5.92505 1.76301C5.88867 1.85082 5.90878 1.9519 5.97599 2.01911L6.14216 1.85294ZM7 2.71078L6.83383 2.87695C6.9256 2.96873 7.0744 2.96873 7.16617 2.87695L7 2.71078ZM7.85784 1.85294L8.02401 2.01911C8.09122 1.9519 8.11133 1.85082 8.07495 1.76301C8.03858 1.6752 7.95289 1.61794 7.85784 1.61794V1.85294ZM11.6301 4.59361L11.8536 4.52099C11.8242 4.4306 11.7432 4.3668 11.6485 4.35934C11.5537 4.35188 11.4638 4.40224 11.4207 4.48693L11.6301 4.59361ZM11.0793 5.67456L10.8699 5.56787C10.811 5.68351 10.857 5.82502 10.9726 5.88395L11.0793 5.67456ZM12.1602 6.22533L12.0535 6.43471C12.1382 6.47787 12.2406 6.46575 12.3129 6.40402C12.3851 6.34229 12.4131 6.24311 12.3837 6.15271L12.1602 6.22533ZM10.7194 10.6598L10.8575 10.8499C10.9344 10.7941 10.9701 10.6974 10.9479 10.605C10.9257 10.5125 10.85 10.4426 10.7561 10.4277L10.7194 10.6598ZM9.52114 10.47L9.5579 10.2379C9.49634 10.2282 9.43343 10.2433 9.38301 10.2799C9.33259 10.3166 9.29878 10.3717 9.28903 10.4333L9.52114 10.47ZM9.33136 11.6683L9.09925 11.6315C9.08438 11.7254 9.12753 11.819 9.20857 11.8687C9.28961 11.9183 9.39259 11.9143 9.46949 11.8584L9.33136 11.6683ZM4.66864 11.6683L4.53051 11.8584C4.60741 11.9143 4.71039 11.9183 4.79143 11.8687C4.87247 11.819 4.91562 11.7254 4.90075 11.6315L4.66864 11.6683ZM4.47886 10.47L4.71097 10.4333C4.70122 10.3717 4.66741 10.3166 4.61699 10.2799C4.56657 10.2433 4.50366 10.2282 4.4421 10.2379L4.47886 10.47ZM3.28063 10.6598L3.24386 10.4277C3.14998 10.4426 3.07431 10.5125 3.05212 10.605C3.02993 10.6974 3.0656 10.7941 3.1425 10.8499L3.28063 10.6598ZM1.83977 6.22533L1.61627 6.15271C1.5869 6.24311 1.61487 6.34229 1.68715 6.40402C1.75942 6.46575 1.86177 6.47787 1.94646 6.43471L1.83977 6.22533ZM2.92071 5.67456L3.0274 5.88395C3.08293 5.85565 3.12495 5.80645 3.14421 5.74718C3.16347 5.6879 3.1584 5.6234 3.1301 5.56787L2.92071 5.67456ZM2.36994 4.59361L2.57933 4.48693C2.53618 4.40224 2.44626 4.35188 2.35151 4.35934C2.25675 4.3668 2.17582 4.4306 2.14645 4.52099L2.36994 4.59361ZM5.95833 5.45804H7.55147V4.98804H5.95833V5.45804ZM7.55147 5.45804C7.979 5.45804 8.05176 5.65614 8.05176 5.71324C8.05176 5.77033 7.979 5.96843 7.55147 5.96843V6.43843C8.10433 6.43843 8.52176 6.14633 8.52176 5.71324C8.52176 5.28014 8.10433 4.98804 7.55147 4.98804V5.45804ZM7.55147 5.96843H5.95833V6.43843H7.55147V5.96843ZM6.19333 6.20343V5.22304H5.72333V6.20343H6.19333ZM2.15931 9.99235H7.06127V9.52235H2.15931V9.99235ZM7.29627 9.75735V8.40931H6.82627V9.75735H7.29627ZM7.06127 8.17431H5.95833V8.64431H7.06127V8.17431ZM6.19333 8.40931V7.42892H5.72333V8.40931H6.19333ZM5.95833 7.66392H7.18382V7.19392H5.95833V7.66392ZM7.18382 7.66392C7.31727 7.66392 7.41181 7.69234 7.48246 7.73285C7.55368 7.77367 7.61386 7.83439 7.66681 7.91823C7.77866 8.09531 7.84113 8.34472 7.90362 8.64155C7.96156 8.91679 8.02114 9.24547 8.14477 9.49715C8.20919 9.62828 8.29789 9.75461 8.42675 9.84776C8.5588 9.9432 8.71726 9.99235 8.89951 9.99235V9.52235C8.80603 9.52235 8.7462 9.49874 8.70208 9.46685C8.65478 9.43266 8.60944 9.37708 8.56662 9.28992C8.4758 9.10502 8.42814 8.85159 8.36354 8.54472C8.30348 8.25945 8.22808 7.92675 8.06419 7.66725C7.97927 7.53279 7.86713 7.41161 7.71622 7.3251C7.56476 7.23827 7.38739 7.19392 7.18382 7.19392V7.66392ZM8.89951 9.99235H11.9632V9.52235H8.89951V9.99235ZM12.1982 9.75735V7.42892H11.7282V9.75735H12.1982ZM11.9632 7.19392H11.2279V7.66392H11.9632V7.19392ZM10.9929 7.42892V7.67402H11.4629V7.42892H10.9929ZM10.9929 7.67402C10.9929 7.87463 10.9373 7.99025 10.8792 8.05472C10.8207 8.11951 10.7404 8.1545 10.6488 8.15932C10.4479 8.16989 10.2665 8.0409 10.2329 7.87303L9.77201 7.9652C9.86099 8.41008 10.2923 8.64874 10.6735 8.62867C10.873 8.61817 11.076 8.53827 11.2282 8.36945C11.3807 8.20032 11.4629 7.96361 11.4629 7.67402H10.9929ZM10.2329 7.87303C10.1627 7.52209 9.98969 7.2138 9.82107 6.99459C9.73634 6.88444 9.64869 6.79151 9.56902 6.72355C9.5295 6.68984 9.48786 6.65877 9.44612 6.63476C9.41298 6.61568 9.3469 6.58118 9.26716 6.58118V7.05118C9.21806 7.05118 9.1941 7.03199 9.2117 7.04212C9.22071 7.0473 9.23842 7.05932 9.26401 7.08114C9.31454 7.12424 9.38008 7.19216 9.44854 7.28115C9.58629 7.46022 9.71965 7.7034 9.77201 7.9652L10.2329 7.87303ZM9.37774 7.02353C9.87495 6.75836 10.1949 6.41468 10.352 6.0323C10.5091 5.64969 10.4937 5.25092 10.3604 4.89543C10.0975 4.19445 9.36879 3.64 8.53186 3.64V4.11C9.16552 4.11 9.72359 4.53594 9.92028 5.06046C10.0167 5.3177 10.0243 5.59295 9.91719 5.85373C9.81 6.11474 9.57849 6.3838 9.15657 6.60882L9.37774 7.02353ZM8.53186 3.64H2.77206V4.11H8.53186V3.64ZM2.53706 3.875V5.22304H3.00706V3.875H2.53706ZM2.77206 5.45804H3.99755V4.98804H2.77206V5.45804ZM3.76255 5.22304V8.40931H4.23255V5.22304H3.76255ZM3.99755 8.17431H2.15931V8.64431H3.99755V8.17431ZM1.92431 8.40931V9.75735H2.39431V8.40931H1.92431ZM12.0346 7C12.0346 9.78054 9.78054 12.0346 7 12.0346V12.5046C10.0401 12.5046 12.5046 10.0401 12.5046 7H12.0346ZM7 12.0346C4.21946 12.0346 1.96539 9.78054 1.96539 7H1.49539C1.49539 10.0401 3.95989 12.5046 7 12.5046V12.0346ZM1.96539 7C1.96539 4.21946 4.21946 1.96539 7 1.96539V1.49539C3.95989 1.49539 1.49539 3.95989 1.49539 7H1.96539ZM7 1.96539C9.78054 1.96539 12.0346 4.21946 12.0346 7H12.5046C12.5046 3.95989 10.0401 1.49539 7 1.49539V1.96539ZM12.7582 7.56916L13.3709 7.20151L13.1291 6.79849L12.5163 7.16614L12.7582 7.56916ZM13.3709 6.79849L12.7582 6.43084L12.5163 6.83386L13.1291 7.20151L13.3709 6.79849ZM12.4023 6.63235V7.36765H12.8723V6.63235H12.4023ZM12.5365 8.68158L13.2092 8.44054L13.0506 7.99809L12.3779 8.23913L12.5365 8.68158ZM13.2878 8.04526L12.7586 7.56514L12.4428 7.91324L12.972 8.39337L13.2878 8.04526ZM12.3702 7.69335L12.2267 8.41451L12.6877 8.5062L12.8311 7.78504L12.3702 7.69335ZM12.102 9.72939L12.8088 9.62421L12.7397 9.15933L12.0329 9.26451L12.102 9.72939ZM12.9631 9.25187L12.5377 8.67772L12.16 8.95753L12.5854 9.53168L12.9631 9.25187ZM12.1317 8.72769L11.8503 9.40701L12.2846 9.58688L12.5659 8.90755L12.1317 8.72769ZM11.4715 10.6723L12.1853 10.707L12.2081 10.2376L11.4944 10.2029L11.4715 10.6723ZM12.4092 10.3719L12.1039 9.72583L11.679 9.92658L11.9842 10.5727L12.4092 10.3719ZM11.6961 9.69564L11.2876 10.307L11.6783 10.5681L12.0869 9.95676L11.6961 9.69564ZM10.6692 11.4741L11.3624 11.6474L11.4764 11.1914L10.7832 11.0181L10.6692 11.4741ZM11.6474 11.3624L11.4741 10.6692L11.0181 10.7832L11.1914 11.4764L11.6474 11.3624ZM11.0799 10.56L10.56 11.0799L10.8923 11.4123L11.4123 10.8923L11.0799 10.56ZM9.72583 12.1039L10.3719 12.4092L10.5727 11.9842L9.92658 11.679L9.72583 12.1039ZM10.707 12.1853L10.6723 11.4715L10.2029 11.4944L10.2376 12.2081L10.707 12.1853ZM10.307 11.2876L9.69565 11.6961L9.95676 12.0869L10.5681 11.6783L10.307 11.2876ZM8.67772 12.5377L9.25187 12.9631L9.53167 12.5854L8.95753 12.16L8.67772 12.5377ZM9.62421 12.8088L9.72939 12.102L9.26451 12.0329L9.15933 12.7397L9.62421 12.8088ZM9.40701 11.8503L8.72769 12.1317L8.90755 12.5659L9.58688 12.2846L9.40701 11.8503ZM7.56514 12.7586L8.04526 13.2878L8.39337 12.972L7.91324 12.4428L7.56514 12.7586ZM8.44054 13.2092L8.68158 12.5365L8.23913 12.3779L7.99809 13.0506L8.44054 13.2092ZM8.41451 12.2267L7.69335 12.3702L7.78504 12.8311L8.5062 12.6877L8.41451 12.2267ZM6.43084 12.7582L6.79849 13.3709L7.20151 13.1291L6.83386 12.5163L6.43084 12.7582ZM7.20151 13.3709L7.56916 12.7582L7.16614 12.5163L6.79849 13.1291L7.20151 13.3709ZM7.36765 12.4023H6.63235V12.8723H7.36765V12.4023ZM5.31842 12.5365L5.55946 13.2092L6.00191 13.0506L5.76087 12.3779L5.31842 12.5365ZM5.95474 13.2878L6.43486 12.7586L6.08676 12.4428L5.60663 12.972L5.95474 13.2878ZM6.30665 12.3702L5.58549 12.2267L5.4938 12.6877L6.21496 12.8311L6.30665 12.3702ZM4.27061 12.102L4.37579 12.8088L4.84067 12.7397L4.7355 12.0329L4.27061 12.102ZM4.74813 12.9631L5.32228 12.5377L5.04247 12.16L4.46833 12.5854L4.74813 12.9631ZM5.27231 12.1317L4.59298 11.8503L4.41312 12.2846L5.09245 12.5659L5.27231 12.1317ZM3.3277 11.4715L3.29296 12.1853L3.76241 12.2081L3.79714 11.4944L3.3277 11.4715ZM3.62806 12.4092L4.27417 12.1039L4.07342 11.679L3.42731 11.9842L3.62806 12.4092ZM4.30436 11.6961L3.69298 11.2876L3.43186 11.6783L4.04324 12.0869L4.30436 11.6961ZM2.52591 10.6692L2.3526 11.3624L2.80857 11.4764L2.98188 10.7832L2.52591 10.6692ZM2.63758 11.6474L3.33082 11.4741L3.21683 11.0181L2.52359 11.1914L2.63758 11.6474ZM3.43999 11.0799L2.92006 10.56L2.58772 10.8923L3.10765 11.4123L3.43999 11.0799ZM1.89606 9.72583L1.59083 10.3719L2.0158 10.5727L2.32102 9.92658L1.89606 9.72583ZM1.81474 10.707L2.52847 10.6723L2.50562 10.2029L1.79189 10.2376L1.81474 10.707ZM2.71244 10.307L2.30394 9.69565L1.91314 9.95676L2.32165 10.5681L2.71244 10.307ZM1.46235 8.67772L1.03694 9.25187L1.41457 9.53167L1.83998 8.95753L1.46235 8.67772ZM1.19116 9.62421L1.89796 9.72939L1.96714 9.26451L1.26034 9.15933L1.19116 9.62421ZM2.14966 9.40701L1.86828 8.72769L1.43405 8.90755L1.71544 9.58688L2.14966 9.40701ZM1.24144 7.56514L0.712196 8.04526L1.02799 8.39337L1.55724 7.91324L1.24144 7.56514ZM0.790821 8.44054L1.46352 8.68158L1.62206 8.23913L0.949362 7.99809L0.790821 8.44054ZM1.77327 8.41451L1.62982 7.69335L1.16885 7.78504L1.3123 8.5062L1.77327 8.41451ZM1.24184 6.43084L0.629093 6.79849L0.870907 7.20151L1.48365 6.83386L1.24184 6.43084ZM0.629093 7.20151L1.24184 7.56916L1.48365 7.16614L0.870907 6.79849L0.629093 7.20151ZM1.59775 7.36765V6.63235H1.12775V7.36765H1.59775ZM1.46352 5.31842L0.790822 5.55946L0.949363 6.00191L1.62206 5.76087L1.46352 5.31842ZM0.712196 5.95474L1.24144 6.43486L1.55724 6.08676L1.02799 5.60663L0.712196 5.95474ZM1.62982 6.30665L1.77327 5.58549L1.3123 5.4938L1.16885 6.21496L1.62982 6.30665ZM1.89796 4.27061L1.19116 4.37579L1.26034 4.84067L1.96714 4.7355L1.89796 4.27061ZM1.03694 4.74813L1.46235 5.32228L1.83998 5.04247L1.41457 4.46833L1.03694 4.74813ZM1.86828 5.27231L2.14966 4.59298L1.71544 4.41312L1.43405 5.09245L1.86828 5.27231ZM2.52847 3.3277L1.81474 3.29296L1.79189 3.76241L2.50562 3.79714L2.52847 3.3277ZM1.59083 3.62806L1.89606 4.27417L2.32102 4.07342L2.0158 3.42731L1.59083 3.62806ZM2.30394 4.30436L2.71244 3.69298L2.32165 3.43186L1.91314 4.04324L2.30394 4.30436ZM3.33082 2.52591L2.63758 2.3526L2.52359 2.80857L3.21683 2.98188L3.33082 2.52591ZM2.3526 2.63758L2.52591 3.33082L2.98188 3.21683L2.80857 2.52359L2.3526 2.63758ZM2.92006 3.43999L3.43999 2.92006L3.10765 2.58772L2.58772 3.10765L2.92006 3.43999ZM4.27417 1.89606L3.62806 1.59083L3.42731 2.0158L4.07342 2.32102L4.27417 1.89606ZM3.29296 1.81474L3.3277 2.52847L3.79714 2.50562L3.76241 1.79189L3.29296 1.81474ZM3.69298 2.71244L4.30436 2.30394L4.04324 1.91314L3.43186 2.32165L3.69298 2.71244ZM5.32228 1.46235L4.74813 1.03694L4.46833 1.41457L5.04247 1.83998L5.32228 1.46235ZM4.37579 1.19116L4.27061 1.89796L4.7355 1.96714L4.84067 1.26034L4.37579 1.19116ZM4.59298 2.14966L5.27231 1.86828L5.09245 1.43405L4.41312 1.71544L4.59298 2.14966ZM6.43486 1.24144L5.95474 0.712196L5.60663 1.02799L6.08676 1.55724L6.43486 1.24144ZM5.55946 0.790821L5.31842 1.46352L5.76087 1.62206L6.00191 0.949362L5.55946 0.790821ZM5.58549 1.77327L6.30665 1.62982L6.21496 1.16885L5.4938 1.3123L5.58549 1.77327ZM7.56916 1.24184L7.20151 0.629093L6.79849 0.870907L7.16614 1.48365L7.56916 1.24184ZM6.79849 0.629093L6.43084 1.24184L6.83386 1.48365L7.20151 0.870907L6.79849 0.629093ZM6.63235 1.59775H7.36765V1.12775H6.63235V1.59775ZM8.68158 1.46352L8.44054 0.790822L7.99809 0.949363L8.23913 1.62206L8.68158 1.46352ZM8.04526 0.712196L7.56514 1.24144L7.91324 1.55724L8.39337 1.02799L8.04526 0.712196ZM7.69335 1.62982L8.41451 1.77327L8.5062 1.3123L7.78504 1.16885L7.69335 1.62982ZM9.72939 1.89796L9.62421 1.19117L9.15933 1.26034L9.26451 1.96714L9.72939 1.89796ZM9.25187 1.03694L8.67772 1.46235L8.95753 1.83998L9.53168 1.41457L9.25187 1.03694ZM8.72769 1.86828L9.40701 2.14966L9.58688 1.71544L8.90755 1.43405L8.72769 1.86828ZM10.6723 2.52847L10.707 1.81474L10.2376 1.79189L10.2029 2.50562L10.6723 2.52847ZM10.3719 1.59083L9.72583 1.89606L9.92658 2.32102L10.5727 2.0158L10.3719 1.59083ZM9.69564 2.30394L10.307 2.71244L10.5681 2.32165L9.95676 1.91314L9.69564 2.30394ZM11.4741 3.33082L11.6474 2.63758L11.1914 2.52359L11.0181 3.21683L11.4741 3.33082ZM11.3624 2.3526L10.6692 2.52591L10.7832 2.98188L11.4764 2.80857L11.3624 2.3526ZM10.56 2.92006L11.0799 3.43999L11.4123 3.10765L10.8923 2.58772L10.56 2.92006ZM12.1039 4.27417L12.4092 3.62806L11.9842 3.42731L11.679 4.07342L12.1039 4.27417ZM12.1853 3.29296L11.4715 3.3277L11.4944 3.79714L12.2081 3.76241L12.1853 3.29296ZM11.2876 3.69298L11.6961 4.30436L12.0869 4.04324L11.6783 3.43186L11.2876 3.69298ZM12.5377 5.32228L12.9631 4.74813L12.5854 4.46833L12.16 5.04247L12.5377 5.32228ZM12.8088 4.37579L12.102 4.27061L12.0329 4.7355L12.7397 4.84067L12.8088 4.37579ZM11.8503 4.59298L12.1317 5.27231L12.5659 5.09245L12.2846 4.41312L11.8503 4.59298ZM12.7586 6.43486L13.2878 5.95474L12.972 5.60663L12.4428 6.08676L12.7586 6.43486ZM13.2092 5.55946L12.5365 5.31842L12.3779 5.76087L13.0506 6.00191L13.2092 5.55946ZM12.2267 5.58549L12.3702 6.30665L12.8311 6.21496L12.6877 5.4938L12.2267 5.58549ZM5.97599 2.01911L6.83383 2.87695L7.16617 2.54461L6.30833 1.68677L5.97599 2.01911ZM7.16617 2.87695L8.02401 2.01911L7.69167 1.68677L6.83383 2.54461L7.16617 2.87695ZM7.85784 1.61794H6.14216V2.08794H7.85784V1.61794ZM11.4207 4.48693L10.8699 5.56787L11.2887 5.78125L11.8394 4.7003L11.4207 4.48693ZM10.9726 5.88395L12.0535 6.43471L12.2669 6.01594L11.186 5.46517L10.9726 5.88395ZM12.3837 6.15271L11.8536 4.52099L11.4066 4.66623L11.9367 6.29795L12.3837 6.15271ZM10.7561 10.4277L9.5579 10.2379L9.48438 10.7022L10.6826 10.8919L10.7561 10.4277ZM9.28903 10.4333L9.09925 11.6315L9.56346 11.705L9.75324 10.5068L9.28903 10.4333ZM9.46949 11.8584L10.8575 10.8499L10.5812 10.4697L9.19323 11.4782L9.46949 11.8584ZM4.90075 11.6315L4.71097 10.4333L4.24676 10.5068L4.43654 11.705L4.90075 11.6315ZM4.4421 10.2379L3.24386 10.4277L3.31739 10.8919L4.51562 10.7022L4.4421 10.2379ZM3.1425 10.8499L4.53051 11.8584L4.80677 11.4782L3.41875 10.4697L3.1425 10.8499ZM1.94646 6.43471L3.0274 5.88395L2.81403 5.46517L1.73308 6.01594L1.94646 6.43471ZM3.1301 5.56787L2.57933 4.48693L2.16056 4.7003L2.71133 5.78125L3.1301 5.56787ZM2.14645 4.52099L1.61627 6.15271L2.06327 6.29795L2.59344 4.66623L2.14645 4.52099Z" fill="white"/>
</svg>
