<svg width="14" height="14" viewBox="0 0 14 14" fill="none" xmlns="http://www.w3.org/2000/svg">
<path d="M5.53135 12.6896C5.05253 12.6212 4.75603 12.5487 4.44713 12.4245C3.93556 12.2073 3.49184 11.8948 3.11058 11.4941C2.59188 10.9398 2.38602 10.2791 2.35264 10.1627C2.33315 10.0928 2.29549 9.93836 2.27037 9.81973C2.2288 9.62357 2.22403 9.57527 2.21883 9.28743C2.2145 9.03667 2.21759 8.94999 2.23615 8.87021C2.24914 8.81478 2.27488 8.69093 2.29502 8.59491C2.35478 8.3092 2.48084 7.94225 2.51914 7.94225C2.52564 7.94225 2.53209 7.93144 2.53209 7.91715C2.53209 7.88207 2.60312 7.73569 2.67587 7.62031L2.73673 7.52377L2.67026 7.38085C2.53948 7.09925 2.41841 6.68828 2.38845 6.42472C2.36896 6.25432 2.36895 5.72456 2.38904 5.56449C2.46136 4.97514 2.77654 4.31015 3.18194 3.89165C3.45312 3.61172 3.68198 3.44888 3.95349 3.27372C4.08535 3.18863 4.21931 3.1016 4.25096 3.08039C4.48007 2.96109 4.68315 2.8048 4.90252 2.66692C7.29276 1.17309 4.60883 2.81523 6.42336 1.69516C6.66657 1.54512 6.93658 1.40706 7.0923 1.35336C7.14361 1.33604 7.20578 1.31245 7.23046 1.30162C7.30732 1.26785 7.62386 1.19596 7.80439 1.17063C7.89922 1.15764 7.98082 1.14117 7.98536 1.13445C7.99836 1.11713 8.54817 1.11933 8.59028 1.13624C8.6076 1.14273 8.68278 1.1557 8.75401 1.16544C9.0077 1.19532 9.41944 1.31225 9.72154 1.44025C10.3182 1.69301 10.8073 2.15983 10.825 2.21372C10.8293 2.22671 10.8555 2.25267 10.8827 2.27064C10.9431 2.30961 11.3603 2.77251 11.5858 3.33903C11.6722 3.55607 11.7455 3.81495 11.7825 4.03183C11.7999 4.12796 11.8185 4.21846 11.8261 4.23253C11.8434 4.26674 11.8434 4.80894 11.8252 4.85753C11.8187 4.87701 11.8 4.96145 11.7886 5.04178C11.7292 5.43897 11.5723 5.87274 11.3676 6.20522L11.3083 6.30179L11.3819 6.46393C11.5999 6.94568 11.6708 7.28654 11.6713 7.85629C11.6716 8.18214 11.654 8.33464 11.5813 8.62054C11.4211 9.25177 11.0477 9.83278 10.5393 10.2417C9.56049 10.8349 8.54161 11.5872 7.59599 12.1296C7.36059 12.2801 7.11692 12.3972 6.83956 12.5013C6.45861 12.6444 6.41276 12.6342 6.06233 12.6778C6.03397 12.6799 5.63493 12.7039 5.53135 12.6896ZM6.12041 11.3593C6.31895 11.342 6.40536 11.272 6.49168 11.2337C6.70408 11.1397 7.06075 10.9211 7.32845 10.7443C7.77698 10.5291 8.18908 10.1671 8.65668 9.91673C8.68635 9.90374 8.7238 9.87947 8.73961 9.86453C8.76732 9.83855 8.90698 9.74502 9.40141 9.4214C9.67171 9.24451 9.78545 9.15024 9.91395 8.99684C10.142 8.72466 10.2615 8.48333 10.3313 8.15412C10.3736 7.95515 10.3766 7.59537 10.3357 7.39549C10.2547 6.97874 10.0631 6.62639 9.74533 6.30872C9.41227 5.97579 9.00122 5.7614 8.56325 5.69212C8.26932 5.64557 7.8773 5.67264 7.60108 5.75578C7.45081 5.80168 7.17197 5.92445 6.94647 6.08764C6.28396 6.56696 6.50409 6.40504 5.98258 6.67828C5.94231 6.69777 5.20403 6.85626 5.14832 6.1179C5.13316 5.92261 5.35612 5.72949 5.35612 5.72598L6.32055 5.07102C6.63584 4.90906 6.89073 4.65683 7.23046 4.49342C7.27073 4.47394 7.35126 4.41894 7.4121 4.37693C7.58531 4.25764 8.06589 3.96023 8.1633 3.91217C8.32591 3.83184 8.52894 3.83964 8.70657 3.93166C8.90619 4.03667 9.0156 4.21607 9.02849 4.47509L9.03503 4.62775L9.13738 4.66023C9.48971 4.77195 9.85678 4.95143 10.143 5.15186C10.245 5.22331 10.3366 5.27852 10.3465 5.27462C10.3693 5.26813 10.463 4.94805 10.4856 4.80464C10.5107 4.64355 10.4964 4.26063 10.455 4.04914C10.4275 3.90472 10.4087 3.84929 10.3387 3.7073C10.2056 3.43742 10.0353 3.1887 9.85997 3.02118C9.71425 2.88175 9.72376 2.90078 9.58179 2.79633C9.33432 2.61424 9.09471 2.52369 8.78678 2.45757C8.56925 2.4108 8.14224 2.41059 7.92742 2.45697C7.60068 2.52755 7.43879 2.60852 6.75823 3.0417C6.327 3.25453 5.98787 3.53074 5.59505 3.78094C5.18688 4.02162 4.80849 4.25429 4.42242 4.53736C4.36331 4.58197 4.24571 4.68828 4.16367 4.77606C4.01883 4.9313 4.02619 4.93323 3.92475 5.09074C3.71278 5.42042 3.67124 5.68825 3.68285 6.14754C3.68935 6.44121 3.71745 6.57471 3.8218 6.82794C3.88957 6.96802 3.93617 7.14082 4.10262 7.31061C4.32191 7.58134 4.58069 7.81329 4.90107 7.94751C5.21308 8.08781 5.38513 8.12741 5.72218 8.1378C6.25649 8.15296 6.5507 8.06681 7.08893 7.7324C7.33794 7.62393 7.53039 7.43978 7.76514 7.30682C7.80065 7.28733 7.84914 7.25657 7.87317 7.2373C7.8959 7.21782 7.9585 7.18276 8.00981 7.15851C8.0962 7.11781 8.11524 7.11413 8.26156 7.11391C8.41442 7.11359 8.42372 7.11527 8.52956 7.16584C8.58996 7.19442 8.66507 7.24163 8.69646 7.26978C8.79454 7.35833 8.88722 7.56974 8.88722 7.70452C8.88722 7.85261 8.80016 8.03074 8.65985 8.13876C8.42344 8.32106 8.22367 8.46173 7.98074 8.57343C7.94458 8.59075 7.89348 8.6241 7.86577 8.64575C7.40847 8.89786 7.01885 9.1846 6.56945 9.4814C6.53762 9.50088 5.93091 9.87907 5.88902 9.89869C5.75976 9.9591 5.64385 9.97858 5.53347 9.95779C5.34575 9.92272 5.20731 9.81058 5.0876 9.6777C5.04581 9.63743 5.01509 9.51378 5.00514 9.34449L4.9943 9.1873L4.94474 9.16999C4.65723 9.04116 4.34777 8.93963 4.06608 8.77625C3.99182 8.7297 3.91858 8.67385 3.89693 8.66108C3.84952 8.63293 3.80584 8.60523 3.76016 8.57254L3.67935 8.51473L3.6434 8.63379C3.58928 8.81285 3.55186 8.98556 3.54125 9.10566C3.52826 9.23687 3.55425 9.60919 3.58499 9.75438C3.65817 10.1067 3.84164 10.4276 4.17147 10.7803C4.27994 10.8963 4.33993 10.9457 4.47112 11.028C4.65862 11.1454 4.73896 11.1874 4.89598 11.2498C5.02112 11.2994 5.24599 11.3568 5.39762 11.3776C5.54247 11.3971 5.96317 11.3841 6.11611 11.3581L6.12041 11.3593Z" fill="url(#paint0_linear_649_1915)"/>
<defs>
<linearGradient id="paint0_linear_649_1915" x1="2" y1="7.5" x2="12.5" y2="7.5" gradientUnits="userSpaceOnUse">
<stop stop-color="#FF6B00"/>
<stop offset="1" stop-color="#FF1F00"/>
</linearGradient>
</defs>
</svg>
