<svg width="14" height="14" viewBox="0 0 14 14" fill="none" xmlns="http://www.w3.org/2000/svg">
<g clip-path="url(#clip0_31_714)">
<path d="M12.5806 12.6568L12.5806 12.6568C12.4136 12.4249 12.3572 12.3575 12.2598 12.2667C12.1424 12.1572 11.9357 12.0345 11.7419 11.9623L11.7419 11.9623C11.6266 11.9194 11.4377 11.8982 11.2298 11.9038C11.0237 11.9094 10.8126 11.941 10.6563 11.9944C10.5692 12.0241 10.4295 12.0833 10.3081 12.1397C10.2478 12.1677 10.1936 12.1943 10.154 12.2153C10.134 12.2259 10.1192 12.2344 10.1097 12.2404C10.1088 12.241 10.1081 12.2415 10.1074 12.2419C10.1041 12.2457 10.1012 12.2486 10.0992 12.2505C10.0935 12.2561 10.0876 12.261 10.0825 12.265C10.0722 12.273 10.0598 12.2814 10.0464 12.2899C10.0193 12.3072 9.98159 12.3292 9.93337 12.356C9.83656 12.4099 9.69194 12.4864 9.49308 12.5891C9.03058 12.8279 8.2946 13.0016 7.63897 13.0309C6.90366 13.0638 6.0549 12.9266 5.33621 12.6594C5.15429 12.5918 4.8585 12.4694 4.78325 12.4297M12.5806 12.6568L0.925674 8.75052L1.00021 8.8171L0.925671 8.75052M12.5806 12.6568C12.593 12.6741 12.6473 12.7676 12.7016 12.8682C12.7288 12.9184 12.7549 12.9646 12.7752 12.9986C12.7853 13.0154 12.7946 13.0304 12.8023 13.0418C12.8059 13.0472 12.8105 13.0537 12.8153 13.0597C12.8175 13.0623 12.8219 13.0676 12.8279 13.073C12.8308 13.0757 12.8365 13.0806 12.8445 13.0854C12.8504 13.089 12.8695 13.1 12.8968 13.1C12.9257 13.1 12.9458 13.0877 12.9522 13.0836C12.9607 13.0781 12.9668 13.0724 12.97 13.0693C12.9767 13.0627 12.9817 13.0561 12.9847 13.052C12.9912 13.0433 12.9976 13.033 13.0033 13.0234C13.015 13.0035 13.0287 12.9775 13.0419 12.95M12.5806 12.6568L13.0419 12.95M4.78325 12.4297L4.82999 12.3412L4.78329 12.4297C4.78328 12.4297 4.78326 12.4297 4.78325 12.4297ZM4.78325 12.4297C4.75769 12.4162 4.62541 12.3527 4.48758 12.288C4.09796 12.1051 3.60125 11.7968 3.22449 11.5045C2.38015 10.8496 1.66431 10.0576 1.04578 9.09521L1.04577 9.09521C1.00726 9.03527 0.972842 8.97919 0.948358 8.93688C0.936255 8.91597 0.925839 8.89716 0.918475 8.88244C0.915002 8.8755 0.910941 8.86697 0.907774 8.85853C0.906383 8.85483 0.903573 8.84703 0.901793 8.83741C0.900937 8.83279 0.899464 8.8234 0.900202 8.81164C0.900813 8.80189 0.903777 8.77503 0.925671 8.75052M0.925671 8.75052C0.953987 8.71882 0.989758 8.71691 1.00086 8.7169M0.925671 8.75052L1.00086 8.7169M13.0419 12.95C13.056 12.9206 13.0649 12.8839 13.0714 12.8485C13.0782 12.8111 13.0836 12.7673 13.0878 12.7195C13.0961 12.6237 13.1001 12.507 13.1 12.3844C13.0997 12.1405 13.0831 11.8645 13.0489 11.6766C12.9097 10.9127 12.623 10.1937 12.2091 9.57214C12.2091 9.57214 12.2091 9.57213 12.2091 9.57213L12.1776 9.52489L12.1776 9.52488C12.1292 9.45219 12.1133 9.35573 12.1372 9.26593C12.3702 8.38938 12.3409 7.06266 12.0698 6.00326C11.7186 4.63073 11.0478 3.38262 10.0742 2.28816C9.63155 1.79063 9.1709 1.36842 8.67295 1.0044L13.0419 12.95ZM1.24744 8.98967L1.30802 8.91011C2.2802 9.65027 3.32748 10.0981 4.50585 10.2782L4.49074 10.3771L4.50585 10.2782C4.66794 10.303 4.9703 10.3141 5.28037 10.3112C5.59026 10.3084 5.8957 10.2916 6.06366 10.2637C6.31396 10.2221 6.7568 10.0924 7.02766 9.98094C7.14542 9.93246 7.32741 9.83999 7.48285 9.75336C7.56027 9.71022 7.62935 9.66949 7.67919 9.63745C7.68108 9.63623 7.68294 9.63503 7.68476 9.63385C7.66608 9.6151 7.64348 9.59406 7.61853 9.57266C7.53742 9.50313 7.44055 9.41739 7.40319 9.3818L1.24744 8.98967ZM1.24744 8.98967L1.30802 8.91011C1.24157 8.85952 1.17977 8.81425 1.13353 8.78197M1.24744 8.98967L1.13353 8.78197M5.6862 4.25297L5.75524 4.18062C5.29692 3.7432 4.70562 3.13513 4.19593 2.57701L4.19593 2.57701C4.11279 2.48597 4.03503 2.40458 3.97652 2.34665C3.9475 2.31793 3.92199 2.29376 3.90239 2.27685C3.89309 2.26883 3.88241 2.26008 3.87205 2.25321C3.86767 2.2503 3.85795 2.24404 3.84538 2.2394C3.83942 2.23719 3.82617 2.23279 3.80893 2.23277C3.79029 2.23275 3.75825 2.23834 3.73301 2.26665L3.73294 2.26674C3.71454 2.28742 3.70954 2.30972 3.70798 2.32144C3.70635 2.33377 3.70725 2.34395 3.70801 2.34974C3.70952 2.36136 3.71263 2.37109 3.71449 2.37648C3.71854 2.38825 3.72425 2.40072 3.72978 2.41199C3.74129 2.43547 3.75844 2.46661 3.77972 2.5034C3.82261 2.57755 3.88611 2.68117 3.96495 2.80606C4.1228 3.05615 4.34417 3.39469 4.59001 3.75991C4.68835 3.90599 4.77945 4.04048 4.84702 4.13951C4.88079 4.18899 4.90879 4.22977 4.92891 4.25877L4.95333 4.29359L4.96148 4.30481L4.96546 4.30999C4.96568 4.31027 4.96734 4.31241 4.96987 4.31525L4.97439 4.32115L4.99425 4.34792C5.01131 4.37115 5.03519 4.40404 5.06421 4.44426L5.6862 4.25297ZM5.6862 4.25297L5.75524 4.18063C5.83191 4.2538 5.98078 4.39641 6.08612 4.49756C6.19144 4.5987 6.31199 4.71203 6.35399 4.74952C6.39784 4.78866 6.59919 4.9706 6.80121 5.15365C7.12047 5.44291 7.64447 5.89136 8.2182 6.36619C8.36259 6.48569 9.16838 7.09627 9.40588 7.26599C9.42017 7.27621 9.43203 7.28462 9.44199 7.29153C9.45083 7.26549 9.46119 7.2309 9.47506 7.18419C9.75769 6.23272 9.76167 4.72515 9.48164 3.65036L9.40698 3.36339C9.31486 3.00871 9.09364 2.41752 8.89485 1.99661L8.98527 1.9539L8.89485 1.9966C8.82634 1.85153 8.7238 1.65288 8.62955 1.47896C8.53319 1.30116 8.45143 1.1604 8.42281 1.12324L8.42281 1.12323C8.406 1.1014 8.38672 1.07464 8.37686 1.04931C8.37404 1.04207 8.37008 1.03028 8.36872 1.01577C8.36742 1.00182 8.36765 0.97539 8.3845 0.948728C8.4032 0.919161 8.43144 0.906162 8.45346 0.901945C8.47295 0.898215 8.4893 0.900687 8.49804 0.902474C8.5158 0.906105 8.53153 0.913344 8.54178 0.918475C8.55351 0.924357 8.56603 0.931615 8.57883 0.939594C8.6045 0.955587 8.63608 0.977438 8.67293 1.00439L5.6862 4.25297ZM6.58997 6.47848C6.58676 6.47487 6.58355 6.47127 6.58034 6.46768L6.58997 6.47848ZM6.58997 6.47848C6.58957 6.47818 6.58916 6.47788 6.58875 6.47759C6.51765 6.42567 6.45006 6.3757 6.39903 6.33723C6.37345 6.31795 6.35242 6.30185 6.33731 6.28995C6.3297 6.28396 6.3241 6.27942 6.32036 6.27629C6.31945 6.27552 6.31875 6.27492 6.31823 6.27447C6.31296 6.269 6.30774 6.26454 6.30585 6.26293L6.30549 6.26261L6.29049 6.25018C6.27916 6.24099 6.26408 6.22907 6.2465 6.21539C6.21124 6.18794 6.16466 6.15237 6.11517 6.11523C6.01784 6.04218 5.84403 5.90725 5.72954 5.81582C5.61434 5.72382 5.47047 5.60972 5.40969 5.56219C4.83628 5.11363 3.14114 3.62098 2.74467 3.21588C2.63414 3.10293 2.52152 2.99248 2.43512 2.91117C2.39208 2.87066 2.3547 2.8366 2.327 2.81289C2.31349 2.80134 2.30047 2.79068 2.28948 2.78278C2.28462 2.77929 2.2764 2.77358 2.26684 2.76881C2.26279 2.7668 2.25216 2.76166 2.23793 2.759C2.22915 2.75736 2.18051 2.74938 2.1434 2.79109C2.12483 2.81197 2.1199 2.83453 2.11842 2.84645C2.11688 2.85891 2.11793 2.86913 2.11875 2.87486C2.1204 2.88633 2.12361 2.89575 2.12541 2.90069C2.12935 2.91155 2.13472 2.92265 2.13958 2.93209C2.14979 2.95191 2.1646 2.97742 2.18228 3.0063C2.21799 3.06463 2.26925 3.14297 2.32896 3.2299L2.32896 3.2299C2.41136 3.34986 2.63814 3.67226 2.67425 3.72067L2.67428 3.72071C2.69681 3.75089 2.88309 4.01388 3.08933 4.30677C3.50151 4.89213 3.57046 4.98739 3.82802 5.3268L6.58997 6.47848ZM1.13353 8.78197C1.11063 8.76598 1.09042 8.7524 1.07495 8.74283M1.13353 8.78197L1.07495 8.74283M1.07495 8.74283C1.06763 8.7383 1.05902 8.7332 1.05074 8.72914M1.07495 8.74283L1.05074 8.72914M1.05074 8.72914C1.04724 8.72743 1.03939 8.72369 1.02961 8.72092M1.05074 8.72914L1.02961 8.72092M1.02961 8.72092C1.02516 8.71966 1.01454 8.71688 1.00086 8.7169M1.02961 8.72092L1.00086 8.7169M4.97512 4.32077C4.97483 4.32048 4.97454 4.3202 4.97426 4.31991L4.97512 4.32077ZM5.28435 4.75186C5.42045 4.9432 5.59327 5.18131 5.73683 5.3765C5.80861 5.47409 5.87322 5.56116 5.92237 5.6264C5.94691 5.65899 5.9678 5.6864 5.98389 5.70706C5.99819 5.72543 6.01261 5.7436 6.02203 5.75332C6.02049 5.75173 6.02151 5.753 6.02632 5.759C6.02962 5.76311 6.03471 5.76946 6.04199 5.77863L6.10345 5.8567L5.28435 4.75186ZM6.32258 6.27925L6.32254 6.2792L6.32258 6.27925ZM6.68657 8.69601C6.75069 8.76131 6.92376 8.92856 7.07126 9.06783L4.12142 5.71417C4.77352 6.57767 5.82494 7.81768 6.41852 8.42284L6.41853 8.42285L6.68655 8.69599L6.68657 8.69601ZM6.29593 6.10369C6.4404 6.2899 6.57008 6.45618 6.58033 6.46767L6.29593 6.10369Z" fill="url(#paint0_linear_31_714)" stroke="url(#paint1_linear_31_714)" stroke-width="0.2" stroke-linecap="round" stroke-linejoin="round"/>
</g>
<defs>
<linearGradient id="paint0_linear_31_714" x1="2" y1="2.5" x2="14" y2="12" gradientUnits="userSpaceOnUse">
<stop stop-color="#FF6E30"/>
<stop offset="1" stop-color="#FF4343"/>
</linearGradient>
<linearGradient id="paint1_linear_31_714" x1="2" y1="2.5" x2="14" y2="12" gradientUnits="userSpaceOnUse">
<stop stop-color="#FF6E30"/>
<stop offset="1" stop-color="#FF4343"/>
</linearGradient>
<clipPath id="clip0_31_714">
<rect width="14" height="14" fill="white"/>
</clipPath>
</defs>
</svg>
