<svg width="14" height="14" viewBox="0 0 14 14" fill="none" xmlns="http://www.w3.org/2000/svg">
<path d="M6.92083 10.4442C6.50292 10.3894 5.92034 10.1283 5.48511 9.80063C5.33962 9.69111 5.02064 9.42272 4.77626 9.20422C4.09096 8.59149 3.82432 8.42263 3.42141 8.34622C2.98098 8.2627 2.39347 8.46541 1.80546 8.9038C1.46774 9.15558 1.47285 9.15865 1.61195 8.78753C1.75488 8.40618 1.96002 8.10108 2.30197 7.76135C2.58743 7.47775 2.70207 7.39319 2.99997 7.24643C3.50469 6.99777 3.86891 6.91939 4.52104 6.91906C5.53064 6.91866 5.94219 7.11623 6.96519 8.09301C7.53111 8.63336 7.76595 8.82254 8.11599 9.0201C8.32793 9.13971 8.34333 9.1426 8.65929 9.1221C9.21621 9.08596 9.61956 8.88338 9.95623 8.47068C10.1771 8.19996 10.2088 8.22923 10.096 8.59965C9.89211 9.26911 9.34915 9.86144 8.60925 10.2216C8.10274 10.4681 7.60441 10.5338 6.92083 10.4442Z" fill="url(#paint0_linear_649_1914)"/>
<path d="M9.84158 6.86628C9.42367 6.81151 8.84108 6.55036 8.40585 6.22271C8.26037 6.11318 7.94138 5.8448 7.69701 5.6263C7.01171 5.01357 6.74507 4.84471 6.34216 4.76829C5.90172 4.68477 5.31422 4.88748 4.72621 5.32587C4.38849 5.57765 4.3936 5.58073 4.5327 5.2096C4.67562 4.82825 4.88077 4.52315 5.22272 4.18343C5.50817 3.89983 5.62282 3.81526 5.92072 3.6685C6.42544 3.41984 6.78965 3.34146 7.44178 3.34113C8.45139 3.34073 8.86293 3.53831 9.88594 4.51508C10.4519 5.05544 10.6867 5.24461 11.0367 5.44217C11.2487 5.56178 11.2641 5.56467 11.58 5.54417C12.137 5.50803 12.5403 5.30545 12.877 4.89275C13.0978 4.62203 13.1295 4.6513 13.0167 5.02172C12.8129 5.69119 12.2699 6.28352 11.53 6.64364C11.0235 6.89016 10.5252 6.95587 9.84158 6.86628Z" fill="url(#paint1_linear_649_1914)"/>
<defs>
<linearGradient id="paint0_linear_649_1914" x1="1.52271" y1="8.70072" x2="10.1596" y2="8.70072" gradientUnits="userSpaceOnUse">
<stop stop-color="#B77FFF"/>
<stop offset="0.984375" stop-color="#007BFF"/>
</linearGradient>
<linearGradient id="paint1_linear_649_1914" x1="4.44345" y1="5.12279" x2="13.0803" y2="5.12279" gradientUnits="userSpaceOnUse">
<stop stop-color="#B77FFF"/>
<stop offset="1" stop-color="#007BFF"/>
</linearGradient>
</defs>
</svg>
