<svg width="14" height="14" viewBox="0 0 14 14" fill="none" xmlns="http://www.w3.org/2000/svg">
<path fill-rule="evenodd" clip-rule="evenodd" d="M2 0C0.895431 0 0 0.89543 0 2V12C0 13.1046 0.89543 14 2 14H12C13.1046 14 14 13.1046 14 12V2C14 0.895431 13.1046 0 12 0H2ZM9.96528 11.8558C10.3053 11.9519 10.6581 12 11.0236 12C11.4656 12 11.8312 11.929 12.1202 11.7871C12.4135 11.6451 12.6323 11.4574 12.7769 11.2239C12.9256 10.9858 13 10.7271 13 10.4478C13 10.196 12.9532 9.98764 12.8597 9.8228C12.7705 9.65339 12.6515 9.51832 12.5027 9.41758C12.354 9.31227 12.1882 9.22985 12.0054 9.17033C11.8269 9.10623 11.6463 9.05357 11.4635 9.01236C11.285 8.97115 11.1192 8.93223 10.9662 8.8956C10.8175 8.8544 10.6963 8.80403 10.6028 8.74451C10.5136 8.6804 10.4689 8.5957 10.4689 8.49039C10.4689 8.40797 10.4923 8.33471 10.5391 8.2706C10.5858 8.2065 10.6623 8.15614 10.7686 8.11951C10.8748 8.0783 11.0151 8.05769 11.1894 8.05769C11.3849 8.05769 11.5868 8.08974 11.795 8.15385C11.9139 8.18782 12.0335 8.23224 12.1537 8.2871C12.3028 8.3551 12.4801 8.28859 12.5422 8.12752L12.7232 7.65761C12.7758 7.52108 12.7267 7.36211 12.6015 7.30166C12.4351 7.22131 12.2534 7.15739 12.0564 7.10989C11.7759 7.03663 11.489 7 11.1957 7C10.758 7 10.3924 7.07097 10.0992 7.21291C9.8059 7.35485 9.58488 7.54258 9.43612 7.7761C9.29161 8.00962 9.21936 8.2706 9.21936 8.55907C9.21936 8.81548 9.26611 9.02839 9.35962 9.1978C9.45312 9.36264 9.57426 9.49771 9.72302 9.60302C9.87178 9.70375 10.0354 9.78617 10.2139 9.85028C10.3967 9.91438 10.5773 9.96703 10.7558 10.0082C10.9386 10.0495 11.1044 10.0907 11.2531 10.1319C11.4019 10.1731 11.523 10.2257 11.6165 10.2898C11.71 10.3539 11.7568 10.4409 11.7568 10.5508C11.7568 10.6287 11.7313 10.6973 11.6803 10.7569C11.6335 10.8118 11.557 10.8576 11.4508 10.8942C11.3445 10.9263 11.2042 10.9423 11.03 10.9423C10.7707 10.9423 10.5093 10.8988 10.2458 10.8118C10.0992 10.76 9.96207 10.7009 9.83448 10.6345C9.68404 10.5562 9.49612 10.6163 9.42817 10.7808L9.23574 11.2464C9.18197 11.3765 9.22182 11.5309 9.33886 11.5972C9.51608 11.6974 9.72488 11.7836 9.96528 11.8558ZM6.37072 11.6095C6.37072 11.7721 6.49305 11.9038 6.64396 11.9038H7.35983C7.51073 11.9038 7.63306 11.7721 7.63306 11.6095V8.4688C7.63306 8.30624 7.75539 8.17445 7.9063 8.17445H8.72418C8.87508 8.17445 8.99741 8.04267 8.99741 7.8801V7.3905C8.99741 7.22794 8.87508 7.09615 8.72418 7.09615H5.27323C5.12233 7.09615 5 7.22794 5 7.3905V7.8801C5 8.04267 5.12233 8.17445 5.27323 8.17445H6.09749C6.24839 8.17445 6.37072 8.30623 6.37072 8.4688V11.6095Z" fill="#007ACC"/>
</svg>
