<svg width="14" height="14" viewBox="0 0 14 14" fill="none" xmlns="http://www.w3.org/2000/svg">
<path d="M6.8285 11.7142C6.90618 11.8436 7.09382 11.8436 7.1715 11.7142L12.8183 2.3029C12.8982 2.16959 12.8022 2 12.6468 2H11.2857L7.1715 8.85703C7.09382 8.98649 6.90618 8.98649 6.8285 8.85703L2.71429 2H1.35324C1.19778 2 1.10176 2.16959 1.18174 2.3029L6.8285 11.7142Z" fill="#4FC691"/>
<path d="M2.71429 2L6.8285 8.85703C6.90618 8.98649 7.09382 8.98649 7.1715 8.85703L11.2857 2H9.68467C9.61441 2 9.54931 2.03686 9.51317 2.0971L7.1715 5.99988C7.09382 6.12935 6.90618 6.12935 6.8285 5.99988L4.48683 2.0971C4.45069 2.03686 4.38559 2 4.31533 2H2.71429Z" fill="#485D72"/>
</svg>
