<svg width="14" height="14" viewBox="0 0 14 14" fill="none" xmlns="http://www.w3.org/2000/svg">
<g style="mix-blend-mode:luminosity" opacity="0.5" clip-path="url(#clip0_31_719)">
<path d="M6.24145 14.051C7.47936 14.051 8.48288 13.1282 8.48288 11.99C8.48288 10.8518 7.47936 9.92906 6.24145 9.92906C5.00354 9.92906 4 10.8518 4 11.99C4 13.1282 5.00354 14.051 6.24145 14.051Z" fill="#A2A2FF"/>
<path d="M8.43668 0.0671987L8.21809 0.0297796C7.12822 -0.156831 6.08949 0.552989 5.89802 1.61521L4.99613 6.61868C4.80466 7.68091 5.53297 8.69329 6.62283 8.8799L6.84142 8.91732C7.93129 9.10393 8.97002 8.39411 9.16148 7.33188L10.0634 2.32841C10.2548 1.26619 9.52655 0.253826 8.43668 0.0671987Z" fill="#A2A2FF"/>
</g>
<defs>
<clipPath id="clip0_31_719">
<rect width="14" height="14" fill="white"/>
</clipPath>
</defs>
</svg>
