<svg width="28" height="20" viewBox="0 0 28 20" fill="none" xmlns="http://www.w3.org/2000/svg">
<path d="M9.01715 19.9399C8.80494 19.8781 7.43525 19.0352 5.67502 17.8594L2.28509 15.5898L1.8916 15.2707L2.09073 14.8725C2.09073 14.1137 2.28413 13.6761 2.61082 13.0142C3.10197 12.019 3.73103 11.3143 4.74686 10.6214L5.56342 10.0645L6.54255 10.7656C7.08107 11.1512 8.15662 11.89 8.93267 12.4073C11.9296 14.4051 11.9726 14.4696 11.9113 16.8756C11.8734 18.3615 11.8614 18.4238 11.5184 18.9105C10.9586 19.7048 9.81979 20.1735 9.01715 19.9399Z" fill="#FF69CD"/>
<path d="M1.72355 15.17C0.976915 14.5808 0.490095 13.8764 0.215369 12.9877C0.0375145 12.4124 -0.000183121 11.8897 6.67305e-07 10.0014C0.000193539 7.90078 0.021955 7.65883 0.264362 7.0606C0.409638 6.70207 0.658432 6.23292 0.817237 6.01804C1.31983 5.33798 5.15216 2.61097 8.16028 0.792886C9.13149 0.205893 9.36007 0.117148 10.0416 0.0624774C10.5347 0.0229225 11.0209 0.197783 11.3759 0.542324L11.4287 0.593638C12.1956 1.33805 12.3242 1.76764 12.3185 3.56627C12.3123 5.53225 12.2985 5.55218 9.58278 7.50394C8.38637 8.36379 6.79901 9.47239 6.05529 9.96749C4.17787 11.2173 3.79388 11.5487 3.18362 12.4459C2.58887 13.3203 2.23088 14.4674 2.32775 15.1884C2.3608 15.4344 2.37118 15.6357 2.3508 15.6357C2.33043 15.6357 2.04817 15.4261 1.72355 15.17Z" fill="#FF95B0"/>
<path d="M18.1633 19.9399C18.3756 19.8781 19.7453 19.0352 21.5056 17.8594L24.8956 15.5898L25.2891 15.2707L25.0899 14.8725C25.0899 14.1137 24.8965 13.6761 24.5698 13.0142C24.0787 12.019 23.4496 11.3143 22.4337 10.6214L21.6172 10.0645L20.638 10.7656C20.0995 11.1512 19.0239 11.89 18.2478 12.4073C15.2508 14.4051 15.2078 14.4696 15.2691 16.8756C15.307 18.3615 15.319 18.4238 15.662 18.9105C16.2218 19.7048 17.3607 20.1735 18.1633 19.9399Z" fill="#FF69CD"/>
<path d="M25.4576 15.1697C26.2042 14.5806 26.691 13.8762 26.9658 12.9875C27.1436 12.4122 27.1813 11.8894 27.1812 10.0012C27.181 7.90053 27.1592 7.65859 26.9168 7.06035C26.7715 6.70183 26.5227 6.23268 26.3639 6.0178C25.8613 5.33773 22.0289 2.61073 19.0207 0.792642C18.0494 0.205649 17.8209 0.116904 17.1393 0.0622332C16.6462 0.0226784 16.16 0.197541 15.805 0.542086L15.7522 0.593394C14.9852 1.3378 14.8566 1.7674 14.8623 3.56603C14.8686 5.53201 14.8824 5.55194 17.5981 7.5037C18.7946 8.36355 20.382 9.47215 21.1257 9.96725C23.0032 11.2171 23.3872 11.5485 23.9975 12.4457C24.5922 13.3201 24.9502 14.4672 24.8533 15.1881C24.8203 15.4342 24.8099 15.6355 24.8303 15.6355C24.8507 15.6355 25.1329 15.4259 25.4576 15.1697Z" fill="#FF95B0"/>
</svg>
