<svg width="14" height="14" viewBox="0 0 14 14" fill="none" xmlns="http://www.w3.org/2000/svg">
<path d="M2.70387 9.70923C2.70768 9.6994 2.92749 8.953 3.19235 8.05057C3.55855 6.80284 3.6817 6.40134 3.70642 6.37444C3.73052 6.34822 3.90377 5.80712 4.37676 4.28083C4.93205 2.48896 5.02393 2.20458 5.08668 2.0835C5.21454 1.83678 5.31301 1.74085 5.48951 1.69104C5.54494 1.67541 5.60897 1.65302 5.63181 1.6413C5.66833 1.62258 5.82768 1.62119 6.95207 1.62996C8.14015 1.63921 8.23332 1.6417 8.26647 1.66483C8.2861 1.67853 8.33689 1.69676 8.37934 1.70534C8.56113 1.7421 8.68445 1.85359 8.81143 2.096C8.88505 2.23654 8.93136 2.37614 9.31476 3.61305C9.66843 4.75408 9.92976 5.61502 10.8507 8.67322C10.8835 8.78215 10.9641 9.04902 11.0299 9.26628C11.0956 9.48354 11.1473 9.66345 11.1446 9.66608C11.1419 9.66881 11.0312 9.6226 10.8985 9.56358C10.3906 9.33772 9.95587 9.17241 9.54143 9.04761C9.31097 8.97821 8.69629 8.82207 8.65185 8.82164C8.63592 8.82149 8.43697 8.2098 7.87538 6.4344C7.46011 5.12153 7.10776 4.01333 7.0924 3.97174C7.06981 3.9106 7.05517 3.89226 7.01593 3.87601C6.95834 3.85215 6.9099 3.8614 6.86958 3.90396C6.8322 3.94339 6.87019 3.82446 6.02548 6.54725L5.32652 8.80024C5.3146 8.83867 5.28153 8.86675 5.24167 8.87229C4.51342 8.97335 3.70844 9.23383 2.92962 9.62043C2.81138 9.67912 2.71065 9.72715 2.70579 9.72715C2.70094 9.72715 2.69996 9.71906 2.70387 9.70923Z" fill="black"/>
<path d="M5.21956 9.88071C5.13581 10.5842 4.9719 11.2878 5.69391 11.9913C5.79118 11.5529 6.01431 11.4674 6.29947 11.4812C6.77603 11.6111 6.85518 11.8361 6.82428 12.1514L6.83438 12.7316C6.98731 13.2499 7.31608 13.4632 7.68215 13.6118C7.56071 12.8134 7.63038 12.8674 7.66198 12.7516C7.97673 12.1921 8.9018 12.1247 9.32725 10.951L9.31715 10.0908C7.40845 10.8508 6.19134 10.5533 5.21956 9.88071Z" fill="#AA3E00"/>
<path d="M9.05402 1.9621L8.01361 1.35916C7.96583 1.33147 7.90444 1.34764 7.87649 1.39527L7.81362 1.50243C7.78567 1.55006 7.80175 1.61113 7.84953 1.63882L8.88994 2.24175C8.93772 2.26945 8.99912 2.25328 9.02707 2.20565L9.08994 2.09849C9.11789 2.05085 9.10181 1.98979 9.05402 1.9621Z" fill="#A75D00"/>
<path fill-rule="evenodd" clip-rule="evenodd" d="M8.19794 1.16233C8.12939 1.12216 8.13293 1.02203 8.20416 0.986676L9.05665 0.563493C9.12101 0.531542 9.19707 0.575684 9.20106 0.64731L9.2543 1.60116C9.25874 1.6808 9.17254 1.73335 9.10366 1.693L8.19794 1.16233Z" fill="#894B00"/>
<path fill-rule="evenodd" clip-rule="evenodd" d="M9.09604 1.88671C9.13826 1.91318 9.19361 1.90457 9.22582 1.86652L9.64509 1.37127C9.7016 1.30451 9.65118 1.20272 9.56375 1.2071L8.44394 1.26309C8.34619 1.26798 8.31267 1.39552 8.3955 1.44746L9.09604 1.88671Z" fill="#8F6400"/>
<path fill-rule="evenodd" clip-rule="evenodd" d="M8.02195 1.25721C7.97973 1.23248 7.96166 1.18087 7.97926 1.13522L8.20727 0.543677C8.23946 0.460165 8.35689 0.457618 8.39252 0.539659L8.81478 1.51205C8.85328 1.60071 8.75572 1.68695 8.67223 1.63805L8.02195 1.25721Z" fill="#B08800"/>
<path fill-rule="evenodd" clip-rule="evenodd" d="M8.30692 1.42405C8.30288 1.42169 8.30103 1.41684 8.30247 1.41238L8.49191 0.82508C8.49473 0.816326 8.5069 0.815694 8.5106 0.824109L8.92434 1.76473C8.92824 1.7736 8.91847 1.78227 8.9101 1.77737L8.30692 1.42405Z" fill="#B08800"/>
</svg>
