<svg width="14" height="14" viewBox="0 0 14 14" fill="none" xmlns="http://www.w3.org/2000/svg">
<mask id="mask0_668_1317" style="mask-type:alpha" maskUnits="userSpaceOnUse" x="1" y="0" width="12" height="14">
<path d="M1.53567 3.30674C1.23655 3.48597 1.0524 3.80808 1.0497 4.15677L1.00456 9.98028C1.00174 10.3431 1.19571 10.679 1.51138 10.858L6.55247 13.7157C6.86291 13.8916 7.2436 13.8889 7.55143 13.7084L12.5058 10.8034C12.8119 10.6239 13 10.2956 13 9.94074V4.15926C13 3.80922 12.817 3.48466 12.5174 3.30354L7.56915 0.311463C7.25224 0.11984 6.85538 0.119046 6.53771 0.309401L1.53567 3.30674Z" fill="#00FFFF"/>
</mask>
<g mask="url(#mask0_668_1317)">
<rect width="18.1535" height="13.7774" transform="matrix(0.871036 -0.491219 0.433114 0.901339 -2.69226 5.91724)" fill="#3C0098"/>
<rect width="11.0394" height="13.1601" transform="matrix(0.440963 -0.897525 0.866717 0.498801 -2.95691 14.1497)" fill="#2F007B"/>
<rect width="18.1867" height="13.7545" transform="matrix(0.861763 -0.507311 0.447719 0.894174 -7.00006 -0.773682)" fill="#270067"/>
<path d="M10.1701 7.99999L10.4311 5.89999H10.7671L10.5091 7.99999H10.1701ZM9.06006 7.51999V7.19299H10.9981V7.51999H9.06006ZM9.39306 7.99999L9.65406 5.89999H9.99006L9.72906 7.99999H9.39306ZM9.16206 6.70699V6.37999H11.0971L11.1001 6.70699H9.16206Z" fill="white"/>
</g>
<path d="M6.76564 11C4.57898 11 2.79999 9.2056 2.79999 7C2.79999 4.7944 4.57898 3 6.76564 3C8.17664 3 9.49258 3.76588 10.1999 4.99874L8.48363 6.00048C8.12964 5.38336 7.4713 5 6.76564 5C5.67229 5 4.78281 5.89718 4.78281 7C4.78281 8.10278 5.67229 9 6.76564 9C7.47138 9 8.12972 8.61664 8.48375 7.99941L10.2 9.00109C9.49269 10.2341 8.17672 11 6.76564 11Z" fill="white"/>
</svg>
