<svg width="14" height="14" viewBox="0 0 14 14" fill="none" xmlns="http://www.w3.org/2000/svg">
<path d="M1.51653 12.1354L0.502515 0.718528C0.468171 0.331843 0.789932 0 1.19921 0H12.8008C13.2107 0 13.5327 0.332809 13.4973 0.720009L12.4562 12.1368C12.431 12.4124 12.228 12.6443 11.9469 12.7184L7.17801 13.9758C7.05557 14.008 6.92616 14.0081 6.8037 13.9759L2.02623 12.7185C1.74442 12.6444 1.54107 12.4117 1.51653 12.1354Z" fill="#172E84"/>
<path d="M6.99087 12.5365V1.36368C6.99087 1.20678 7.12502 1.07958 7.29051 1.07958H11.9279C12.1036 1.07958 12.2416 1.22222 12.2264 1.38817L11.2938 11.6112C11.283 11.7301 11.195 11.8298 11.0735 11.861L7.36872 12.8108C7.17826 12.8596 6.99087 12.7236 6.99087 12.5365Z" fill="#1C49B1"/>
<path d="M3.65485 10.3223L3.45509 7.92641H5.08315L5.22298 9.11016L7.03082 9.59314L8.89859 9.11016L9.01844 7.12146H3.45509L3.22537 5.49262H9.20822L9.388 3.97741H3.07555L2.89576 2.40539H11.1859L10.4867 10.3223L7.03082 11.2315L3.65485 10.3223Z" fill="#C3CBE0"/>
</svg>
