<svg width="12" height="14" viewBox="0 0 12 14" fill="none" xmlns="http://www.w3.org/2000/svg">
<path d="M0.938334 12.1354L0.00232172 0.718528C-0.0293807 0.331843 0.26763 0 0.645428 0H11.3546C11.7329 0 12.0301 0.332809 11.9976 0.720009L11.0365 12.1368C11.0133 12.4124 10.8259 12.6443 10.5664 12.7184L6.16432 13.9758C6.05129 14.008 5.93184 14.0081 5.8188 13.9759L1.40883 12.7185C1.14869 12.6444 0.960988 12.4117 0.938334 12.1354Z" fill="#6C1600"/>
<path d="M5.99157 12.5365V1.36368C5.99157 1.20678 6.1154 1.07958 6.26816 1.07958H10.5488C10.711 1.07958 10.8384 1.22222 10.8244 1.38817L9.96351 11.6112C9.9535 11.7301 9.87226 11.8298 9.76014 11.861L6.34036 12.8108C6.16454 12.8596 5.99157 12.7236 5.99157 12.5365Z" fill="#942700"/>
<path d="M2.5987 7.22563L2.21147 2.55691L9.76245 2.59479L9.64259 4.11946H3.92635L4.07386 5.74831H9.46741L9.09862 10.3886L5.99157 11.3451L2.80154 10.3886L2.5987 8.09687H4.32279V9.23328L5.99157 9.78254L7.60503 9.23328L7.74332 7.22563H2.5987Z" fill="#E8D7D0"/>
</svg>
