<svg width="14" height="14" viewBox="0 0 14 14" fill="none" xmlns="http://www.w3.org/2000/svg">
<path d="M8.7576 3.16808L8.75761 3.16807C8.80497 3.14567 8.86658 3.13437 8.91637 3.13366C8.94118 3.13331 8.96504 3.13554 8.98362 3.14147C8.99285 3.14442 9.00249 3.14881 9.01023 3.15571C9.01849 3.16306 9.025 3.17379 9.025 3.18736C9.025 3.19576 9.02114 3.20224 9.01971 3.20458C9.01766 3.20793 9.01512 3.21116 9.01261 3.21408C9.00753 3.22 9.00058 3.22692 8.99241 3.2345C8.97592 3.24976 8.95249 3.26946 8.92407 3.29212C8.8671 3.33752 8.78879 3.39581 8.70281 3.45613C8.35827 3.69786 8.10114 3.89274 7.91442 4.05537C7.72741 4.21824 7.61255 4.34747 7.55089 4.45765C7.47315 4.59655 7.44435 4.68289 7.47481 4.79634C7.49045 4.85462 7.52211 4.92126 7.57372 5.00629C7.62528 5.09124 7.69594 5.19326 7.78868 5.3223C7.98075 5.58955 8.05981 5.83562 8.01555 6.07771C7.97145 6.31896 7.80588 6.55039 7.5222 6.7911C7.38986 6.9034 7.30903 6.96871 7.25463 7.00003C7.22735 7.01574 7.20353 7.02485 7.18112 7.025C7.15721 7.02516 7.13898 7.01519 7.12347 7.00195L8.7576 3.16808ZM8.7576 3.16808C8.71993 3.18591 8.50839 3.2753 8.28694 3.3669C7.69041 3.61364 7.25881 3.86386 6.94409 4.14691C6.77534 4.29867 6.67234 4.41281 6.6177 4.54065C6.56283 4.66905 6.55806 4.80809 6.57767 5.00623C6.61013 5.33436 6.74573 5.59643 7.05549 5.93886C7.16383 6.05863 7.21474 6.11621 7.23974 6.17067C7.26391 6.22332 7.26416 6.27388 7.26188 6.38518C7.25908 6.52041 7.22616 6.66904 7.17614 6.77477C7.15277 6.82416 7.13413 6.87185 7.12298 6.90913M8.7576 3.16808L7.12298 6.90913M7.12298 6.90913C7.11745 6.92764 7.1135 6.94446 7.11194 6.95803M7.12298 6.90913L7.11194 6.95803M7.11194 6.95803C7.11117 6.96473 7.11085 6.97175 7.11168 6.97828M7.11194 6.95803L7.11168 6.97828M7.11168 6.97828C7.11239 6.98385 7.11456 6.99433 7.12346 7.00194L7.11168 6.97828ZM7.82337 0.976967L7.82336 0.97697C7.81024 0.980709 7.80302 0.99167 7.79957 0.997731C7.79535 1.00514 7.79184 1.01429 7.78882 1.02412C7.7827 1.04398 7.77724 1.07096 7.77248 1.10297C7.76293 1.16726 7.75573 1.25519 7.75255 1.35472C7.73732 1.83103 7.56633 2.21654 7.26921 2.4548L7.26921 2.4548C7.11375 2.57949 6.61909 2.90018 6.2965 3.08514C6.156 3.16569 5.94452 3.32441 5.7483 3.48859C5.55232 3.65257 5.36872 3.82436 5.28513 3.93159C5.1581 4.09454 5.07988 4.21226 5.03395 4.33378C4.98786 4.45575 4.975 4.57965 4.975 4.75363C4.975 4.90005 4.977 4.98474 5.00008 5.06768C5.02308 5.15035 5.0667 5.2301 5.14574 5.36792C5.36138 5.74387 5.62834 6.04319 6.04674 6.37943C6.13807 6.45281 6.22536 6.51962 6.2925 6.56816C6.32602 6.59241 6.35478 6.61228 6.3766 6.62618C6.38747 6.6331 6.397 6.63878 6.40475 6.64282C6.4086 6.64483 6.41243 6.64666 6.41603 6.64804C6.41889 6.64914 6.42435 6.65109 6.43048 6.65109C6.44187 6.65109 6.45356 6.64883 6.46391 6.64243C6.47459 6.63583 6.48178 6.6261 6.48588 6.61488C6.49348 6.59416 6.49084 6.5678 6.48382 6.53975C6.46942 6.48221 6.43101 6.39746 6.37003 6.28491C6.1709 5.91737 5.97234 5.37757 5.90267 5.015C5.87125 4.85153 5.85628 4.76509 5.85648 4.70165C5.85666 4.64063 5.87088 4.60091 5.90247 4.53022C5.91735 4.49693 5.9469 4.45369 5.98941 4.40317C6.03165 4.35297 6.08569 4.29675 6.14839 4.2376C6.27379 4.11929 6.43292 3.99008 6.59959 3.87475C7.24314 3.42948 7.65273 3.10482 7.90119 2.8124C8.15101 2.51839 8.23838 2.25643 8.23808 1.93852C8.23788 1.74295 8.21083 1.59137 8.14706 1.43134C8.09457 1.2996 8.03519 1.18384 7.98096 1.10265C7.95395 1.06221 7.92753 1.0293 7.90316 1.00731C7.891 0.996325 7.87846 0.987241 7.86579 0.981549C7.85313 0.975861 7.83834 0.972706 7.82337 0.976967Z" fill="#775325" stroke="#775325" stroke-width="0.05"/>
<path d="M5.03991 11.0676L5.03991 11.0676C4.98311 11.051 4.90613 11.0374 4.87017 11.0369L4.87014 11.0369C4.84467 11.0365 4.80731 11.0267 4.76594 11.0125C4.72363 10.9979 4.67415 10.9777 4.62316 10.9544C4.52141 10.908 4.41165 10.8486 4.33893 10.7962C4.18267 10.6837 4.11914 10.4551 4.19552 10.279L4.21845 10.289M5.03991 11.0676L7.96875 10.3237C7.95338 10.3135 7.93924 10.3039 7.92601 10.2949C7.8453 10.2401 7.7986 10.2084 7.71354 10.2051C7.66565 10.2033 7.60576 10.2102 7.52017 10.2244C7.45854 10.2346 7.38247 10.2488 7.28665 10.2666C7.24902 10.2736 7.20835 10.2812 7.16431 10.2893C6.83923 10.3494 6.68643 10.3606 6.18472 10.3606C5.60599 10.3606 5.26897 10.3253 4.98458 10.2363C4.95654 10.2276 4.93639 10.2203 4.92218 10.2131C4.90777 10.2059 4.90255 10.2003 4.90055 10.1967C4.89902 10.1939 4.89761 10.1892 4.90025 10.1782C4.90304 10.1665 4.90955 10.1511 4.92061 10.1295C4.93426 10.1027 4.94187 10.0758 4.93677 10.0514C4.93122 10.0247 4.9121 10.0073 4.88711 9.99778C4.86312 9.9886 4.83183 9.98566 4.79519 9.98708C4.75812 9.98851 4.71347 9.99451 4.66155 10.0048L4.66154 10.0048C4.55717 10.0256 4.45382 10.0656 4.37049 10.1139C4.28832 10.1615 4.22125 10.2197 4.19552 10.279L4.21845 10.289M5.03991 11.0676C5.09937 11.0849 5.26053 11.1179 5.39808 11.1411C5.58067 11.1719 5.85571 11.1812 6.37745 11.175C7.04487 11.1671 7.13328 11.1599 7.46297 11.0841C7.65989 11.0388 7.86769 10.9805 8.03948 10.9244C8.12537 10.8964 8.20248 10.8689 8.26486 10.8438C8.32664 10.8189 8.37574 10.7957 8.40433 10.776C8.45224 10.743 8.45975 10.6737 8.42113 10.6304L8.42113 10.6304M5.03991 11.0676L8.42113 10.6304M4.21845 10.289C4.14679 10.4542 4.20675 10.6703 4.35354 10.7759L4.21845 10.289ZM8.42113 10.6304L8.40969 10.6176M8.42113 10.6304L8.40969 10.6176M3.76946 8.41578C3.48265 8.337 3.2395 8.23105 3.11693 8.12865L3.11693 8.12864C3.08095 8.09858 3.03742 8.03608 3.00353 7.97563C2.98631 7.94492 2.97098 7.91368 2.95987 7.88586C2.94914 7.85899 2.94108 7.83229 2.94103 7.81183C2.94103 7.81182 2.94103 7.81181 2.94103 7.8118L2.96603 7.81175L3.76946 8.41578ZM3.76946 8.41578C4.06666 8.49743 4.41752 8.53888 5.05414 8.56855C5.16364 8.57363 5.28463 8.58042 5.32305 8.58359C5.36897 8.58739 5.48395 8.58525 5.63161 8.57961C5.78008 8.57393 5.96353 8.56461 6.14778 8.55368C6.51528 8.53188 6.88891 8.5035 6.9928 8.48462C7.36786 8.41637 7.77897 8.31997 7.97701 8.25354C8.1611 8.19178 8.36534 8.10651 8.53843 8.02264C8.62499 7.98071 8.70401 7.939 8.76898 7.90062C8.83353 7.8625 8.88561 7.82685 8.91724 7.79691C8.94969 7.76619 8.97141 7.73567 8.98138 7.70699C8.99148 7.67791 8.98998 7.64837 8.97163 7.62552C8.95397 7.60354 8.9252 7.59348 8.89321 7.5921C8.86082 7.59071 8.82176 7.59791 8.77796 7.61421L8.77796 7.61422C8.72982 7.63215 8.59457 7.65988 8.47753 7.67506L8.47753 7.67506C8.35988 7.69035 8.14209 7.72339 7.99333 7.74851C7.7158 7.7954 7.1051 7.82966 6.44568 7.8445C5.78679 7.85933 5.08172 7.85473 4.61632 7.82436C4.40097 7.8103 4.23631 7.7918 4.12805 7.77031C4.07359 7.7595 4.03513 7.74825 4.01188 7.73725C4.00183 7.73248 3.99622 7.7285 3.99342 7.72584L3.76946 8.41578ZM8.40969 10.6176C8.371 10.5742 8.30005 10.5198 8.25005 10.4955L8.40969 10.6176ZM10.0772 6.975L10.0772 7L10.0772 6.975C9.8365 6.97563 9.62412 7.03136 9.31131 7.17402C9.25032 7.20184 9.203 7.22548 9.17563 7.24692C9.16245 7.25725 9.1492 7.27055 9.14507 7.28753C9.14004 7.3082 9.15006 7.32497 9.16331 7.33629C9.17574 7.34692 9.19379 7.3556 9.21516 7.36342C9.23704 7.37143 9.2647 7.37934 9.29812 7.38749C9.36496 7.40379 9.45714 7.42161 9.57686 7.4433C9.85529 7.49377 10.0848 7.61425 10.1963 7.76263C10.311 7.91514 10.2859 8.14161 10.121 8.4166C9.95689 8.69019 9.65868 9.00331 9.24617 9.3198C9.17657 9.37319 9.11311 9.42667 9.06685 9.46995C9.04378 9.49153 9.02459 9.51094 9.01099 9.52677C9.00423 9.53464 8.9984 9.54213 8.99411 9.54892C8.99197 9.55232 8.98992 9.556 8.98834 9.55981C8.98687 9.56336 8.98513 9.5686 8.98513 9.5747C8.98513 9.58993 8.99026 9.60409 9.00116 9.61527C9.01147 9.62586 9.02522 9.63203 9.03965 9.63558C9.06806 9.64257 9.10702 9.6413 9.15373 9.63425C9.24812 9.62 9.38566 9.58015 9.56126 9.51625C10.0439 9.34062 10.4376 9.11331 10.6689 8.87418C10.8041 8.73445 10.8936 8.61599 10.9491 8.48811C11.0046 8.35998 11.025 8.22437 11.025 8.05168C11.0248 7.43651 10.6231 6.97371 10.0772 6.975ZM3.76289 12.5473L3.76285 12.5473C3.74944 12.5604 3.74489 12.581 3.74369 12.5977C3.74239 12.616 3.74457 12.6367 3.75044 12.6561C3.75951 12.6861 3.77754 12.7077 3.80922 12.7229C3.83872 12.7371 3.88032 12.7459 3.93732 12.7535C4.01801 12.7643 4.25673 12.8061 4.46783 12.8464C4.6797 12.8869 5.01955 12.9343 5.22368 12.9519C5.42689 12.9695 5.70181 12.9947 5.83456 13.0079C6.00369 13.0248 6.51634 13.0282 7.03683 13.0223C7.55759 13.0165 8.08977 13.0012 8.29845 12.9802C8.62564 12.9472 8.96793 12.8976 9.26211 12.8431C9.55569 12.7887 9.80313 12.7292 9.93959 12.6759C10.4652 12.4705 10.789 12.2054 10.9195 11.8628C10.9354 11.8212 10.9455 11.7901 10.9444 11.7635C10.9433 11.7337 10.9286 11.7132 10.9087 11.6923C10.8984 11.6814 10.8861 11.6704 10.8699 11.6653C10.8526 11.66 10.8354 11.6627 10.8176 11.6699C10.8004 11.6769 10.7805 11.6891 10.7564 11.706C10.7322 11.723 10.7023 11.7459 10.6649 11.7752C10.5563 11.8602 10.3912 11.9584 10.2191 12.0446C10.047 12.1308 9.86958 12.2041 9.73663 12.24C9.67536 12.2565 9.5101 12.3026 9.36938 12.3423C9.06111 12.4294 8.52917 12.5033 7.93905 12.5405C7.39811 12.5746 5.17957 12.5752 4.3883 12.5415C4.2278 12.5346 4.07905 12.5311 3.96863 12.5308C3.91347 12.5307 3.8676 12.5314 3.83451 12.533C3.81803 12.5338 3.80426 12.5348 3.79392 12.5362C3.78881 12.5368 3.78393 12.5376 3.77975 12.5387C3.77766 12.5392 3.77523 12.5399 3.7728 12.5409C3.77077 12.5417 3.76667 12.5436 3.76289 12.5473ZM4.54173 12.3924L4.54176 12.3924C4.62141 12.3984 5.19852 12.3994 5.82303 12.3948C7.32832 12.3837 8.32286 12.2869 9.09852 12.0749C9.22351 12.0408 9.37641 12.0023 9.43813 11.9896C9.59407 11.9573 9.79377 11.8809 9.96861 11.7949C10.0562 11.7518 10.138 11.706 10.2055 11.6617C10.2724 11.6178 10.327 11.5741 10.3584 11.535C10.4188 11.4597 10.4475 11.375 10.4432 11.2909C10.4389 11.2069 10.4017 11.1255 10.334 11.0566L10.3162 11.0741L10.334 11.0566C10.3023 11.0244 10.2728 11.0002 10.2463 10.9848C10.2205 10.9698 10.1937 10.9609 10.1692 10.966C10.1418 10.9718 10.1256 10.9929 10.1187 11.019C10.1121 11.0441 10.113 11.0766 10.1198 11.1145C10.1256 11.147 10.1261 11.1708 10.1208 11.1902C10.1157 11.2088 10.1047 11.2259 10.0824 11.2437C10.0596 11.2619 10.0255 11.2803 9.97571 11.301C9.92609 11.3216 9.86226 11.3438 9.78071 11.3702C9.40042 11.4932 8.78428 11.607 7.80951 11.7337C7.39673 11.7874 6.65587 11.8099 5.9208 11.8038C5.18563 11.7977 4.45912 11.763 4.07486 11.7028C3.86572 11.67 3.60495 11.6306 3.49531 11.6151C3.35485 11.5954 3.20737 11.5567 3.09538 11.515C3.03928 11.4941 2.99302 11.4728 2.96125 11.4532C2.94528 11.4434 2.93397 11.4346 2.92696 11.4272C2.92056 11.4205 2.91991 11.4173 2.91986 11.4173C2.91985 11.4173 2.91986 11.4174 2.91986 11.4176C2.91986 11.4157 2.92067 11.4113 2.926 11.4041C2.93132 11.3969 2.9401 11.3883 2.95319 11.3785C2.97939 11.3589 3.01939 11.3372 3.07291 11.3141C3.17968 11.2681 3.33572 11.2186 3.53097 11.1703C3.61874 11.1486 3.70452 11.1242 3.77212 11.1025C3.8059 11.0916 3.83538 11.0813 3.85842 11.0721C3.8803 11.0635 3.89943 11.0548 3.90987 11.0467L3.90989 11.0467C3.92156 11.0376 3.93185 11.0291 3.93945 11.0207C3.94706 11.0124 3.95438 11.0017 3.95582 10.9881C3.9573 10.9742 3.95216 10.9623 3.94609 10.9527C3.94014 10.9434 3.93156 10.9336 3.92193 10.9233C3.90606 10.9064 3.8861 10.8953 3.85384 10.8897C3.823 10.8844 3.7797 10.8839 3.71558 10.888C3.58694 10.8961 3.36647 10.9232 2.97622 10.9741C2.60196 11.0228 2.32064 11.1142 2.15311 11.2379C2.06904 11.3 2.01211 11.3714 1.98797 11.4511C1.96368 11.5313 1.97354 11.6167 2.01713 11.7043L2.01713 11.7043C2.11761 11.9063 2.3217 12.0451 2.71116 12.1499C3.10053 12.2548 3.68082 12.3273 4.54173 12.3924ZM7.91106 8.86638L7.91682 8.89071L7.91106 8.86638L7.86407 8.8775C7.58279 8.94408 7.03242 9.04049 6.71002 9.07964C6.50134 9.10499 6.04405 9.11021 5.61011 9.10082C5.39346 9.09613 5.18326 9.08782 5.01363 9.07663C4.8427 9.06536 4.71614 9.05132 4.6644 9.03601C4.60291 9.01781 4.55636 9.00219 4.52284 8.98749C4.48826 8.97232 4.47196 8.95993 4.46567 8.95055C4.46308 8.94669 4.46248 8.94377 4.4626 8.94098C4.46275 8.93773 4.46404 8.93266 4.46849 8.9252C4.47778 8.90962 4.49704 8.88974 4.52852 8.86336C4.55766 8.83895 4.58432 8.81216 4.60393 8.78839C4.61371 8.77654 4.62211 8.76498 4.62822 8.75449C4.63365 8.74516 4.63967 8.73273 4.63967 8.72031C4.63967 8.69645 4.63234 8.67382 4.61211 8.65873C4.59334 8.64474 4.56802 8.64083 4.54035 8.64192C4.48487 8.64411 4.40155 8.66742 4.28643 8.70941C4.1576 8.7564 4.03606 8.82646 3.94631 8.89975C3.90145 8.93638 3.86389 8.97434 3.83732 9.01124C3.81112 9.04764 3.79372 9.08564 3.79372 9.1218C3.79372 9.15355 3.8049 9.18756 3.82276 9.22111C3.84076 9.25492 3.86638 9.28983 3.89731 9.32386C3.95916 9.39189 4.04389 9.45814 4.13666 9.50639C4.38609 9.63613 4.87794 9.75597 5.26676 9.78292C5.79632 9.81966 6.50914 9.78905 7.04896 9.70645C7.50246 9.63704 8.28202 9.4862 8.5228 9.42113C8.56226 9.41046 8.59439 9.39685 8.61605 9.37839C8.63914 9.35871 8.65066 9.33295 8.64546 9.30284C8.64072 9.27545 8.62269 9.24813 8.59708 9.22091C8.57099 9.19319 8.53448 9.16292 8.48818 9.12977C8.40619 9.07105 8.28168 8.98062 8.21157 8.92884C8.12446 8.8645 8.01528 8.84172 7.91106 8.86638ZM6.98833 8.46002C6.78427 8.49712 5.50138 8.57324 5.32511 8.55868C5.28617 8.55546 5.16475 8.54866 5.0553 8.54357L6.98833 8.46002Z" fill="#3A4953" stroke="#3A4953" stroke-width="0.05"/>
</svg>
