<svg width="14" height="14" viewBox="0 0 14 14" fill="none" xmlns="http://www.w3.org/2000/svg">
<g clip-path="url(#clip0_668_1304)">
<path d="M2.02492 13.9651C1.008 13.763 0.228489 12.978 0.035758 11.9619C0.00457424 11.7975 0 11.161 0 7.00095C0 2.84086 0.00457424 2.20434 0.035758 2.04C0.204882 1.14837 0.836712 0.416943 1.68828 0.127043C2.07933 -0.00608278 1.82266 4.35168e-05 6.99999 4.35168e-05C12.1773 4.35168e-05 11.9206 -0.00608278 12.3117 0.127043C13.1632 0.416943 13.7951 1.14837 13.9642 2.04C13.9954 2.20434 14 2.84086 14 7.00095C14 12.1789 14.0061 11.9222 13.873 12.3133C13.5831 13.165 12.8518 13.7969 11.9603 13.9661C11.7957 13.9973 11.1637 14.0015 6.97962 13.9996C3.03087 13.9978 2.15888 13.9917 2.02492 13.9651ZM6.68751 12.3311C7.11643 12.242 7.50843 11.9375 7.70335 11.5421C7.8827 11.1782 7.8753 11.2743 7.90167 8.96809C7.92309 7.09632 7.92178 6.89728 7.88777 6.84536L7.85024 6.78808H7.22883C6.77703 6.78808 6.59967 6.79582 6.57905 6.81646C6.55741 6.83808 6.55067 7.31963 6.55067 8.83946V10.8341L6.49136 10.9511C6.41827 11.0954 6.35402 11.1393 6.19185 11.1559C5.94535 11.1812 5.77873 11.0888 5.60234 10.829C5.48614 10.6579 5.41972 10.6261 5.28637 10.6776C5.09676 10.751 4.45911 11.1528 4.42659 11.2194C4.38443 11.3057 4.41716 11.3991 4.56184 11.605C4.87682 12.0534 5.34894 12.3303 5.86484 12.3691C6.15419 12.3908 6.47004 12.3762 6.68751 12.3311ZM11.1739 12.3344C11.6967 12.2254 12.1459 11.916 12.3528 11.5221C12.4864 11.2679 12.5416 10.997 12.5272 10.667C12.4955 9.94174 12.1468 9.4768 11.3395 9.08363C11.2094 9.02028 10.9274 8.88346 10.7128 8.77959C10.4877 8.67063 10.2901 8.55843 10.2457 8.51439C10.1778 8.44697 10.1689 8.42312 10.1689 8.30962C10.1689 8.05099 10.3089 7.93577 10.6052 7.95074C10.7491 7.958 10.7884 7.96998 10.8733 8.03245C10.9281 8.07271 11.0111 8.15573 11.0578 8.21696C11.1648 8.35706 11.2303 8.38441 11.3446 8.33665C11.4617 8.28774 12.0251 7.92992 12.1101 7.85052C12.2358 7.7331 12.1889 7.57772 11.9452 7.30395C11.7408 7.0743 11.3888 6.85885 11.1062 6.79029C10.7528 6.70454 10.2274 6.72014 9.91048 6.82573C9.54936 6.94607 9.21579 7.19883 9.0509 7.47706C8.89755 7.73577 8.83788 7.96061 8.83512 8.28995C8.83227 8.62805 8.86055 8.7589 8.99873 9.04785C9.07124 9.19951 9.1467 9.31112 9.25797 9.43131C9.49678 9.68927 9.71316 9.82046 10.4686 10.1654C11.0621 10.4363 11.1601 10.5146 11.1788 10.733C11.2031 11.0148 10.9231 11.1843 10.4763 11.1583C10.1836 11.1413 9.93594 10.9986 9.72676 10.7265C9.59743 10.5583 9.5601 10.525 9.5004 10.525C9.45599 10.525 8.7366 10.931 8.59034 11.0385C8.4882 11.1137 8.49068 11.1848 8.60217 11.3758C8.89068 11.8703 9.4929 12.2521 10.1557 12.3609C10.3985 12.4007 10.9207 12.3871 11.1739 12.3344Z" fill="#6F6411"/>
</g>
<defs>
<clipPath id="clip0_668_1304">
<rect width="14" height="14" fill="white"/>
</clipPath>
</defs>
</svg>
