<svg width="14" height="14" viewBox="0 0 14 14" fill="none" xmlns="http://www.w3.org/2000/svg">
<path d="M0.647609 11.9451C0.43789 11.8754 0.181823 11.6314 0.0826619 11.4066C-0.0275862 11.1567 -0.0275217 10.8238 0.0826619 10.5761C0.211121 10.2877 4.47001 2.47813 4.57479 2.33886C4.82357 2.00821 5.33156 1.90148 5.71474 2.09939C5.82105 2.1543 5.95062 2.2539 6.00265 2.3207C6.05469 2.3875 6.48912 3.16462 6.96806 4.04762C7.447 4.93061 7.84653 5.6534 7.85592 5.65383C7.86535 5.65383 8.07179 5.28651 8.31475 4.83657C8.93736 3.68361 9.0372 3.58343 9.56337 3.58343C9.89774 3.58343 10.0448 3.64628 10.2496 3.87688C10.368 4.01017 13.7902 10.2596 13.9382 10.6128C13.9972 10.7535 14.008 10.8348 13.9953 11.0417C13.9866 11.1826 13.9525 11.3536 13.9191 11.4232C13.8184 11.6334 13.594 11.8502 13.3964 11.9283C13.2207 11.9977 13.1268 12 10.5353 12C9.06164 12 7.85592 11.9883 7.85592 11.9738C7.85592 11.9594 8.04369 11.6027 8.27315 11.1811L8.69035 10.4145L10.3909 10.4051L12.0914 10.3959L10.8474 8.11163C10.1632 6.85531 9.59055 5.81465 9.57484 5.79906C9.55915 5.78347 8.98538 6.80291 8.29984 8.06449C7.61431 9.32606 6.9674 10.4803 6.86228 10.6294C6.39869 11.287 5.833 11.6902 5.08088 11.8993C4.80996 11.9746 4.72612 11.9778 2.8019 11.9873C1.13656 11.9955 0.778144 11.9887 0.647452 11.9451H0.647609ZM4.74854 10.3258C5.14805 10.1894 5.4018 10.0027 5.64766 9.66395C5.72965 9.55097 6.0475 8.99622 6.35402 8.43116C6.66054 7.86608 6.92709 7.37667 6.94632 7.34353C6.97425 7.29542 6.81358 6.9746 6.14741 5.74833C5.68878 4.90411 5.30543 4.21341 5.29553 4.21341C5.28275 4.21341 2.06386 10.1062 1.92154 10.3901C1.91315 10.4067 2.50358 10.4135 3.23353 10.4051C4.38599 10.3919 4.58545 10.3814 4.74854 10.3258Z" fill="url(#paint0_linear_668_1329)"/>
<defs>
<linearGradient id="paint0_linear_668_1329" x1="1.04308e-07" y1="7" x2="14" y2="7" gradientUnits="userSpaceOnUse">
<stop stop-color="#00855D"/>
<stop offset="1" stop-color="#003E9B"/>
</linearGradient>
</defs>
</svg>
