<svg width="14" height="14" viewBox="0 0 14 14" fill="none" xmlns="http://www.w3.org/2000/svg">
<path d="M6.56127 4.14959C6.56559 4.15244 6.56945 4.15505 6.57288 4.15743C6.5641 4.16707 6.55137 4.17771 6.53635 4.18662C6.49107 4.21346 6.28443 4.35743 6.07845 4.50526C5.38226 5.0049 4.83957 5.46376 4.22005 6.07653C4.0995 6.19577 3.98714 6.30404 3.90328 6.38238C3.86129 6.4216 3.82676 6.45303 3.80204 6.47451C3.79624 6.47955 3.79111 6.48393 3.78663 6.48767C3.77304 6.47632 3.75486 6.45857 3.73249 6.43446C3.68796 6.38646 3.63048 6.31724 3.56571 6.23384C3.43632 6.06723 3.28017 5.84701 3.14424 5.63368C2.72415 4.97435 2.52214 4.46451 2.49853 4.02382C2.48982 3.86119 2.49654 3.74292 2.52172 3.64621C2.54655 3.55084 2.59001 3.47389 2.65916 3.39505C2.83277 3.19714 3.08003 3.10931 3.52299 3.10893C4.03235 3.10846 4.54324 3.22682 5.30298 3.52491C5.48895 3.59788 5.81265 3.75139 6.09192 3.89322C6.23135 3.96404 6.35891 4.03154 6.45192 4.08416C6.49855 4.11054 6.53577 4.13278 6.56127 4.14959ZM6.83919 7.91492L6.83919 7.91492C6.86736 7.92214 6.91455 7.92677 6.96492 7.92931C7.01668 7.93192 7.07623 7.93252 7.13141 7.93047C7.39153 7.92082 7.62814 7.81496 7.8142 7.62575C8.22429 7.20868 8.20908 6.52769 7.779 6.13968C7.25477 5.66671 6.45867 5.81297 6.15014 6.44161C6.11093 6.52152 6.08703 6.57444 6.07432 6.63932C6.0619 6.70269 6.06056 6.77558 6.06056 6.89472C6.06056 7.00778 6.0626 7.08112 6.0731 7.14299C6.08389 7.20659 6.10328 7.25625 6.13426 7.32259C6.26619 7.60504 6.54427 7.83926 6.83919 7.91492ZM2.01946 10.2704C2.16097 10.7624 2.54769 11.0822 3.10733 11.1811C3.53456 11.2566 4.08671 11.1966 4.70334 11.0224C5.32086 10.8479 6.00688 10.5577 6.70352 10.1686L7.07853 9.95918L7.37096 10.1243C8.05448 10.5103 8.73123 10.8052 9.34077 10.9903C9.9494 11.1751 10.4948 11.2516 10.9142 11.1968C11.2008 11.1594 11.4344 11.0863 11.6226 10.9689C11.8114 10.8511 11.952 10.6902 12.0546 10.4818C12.2392 10.1071 12.218 9.60734 12.0232 9.0409C11.8279 8.47329 11.4558 7.83137 10.9264 7.16575C10.8601 7.08246 10.8047 7.00724 10.7674 6.9512C10.7486 6.92299 10.7351 6.9007 10.727 6.88516C10.7268 6.88467 10.7265 6.88418 10.7263 6.88372L10.7282 6.8812C10.736 6.87085 10.7465 6.85753 10.7589 6.8421C10.7836 6.81127 10.8155 6.77271 10.8484 6.73394C10.9162 6.65423 11.0635 6.4611 11.1763 6.30447C11.6865 5.59594 12.0074 4.94634 12.1274 4.39072C12.2476 3.83457 12.1673 3.36661 11.8663 3.03265C11.7244 2.87526 11.5463 2.76563 11.2899 2.67341C11.2113 2.64517 11.1542 2.62882 11.0609 2.61995C10.9702 2.61132 10.8447 2.6097 10.6294 2.60922C10.3676 2.60865 10.1909 2.61468 10.0126 2.64093C9.83452 2.66717 9.65654 2.71334 9.39209 2.79139C8.78481 2.97061 8.0383 3.29779 7.35245 3.68474C7.27628 3.72772 7.20446 3.7667 7.15023 3.79484C7.12304 3.80894 7.10066 3.82012 7.08451 3.82768C7.08062 3.8295 7.07722 3.83104 7.07431 3.83233C7.07198 3.83129 7.06934 3.83007 7.06637 3.82866C7.0517 3.82174 7.03141 3.81145 7.00676 3.79841C6.95758 3.77241 6.89273 3.73636 6.82418 3.69659C5.89941 3.16003 4.8428 2.75114 4.07119 2.6334C3.77919 2.58884 3.30991 2.5835 3.08757 2.6234C2.54092 2.7215 2.17393 3.01842 2.03083 3.4906C1.99846 3.59738 1.98202 3.74877 1.98025 3.90506C1.97847 4.06196 1.99143 4.22808 2.02009 4.3654C2.15633 5.01831 2.58453 5.81782 3.22734 6.62926C3.2807 6.69662 3.33134 6.76137 3.36991 6.81139C3.3892 6.83641 3.4054 6.85764 3.41738 6.87363L3.42804 6.88807C3.42336 6.89841 3.41523 6.91317 3.40299 6.93248C3.37617 6.97482 3.33358 7.03285 3.27757 7.10227C2.709 7.8069 2.25828 8.60018 2.07 9.2322C2.02238 9.39205 1.99295 9.59175 1.98356 9.77989C1.97421 9.96709 1.98442 10.1486 2.01946 10.2704ZM5.61416 10.1398C5.01782 10.4013 4.65117 10.5242 4.19413 10.6167C4.04823 10.6462 3.86181 10.6709 3.69512 10.6854C3.52611 10.7001 3.38479 10.7036 3.32529 10.6936C2.96533 10.6328 2.74234 10.5302 2.64442 10.4013C2.4799 10.1849 2.44432 9.86074 2.54714 9.44677C2.64971 9.03377 2.88821 8.54013 3.25797 7.99565C3.37604 7.82179 3.50806 7.64186 3.61497 7.50562C3.66849 7.43742 3.71527 7.38075 3.75061 7.34143C3.76405 7.32647 3.7754 7.31452 3.78452 7.3056C3.78554 7.30646 3.78658 7.30735 3.78766 7.30827C3.80646 7.32435 3.83256 7.34807 3.86426 7.3779C3.92751 7.43742 4.01152 7.51981 4.1009 7.61062C4.75189 8.27204 5.50546 8.90159 6.3216 9.466C6.40082 9.52079 6.47134 9.57362 6.52103 9.6144C6.5377 9.62808 6.55161 9.64007 6.56255 9.65009C6.54667 9.66102 6.52557 9.67446 6.49974 9.69006C6.43773 9.72752 6.35164 9.77553 6.25307 9.82789C6.05597 9.93257 5.81133 10.0533 5.61416 10.1398ZM11.5743 10.2942C11.4812 10.4598 11.3435 10.5684 11.1442 10.6302C11.0696 10.6533 10.9348 10.6741 10.7939 10.6865C10.6532 10.6989 10.5132 10.7024 10.4287 10.6931C9.79056 10.6229 9.11257 10.4122 8.28831 10.0257C8.13023 9.95157 7.94303 9.85354 7.79545 9.77031C7.72161 9.72867 7.65832 9.69109 7.61382 9.66231C7.60343 9.65559 7.59427 9.64948 7.58638 9.64402C7.59443 9.63742 7.60378 9.62998 7.61435 9.62181C7.65645 9.58925 7.71507 9.54711 7.77991 9.50342C8.21392 9.21098 8.95626 8.63778 9.28394 8.34191C9.66771 7.99541 10.0407 7.64038 10.1968 7.47265C10.2459 7.41984 10.2935 7.37211 10.3303 7.33785C10.3451 7.32409 10.3577 7.31287 10.3678 7.3045C10.3807 7.31693 10.3978 7.33513 10.4185 7.35862C10.4625 7.40852 10.5201 7.47912 10.5838 7.5608C10.7111 7.7241 10.8607 7.92932 10.9707 8.09694C11.2222 8.47996 11.4643 8.96333 11.5668 9.28457C11.6046 9.40299 11.6242 9.4723 11.635 9.54758C11.6458 9.62337 11.6478 9.70678 11.6478 9.85363C11.6478 10.0124 11.647 10.0889 11.6376 10.1435C11.6289 10.1941 11.613 10.2253 11.5743 10.2942ZM8.75572 8.11878C8.327 8.4779 7.84112 8.84492 7.42447 9.12444C7.33382 9.18526 7.24676 9.2404 7.17969 9.28018C7.14608 9.30011 7.11801 9.31588 7.09726 9.32651C7.08724 9.33165 7.07959 9.33525 7.07421 9.33749C7.0714 9.33662 7.06685 9.33508 7.06022 9.33231C7.0466 9.32663 7.02861 9.31775 7.00626 9.30548C6.96169 9.28101 6.90312 9.24493 6.83339 9.1992C6.69413 9.10786 6.51313 8.97988 6.31589 8.834C5.92131 8.5422 5.46405 8.18056 5.14895 7.90076C4.94991 7.72401 4.69414 7.47728 4.48808 7.26838C4.38505 7.16393 4.29487 7.06935 4.23063 6.998C4.19843 6.96223 4.1733 6.9329 4.15645 6.91137C4.15206 6.90577 4.14843 6.90093 4.14548 6.89683C4.14914 6.89159 4.15389 6.88519 4.15984 6.8776C4.17883 6.85338 4.20714 6.82065 4.24343 6.78088C4.31583 6.70154 4.41766 6.59676 4.53452 6.48088C4.76821 6.24914 5.06022 5.97477 5.29358 5.7737C5.50531 5.59126 5.82885 5.32879 6.01191 5.19093C6.21318 5.03934 6.47574 4.85256 6.69298 4.70367C6.80162 4.62923 6.89858 4.56448 6.97068 4.51846C7.00681 4.4954 7.0362 4.47736 7.05749 4.46522C7.06558 4.46061 7.07208 4.45708 7.07709 4.45454C7.07828 4.45504 7.07959 4.45561 7.08104 4.45626C7.09152 4.46098 7.1059 4.46843 7.12422 4.47882C7.1607 4.49949 7.20964 4.52995 7.26844 4.56843C7.38587 4.64526 7.54027 4.75249 7.70846 4.8735C8.04495 5.11559 8.43458 5.41131 8.69106 5.62651C9.00294 5.88819 9.33687 6.19395 9.59265 6.44535C9.7206 6.5711 9.82846 6.68273 9.90406 6.76812C9.94196 6.81093 9.97102 6.84632 9.99032 6.87315C9.99889 6.88505 10.005 6.89448 10.0089 6.90158C10.004 6.90874 9.99678 6.91826 9.98707 6.9302C9.9643 6.9582 9.93068 6.99605 9.88818 7.0417C9.80336 7.13281 9.68536 7.25264 9.55345 7.3822C9.2895 7.64146 8.97182 7.93776 8.75572 8.11878ZM7.06904 9.33945C7.06869 9.33955 7.06872 9.33952 7.0691 9.33943L7.06904 9.33945ZM11.6235 4.3032C11.5042 4.84147 11.1311 5.53743 10.5674 6.26398C10.5144 6.3323 10.4619 6.39404 10.4203 6.43831C10.3994 6.46057 10.382 6.47764 10.3691 6.48879C10.3688 6.48902 10.3685 6.48924 10.3683 6.48946C10.3677 6.48902 10.367 6.48857 10.3664 6.4881C10.3522 6.47793 10.3331 6.46247 10.3102 6.44246C10.2646 6.40262 10.2065 6.34714 10.1474 6.28577C9.44611 5.55799 8.50224 4.76756 7.7397 4.2698C7.68634 4.23497 7.63825 4.20019 7.60391 4.17246C7.59639 4.16639 7.5897 4.16079 7.58386 4.15572C7.59775 4.14597 7.61557 4.13423 7.63689 4.12086C7.69509 4.08437 7.77605 4.0378 7.86558 3.99014C8.94814 3.4138 9.91378 3.10859 10.6353 3.10859C11.1589 3.10859 11.4473 3.24592 11.596 3.53239C11.629 3.59599 11.6519 3.71989 11.6577 3.86746C11.6635 4.01288 11.6524 4.17265 11.6235 4.3032Z" fill="url(#paint0_linear_668_1326)" stroke="url(#paint1_linear_668_1326)" stroke-width="0.1" stroke-linecap="round" stroke-linejoin="round"/>
<defs>
<linearGradient id="paint0_linear_668_1326" x1="2.5" y1="7.00001" x2="12" y2="7.00001" gradientUnits="userSpaceOnUse">
<stop stop-color="#49346C"/>
<stop offset="1" stop-color="#682D72"/>
</linearGradient>
<linearGradient id="paint1_linear_668_1326" x1="2.5" y1="7.00001" x2="12" y2="7.00001" gradientUnits="userSpaceOnUse">
<stop stop-color="#412E62"/>
<stop offset="1" stop-color="#6C2E76"/>
</linearGradient>
</defs>
</svg>
