<svg width="14" height="14" viewBox="0 0 14 14" fill="none" xmlns="http://www.w3.org/2000/svg">
<g clip-path="url(#clip0_668_1306)">
<path d="M5.5457 13.9156C5.2036 13.8756 4.7862 13.7072 4.49582 13.4919C4.10916 13.2053 3.82545 12.8118 3.68677 12.3697C3.57671 12.0189 3.57123 11.9199 3.58009 10.4437L3.58758 9.19594C3.58813 9.10668 3.60172 9.01791 3.62797 8.93258L3.65378 8.8486C3.77814 8.44417 3.93598 8.17072 4.2112 7.88299C4.5801 7.49736 5.04788 7.2687 5.59416 7.20697C5.71264 7.19358 6.38743 7.18288 7.11991 7.18276C8.55538 7.18233 8.65808 7.17509 9.0364 7.04384C9.42678 6.90838 9.73901 6.71666 10.0269 6.43563C10.4265 6.0456 10.6594 5.61963 10.8009 5.02026C10.8166 4.95384 10.8341 4.62959 10.8409 4.27954C10.8475 3.93808 11.129 3.66152 11.4702 3.6672C12.0391 3.67666 12.1052 3.68221 12.3133 3.73788C13.055 3.93625 13.6405 4.48379 13.8892 5.21139C13.9946 5.52003 14 5.61037 14 7.05259C14 8.27434 13.9955 8.44352 13.9585 8.61004C13.7624 9.49146 13.0677 10.1772 12.1862 10.3594C12.0299 10.3917 11.6878 10.3965 9.52654 10.3965H7.23516C7.13084 10.3965 7.04628 10.4811 7.04628 10.5855C7.04628 10.6899 7.13084 10.7746 7.23516 10.7746H8.73452H9.862C10.1717 10.7746 10.4227 11.0259 10.4225 11.3358C10.4222 11.9636 10.3941 12.1677 10.2606 12.5115C9.96938 13.2622 9.24744 13.815 8.42758 13.9151C8.1796 13.9455 5.804 13.9459 5.5457 13.9156ZM9.18405 12.9093C9.33706 12.8571 9.50491 12.6891 9.55704 12.536C9.6744 12.1913 9.54198 11.848 9.23297 11.6957C9.09 11.6253 9.06344 11.62 8.90437 11.6302C8.53111 11.6542 8.27596 11.9165 8.27464 12.2776C8.27356 12.5808 8.42881 12.809 8.70982 12.9174C8.81599 12.9583 9.05216 12.9543 9.18405 12.9093Z" fill="#866C21"/>
<path d="M2.03401 10.3033C1.60762 10.262 1.1924 10.0915 0.849277 9.81671C0.392541 9.45098 0.0876186 8.90053 0.0194343 8.31868C0.00214266 8.17114 -0.00369344 7.65403 0.0022604 6.79559C0.0108669 5.55628 0.0136374 5.48739 0.0616611 5.31445C0.300856 4.45334 0.874901 3.87852 1.73998 3.63394C1.91997 3.58304 1.93856 3.58265 4.44182 3.57537L6.7862 3.56855C6.88358 3.56827 6.96238 3.48918 6.96238 3.39171C6.96238 3.29433 6.8835 3.21537 6.7862 3.21537H5.27414H4.13812C3.83311 3.21537 3.58586 2.96791 3.58586 2.66264C3.58586 2.07126 3.60844 1.87688 3.71274 1.56992C3.91519 0.974218 4.42612 0.438066 5.00384 0.215094C5.41646 0.0558392 5.35515 0.0605196 7.02142 0.0608146C8.5069 0.0612669 8.53572 0.0620142 8.71591 0.113106C9.59549 0.362687 10.2083 1.01005 10.3887 1.88019C10.4287 2.07301 10.4328 2.21673 10.4331 3.41956C10.4334 4.88284 10.4273 4.96261 10.2858 5.33044C10.0294 5.99727 9.47539 6.50705 8.78052 6.71561C8.60729 6.7676 8.56944 6.7691 7.04502 6.78458C5.37577 6.80147 5.36893 6.80194 4.99077 6.93087C4.32422 7.15819 3.77707 7.627 3.46213 8.2407C3.22686 8.69909 3.16119 9.04234 3.16098 9.81451L3.16096 9.86176C3.1609 10.1191 2.95155 10.3271 2.6945 10.3253C2.43801 10.3236 2.14079 10.3136 2.03401 10.3033ZM5.2922 2.32741C5.5434 2.24177 5.73459 1.97681 5.73459 1.71435C5.73459 1.43574 5.61543 1.23111 5.37704 1.1003C5.26758 1.04022 5.22665 1.03107 5.07342 1.03245C4.86417 1.03436 4.75885 1.07465 4.61405 1.20822C4.23927 1.55397 4.39142 2.19248 4.88439 2.34255C4.98574 2.37343 5.17827 2.36627 5.2922 2.32741Z" fill="#22425C"/>
</g>
<defs>
<clipPath id="clip0_668_1306">
<rect width="14" height="14" fill="white"/>
</clipPath>
</defs>
</svg>
