<svg width="14" height="14" viewBox="0 0 14 14" fill="none" xmlns="http://www.w3.org/2000/svg">
<path d="M6.92083 10.4442C6.50292 10.3894 5.92034 10.1283 5.48511 9.80064C5.33962 9.69112 5.02064 9.42273 4.77626 9.20423C4.09096 8.5915 3.82432 8.42264 3.42141 8.34623C2.98098 8.2627 2.39347 8.46542 1.80546 8.90381C1.46774 9.15559 1.47285 9.15866 1.61195 8.78753C1.75488 8.40618 1.96002 8.10108 2.30197 7.76136C2.58743 7.47776 2.70207 7.39319 2.99997 7.24643C3.50469 6.99778 3.86891 6.91939 4.52104 6.91907C5.53064 6.91867 5.94219 7.11624 6.96519 8.09302C7.53111 8.63337 7.76595 8.82255 8.11599 9.0201C8.32793 9.13972 8.34333 9.14261 8.65929 9.12211C9.21621 9.08597 9.61956 8.88338 9.95623 8.47068C10.1771 8.19997 10.2088 8.22924 10.096 8.59966C9.89211 9.26912 9.34915 9.86145 8.60925 10.2216C8.10274 10.4681 7.60441 10.5338 6.92083 10.4442Z" fill="url(#paint0_linear_668_1331)"/>
<path d="M9.84158 6.86629C9.42367 6.81152 8.84108 6.55037 8.40585 6.22272C8.26037 6.11319 7.94138 5.84481 7.69701 5.62631C7.01171 5.01357 6.74507 4.84471 6.34216 4.7683C5.90172 4.68478 5.31422 4.88749 4.72621 5.32588C4.38849 5.57766 4.3936 5.58073 4.5327 5.20961C4.67562 4.82826 4.88077 4.52316 5.22272 4.18344C5.50817 3.89983 5.62282 3.81526 5.92072 3.6685C6.42544 3.41985 6.78965 3.34147 7.44178 3.34114C8.45139 3.34074 8.86293 3.53831 9.88594 4.51509C10.4519 5.05545 10.6867 5.24462 11.0367 5.44217C11.2487 5.56179 11.2641 5.56468 11.58 5.54418C12.137 5.50804 12.5403 5.30545 12.877 4.89275C13.0978 4.62204 13.1295 4.65131 13.0167 5.02173C12.8129 5.69119 12.2699 6.28352 11.53 6.64365C11.0235 6.89017 10.5252 6.95588 9.84158 6.86629Z" fill="url(#paint1_linear_668_1331)"/>
<defs>
<linearGradient id="paint0_linear_668_1331" x1="1.52271" y1="8.70073" x2="10.1596" y2="8.70073" gradientUnits="userSpaceOnUse">
<stop stop-color="#543C73"/>
<stop offset="0.984375" stop-color="#00438A"/>
</linearGradient>
<linearGradient id="paint1_linear_668_1331" x1="4.44345" y1="5.1228" x2="13.0803" y2="5.1228" gradientUnits="userSpaceOnUse">
<stop stop-color="#533F6B"/>
<stop offset="1" stop-color="#003F83"/>
</linearGradient>
</defs>
</svg>
