<svg width="14" height="14" viewBox="0 0 14 14" fill="none" xmlns="http://www.w3.org/2000/svg">
<path d="M6.68731 1H1.10159C0.493192 1 0 1.52471 0 2.172C0 2.81926 0.493192 3.34397 1.10159 3.34397H6.68731C7.29569 3.34397 7.78888 2.81926 7.78888 2.172C7.78888 1.52471 7.29569 1 6.68731 1Z" fill="black"/>
<path d="M2.79287 4.21867H1.10159C0.493192 4.21867 0 4.74338 0 5.39067C0 6.03793 0.493192 6.56264 1.10159 6.56264H2.79287C3.40125 6.56264 3.89444 6.03793 3.89444 5.39067C3.89444 4.74338 3.40125 4.21867 2.79287 4.21867Z" fill="black"/>
<path d="M4.51052 10.656H1.10159C0.493192 10.656 0 11.1807 0 11.828C0 12.4753 0.493192 13 1.10159 13H4.51052C5.1189 13 5.61211 12.4753 5.61211 11.828C5.61211 11.1807 5.1189 10.656 4.51052 10.656Z" fill="black"/>
<path d="M7.31262 7.43736H1.10159C0.493192 7.43736 0 7.96207 0 8.60933C0 9.2566 0.493192 9.78133 1.10159 9.78133H7.31262C7.921 9.78133 8.4142 9.2566 8.4142 8.60933C8.4142 7.96207 7.921 7.43736 7.31262 7.43736Z" fill="black"/>
<path d="M11.2071 8.58248C11.2071 7.95004 10.7252 7.43736 10.1307 7.43736C9.53628 7.43736 9.05437 7.95004 9.05437 8.58248V8.63619C9.05437 9.26863 9.53628 9.78133 10.1307 9.78133C10.7252 9.78133 11.2071 9.26863 11.2071 8.63619V8.58248Z" fill="black"/>
<path d="M12.8983 1H9.51579C8.90741 1 8.41421 1.52471 8.41421 2.172C8.41421 2.81926 8.90741 3.34397 9.51579 3.34397H12.8983C13.5067 3.34397 14 2.81926 14 2.172C14 1.52471 13.5067 1 12.8983 1Z" fill="black"/>
</svg>
