<svg width="14" height="14" viewBox="0 0 14 14" fill="none" xmlns="http://www.w3.org/2000/svg">
<path d="M7 4C8.48724 4 9.7217 2.9178 9.95887 1.49791C10.0044 1.22554 10.2239 1 10.5 1H12.5C12.7761 1 13 1.22386 13 1.5V12.5C13 12.7761 12.7761 13 12.5 13H1.5C1.22386 13 1 12.7761 1 12.5V1.5C1 1.22386 1.22386 1 1.5 1H3.5C3.77614 1 3.99563 1.22554 4.04113 1.49791C4.2783 2.9178 5.51276 4 7 4Z" fill="#392C87"/>
<path d="M5.12028 12C5.03364 12 4.95686 11.9442 4.93008 11.8618L4.08509 9.26182C4.04309 9.13259 4.13942 9 4.2753 9H4.56913C4.65618 9 4.73323 9.05631 4.75967 9.13924L5.50858 11.4879C5.53528 11.5717 5.47281 11.6571 5.38494 11.6571C5.29636 11.6571 5.23382 11.5704 5.26182 11.4863L6.04489 9.13676C6.07211 9.05509 6.14854 9 6.23463 9H6.58319C6.67013 9 6.74711 9.05617 6.77364 9.13896L7.52817 11.4934C7.55411 11.5744 7.49372 11.6571 7.40872 11.6571C7.32342 11.6571 7.263 11.5738 7.2895 11.4927L8.05925 9.13786C8.08613 9.05563 8.16283 9 8.24935 9H8.48894C8.62482 9 8.72115 9.13259 8.67915 9.26182L7.83416 11.8618C7.80738 11.9442 7.73059 12 7.64395 12H7.19397C7.10721 12 7.03035 11.9441 7.00367 11.8615L6.32483 9.76135C6.31001 9.71552 6.34418 9.66857 6.39234 9.66857C6.44074 9.66857 6.47493 9.71597 6.45967 9.7619L5.76131 11.8631C5.73414 11.9448 5.65767 12 5.57152 12H5.12028Z" fill="white"/>
<path d="M8.96508 12C8.82047 12 8.72366 11.8513 8.78221 11.719L9.93346 9.11903C9.9655 9.04666 10.0372 9 10.1163 9H10.5374C10.6164 9 10.6881 9.04656 10.7202 9.11881L11.8751 11.7188C11.9338 11.8511 11.837 12 11.6923 12H11.4102C11.3291 12 11.2561 11.9511 11.2252 11.8761L10.2381 9.47733C10.2134 9.41731 10.2575 9.35143 10.3224 9.35143C10.3874 9.35143 10.4315 9.41741 10.4067 9.47744L9.41563 11.8764C9.38472 11.9512 9.31175 12 9.23079 12H8.96508ZM9.60316 11.3571C9.46559 11.3571 9.3691 11.2215 9.41423 11.0915L9.45838 10.9644C9.48632 10.8839 9.56215 10.83 9.64731 10.83H10.8966C10.9812 10.83 11.0567 10.8833 11.0851 10.963L11.1302 11.0902C11.1765 11.2204 11.08 11.3571 10.9418 11.3571H9.60316Z" fill="white"/>
</svg>
